<?xml version="1.0" encoding="UTF-8" standalone="no"?>
<!DOCTYPE svg PUBLIC "-//W3C//DTD SVG 1.1//EN" "http://www.w3.org/Graphics/SVG/1.1/DTD/svg11.dtd">
<svg version="1.1" xmlns="http://www.w3.org/2000/svg" xmlns:xlink="http://www.w3.org/1999/xlink" preserveAspectRatio="xMidYMid meet" viewBox="-0.9999999999999964 -0.9999999999999964 61 61" width="57" height="57"><defs><path d="M28.5 57C44.24 57 57 44.24 57 28.5C57 12.76 44.24 0 28.5 0C12.76 0 0 12.76 0 28.5C0 44.24 12.76 57 28.5 57" id="f1kDi3GdJf"></path><path d="M46.61 32.98C46.61 37.92 42.61 41.92 37.68 41.92C32.75 41.92 28.75 37.92 28.75 32.98C28.75 31.75 28.75 25.57 28.75 14.45L35.13 14.45C35.13 25.75 35.13 32.03 35.13 33.29C35.13 34.7 36.27 35.84 37.68 35.84C39.09 35.84 40.23 34.7 40.23 33.29C40.23 32.03 40.23 25.75 40.23 14.45L46.62 14.45C46.62 24.34 46.61 30.51 46.61 32.98ZM28.16 35.64C27.23 35.64 19.82 35.64 18.89 35.64C18.89 35.64 21.67 33.12 25.16 29.63C26.82 27.94 27.75 25.66 27.72 23.29C27.72 23.29 27.72 23.28 27.72 23.28C27.77 18.39 23.84 14.4 18.96 14.35C16.55 14.33 14.23 15.29 12.55 17.02C10.87 18.71 9.94 21 9.96 23.39C10.6 23.39 15.7 23.39 16.34 23.39C16.34 22.69 16.61 22.03 17.09 21.53C18.07 20.52 19.68 20.5 20.68 21.48C21.69 22.46 21.71 24.07 20.73 25.07C20.72 25.08 20.71 25.09 20.7 25.1C20.7 25.1 15.6 30.04 11.16 34.37C10.37 35.2 9.93 36.32 9.96 37.48C9.96 39.97 11.96 42 14.45 42.02C16.35 42.02 31.5 42.02 33.39 42.02C32.41 41.51 31.52 40.85 30.75 40.07C29.84 39.18 29.11 38.11 28.61 36.94C28.43 36.51 28.28 36.08 28.16 35.64ZM48.15 40.93L47.7 40.93L47.24 40.26L46.83 40.26L46.83 40.93L46.46 40.93L46.46 38.98C46.99 38.98 47.28 38.98 47.34 38.98C47.77 38.98 48.09 39.19 48.09 39.6C48.1 39.88 47.91 40.13 47.63 40.19C47.7 40.29 47.88 40.54 48.15 40.93ZM47.31 39.31C47.27 39.31 47.12 39.31 46.83 39.31L46.83 39.95C47.12 39.95 47.27 39.95 47.31 39.95C47.56 39.95 47.7 39.82 47.7 39.63C47.7 39.42 47.56 39.31 47.31 39.31ZM49.12 40C49.14 41.05 48.3 41.92 47.24 41.94C46.19 41.97 45.32 41.13 45.3 40.07C45.29 40.05 45.29 40.03 45.3 40.01C45.3 40 45.3 40 45.3 40C45.27 38.94 46.11 38.07 47.17 38.05C48.22 38.02 49.1 38.86 49.12 39.92C49.12 39.94 49.12 39.96 49.12 39.98C49.12 39.99 49.12 39.99 49.12 40ZM47.2 38.3C46.27 38.3 45.51 39.06 45.51 40C45.51 40 45.51 40 45.51 40.01C45.52 40.94 46.28 41.7 47.21 41.69C48.15 41.69 48.9 40.93 48.9 40C48.9 40 48.9 40 48.9 40C48.9 39.05 48.14 38.3 47.2 38.3Z" id="a2e3ZW2wrK"></path></defs><g><g><use xlink:href="#f1kDi3GdJf" opacity="1" fill="#1576d4" fill-opacity="1"></use><g><use xlink:href="#f1kDi3GdJf" opacity="1" fill-opacity="0" stroke="#000000" stroke-width="1" stroke-opacity="0"></use></g></g><g><use xlink:href="#a2e3ZW2wrK" opacity="1" fill="#ffffff" fill-opacity="1"></use><g><use xlink:href="#a2e3ZW2wrK" opacity="1" fill-opacity="0" stroke="#000000" stroke-width="1" stroke-opacity="0"></use></g></g></g></svg>