<?xml version="1.0" encoding="UTF-8" standalone="no"?>
<!DOCTYPE svg PUBLIC "-//W3C//DTD SVG 1.1//EN" "http://www.w3.org/Graphics/SVG/1.1/DTD/svg11.dtd">
<svg version="1.1" xmlns="http://www.w3.org/2000/svg" xmlns:xlink="http://www.w3.org/1999/xlink" preserveAspectRatio="xMidYMid meet" viewBox="45.76691729323325 269.0000000000001 537.2330827067669 103.99999999999989" width="533.23" height="100"><defs><path d="M571.66 270C576.27 270 580 273.73 580 278.34C580 296.67 580 343.33 580 361.66C580 366.27 576.27 370 571.66 370C466.68 370 160.09 370 55.11 370C50.5 370 46.77 366.27 46.77 361.66C46.77 343.33 46.77 296.67 46.77 278.34C46.77 273.73 50.5 270 55.11 270C160.09 270 466.68 270 571.66 270Z" id="i3orxiQiFE"></path><path d="M165.9 307.68L165.96 307.71L166.03 307.75L166.09 307.79L166.14 307.84L166.19 307.89L166.24 307.94L166.29 308L166.33 308.05L166.37 308.11L166.4 308.18L166.43 308.24L166.46 308.31L166.48 308.37L166.5 308.44L166.52 308.51L166.53 308.58L166.54 308.65L166.54 308.72L166.55 308.8L166.54 308.87L166.54 308.94L166.53 309.01L166.52 309.08L166.5 309.15L166.48 309.22L166.46 309.29L166.43 309.35L166.4 309.42L166.37 309.48L166.33 309.54L166.29 309.6L166.24 309.65L166.19 309.7L166.14 309.75L166.09 309.8L166.03 309.84L165.96 309.88L165.9 309.91L165.83 309.95L162.95 311.09L162.95 327.56L163.11 327.61L163.27 327.66L163.42 327.72L163.57 327.78L163.72 327.84L163.86 327.91L164 327.98L164.14 328.06L164.28 328.15L164.41 328.23L164.54 328.32L164.67 328.42L164.79 328.52L164.91 328.62L165.03 328.73L165.15 328.84L165.26 328.95L165.36 329.07L165.46 329.19L165.56 329.31L165.66 329.44L165.75 329.57L165.84 329.7L165.92 329.84L166 329.98L166.07 330.12L166.14 330.27L166.21 330.41L166.27 330.56L166.32 330.72L166.37 330.87L166.42 331.03L166.46 331.19L166.49 331.35L166.52 331.51L166.55 331.68L166.57 331.84L166.58 332.01L166.59 332.18L166.59 332.35L166.59 332.55L166.58 332.75L166.56 332.95L166.53 333.14L166.49 333.34L166.44 333.53L166.39 333.72L166.33 333.9L166.27 334.08L166.19 334.26L166.11 334.44L166.02 334.61L165.93 334.78L165.83 334.95L165.72 335.11L165.61 335.26L165.49 335.42L165.37 335.57L165.24 335.71L165.11 335.85L164.97 335.98L164.83 336.11L164.68 336.23L164.52 336.35L164.37 336.46L164.21 336.57L164.04 336.67L163.87 336.76L163.7 336.85L163.52 336.93L163.34 337.01L163.16 337.07L162.98 337.13L162.79 337.18L162.6 337.23L162.4 337.27L162.21 337.29L162.01 337.32L161.81 337.33L161.61 337.33L161.41 337.33L161.21 337.32L161.02 337.29L160.82 337.27L160.63 337.23L160.44 337.18L160.25 337.13L160.07 337.07L159.88 337.01L159.7 336.93L159.53 336.85L159.36 336.76L159.19 336.67L159.02 336.57L158.86 336.46L158.7 336.35L158.55 336.23L158.4 336.11L158.26 335.98L158.12 335.85L157.98 335.71L157.86 335.57L157.73 335.42L157.61 335.26L157.5 335.11L157.4 334.95L157.3 334.78L157.2 334.61L157.12 334.44L157.04 334.26L156.96 334.08L156.89 333.9L156.84 333.72L156.78 333.53L156.74 333.34L156.7 333.14L156.67 332.95L156.65 332.75L156.64 332.55L156.63 332.35L156.64 332.18L156.65 332.01L156.66 331.84L156.68 331.68L156.7 331.51L156.73 331.35L156.77 331.19L156.81 331.03L156.86 330.87L156.91 330.72L156.96 330.56L157.02 330.41L157.09 330.27L157.16 330.12L157.23 329.98L157.31 329.84L157.39 329.7L157.48 329.57L157.57 329.44L157.66 329.31L157.76 329.19L157.87 329.07L157.97 328.95L158.08 328.84L158.2 328.73L158.31 328.62L158.43 328.52L158.56 328.42L158.69 328.32L158.82 328.23L158.95 328.15L159.09 328.06L159.22 327.98L159.37 327.91L159.51 327.84L159.66 327.78L159.81 327.72L159.96 327.66L160.12 327.61L160.27 327.56L160.27 312.24L147.82 317.22L147.82 339.82L147.82 339.95L147.82 340.08L147.81 340.21L147.79 340.34L147.77 340.47L147.75 340.6L147.72 340.73L147.69 340.85L147.65 340.98L147.61 341.11L147.57 341.24L147.52 341.37L147.47 341.5L147.42 341.62L147.36 341.75L147.3 341.88L147.23 342.01L147.16 342.13L147.09 342.26L147.01 342.38L146.93 342.51L146.85 342.63L146.76 342.76L146.67 342.88L146.57 343.01L146.47 343.13L146.37 343.25L146.27 343.38L146.16 343.5L146.05 343.62L145.93 343.74L145.81 343.86L145.69 343.98L145.57 344.1L145.44 344.22L145.31 344.34L145.18 344.45L145.04 344.57L144.9 344.69L144.76 344.8L144.62 344.92L144.47 345.03L144.32 345.14L144.17 345.26L144.02 345.37L143.86 345.48L143.7 345.59L143.54 345.7L143.38 345.81L143.22 345.92L143.05 346.03L142.88 346.13L142.71 346.24L142.54 346.35L142.36 346.45L142.19 346.56L142.01 346.67L141.83 346.77L141.64 346.88L141.46 346.98L141.27 347.08L141.08 347.19L140.89 347.29L140.69 347.39L140.5 347.5L140.3 347.6L140.1 347.7L139.89 347.8L139.69 347.91L139.48 348.01L139.27 348.11L139.06 348.21L138.85 348.31L138.63 348.41L138.41 348.51L138.19 348.61L137.97 348.71L137.75 348.81L137.52 348.91L137.29 349.02L136.81 349.2L136.33 349.38L135.83 349.57L135.33 349.74L134.82 349.92L134.31 350.09L133.79 350.26L133.26 350.43L132.72 350.59L132.17 350.75L131.62 350.91L131.07 351.06L130.5 351.21L129.93 351.36L129.35 351.5L128.77 351.64L128.18 351.78L127.58 351.91L126.98 352.03L126.37 352.15L125.76 352.27L125.14 352.38L124.52 352.49L123.89 352.59L123.25 352.68L122.61 352.77L121.97 352.86L121.32 352.94L120.66 353.01L120 353.08L119.34 353.14L118.67 353.2L117.99 353.25L117.31 353.3L116.63 353.33L115.95 353.36L115.25 353.39L114.56 353.41L113.86 353.42L113.16 353.42L112.46 353.42L111.76 353.41L111.06 353.39L110.37 353.36L109.68 353.33L108.99 353.3L108.31 353.25L107.64 353.2L106.96 353.14L106.29 353.08L105.63 353.01L104.97 352.94L104.31 352.86L103.66 352.77L103.02 352.68L102.38 352.59L101.74 352.49L101.11 352.38L100.49 352.27L99.87 352.15L99.26 352.03L98.66 351.91L98.06 351.78L97.47 351.64L96.88 351.5L96.31 351.36L95.73 351.21L95.17 351.06L94.61 350.91L94.07 350.75L93.52 350.59L92.99 350.43L92.47 350.26L91.95 350.09L91.44 349.92L90.94 349.74L90.45 349.57L89.97 349.38L89.49 349.2L89.03 349.02L88.8 348.91L88.57 348.81L88.35 348.71L88.12 348.61L87.9 348.51L87.68 348.41L87.46 348.31L87.24 348.21L87.03 348.11L86.81 348.01L86.6 347.91L86.39 347.8L86.18 347.7L85.98 347.6L85.77 347.5L85.57 347.39L85.37 347.29L85.18 347.19L84.98 347.08L84.79 346.98L84.6 346.88L84.42 346.77L84.23 346.67L84.05 346.56L83.87 346.45L83.7 346.35L83.52 346.24L83.35 346.13L83.19 346.03L83.02 345.92L82.86 345.81L82.7 345.7L82.55 345.59L82.4 345.48L82.25 345.37L82.11 345.26L81.96 345.14L81.83 345.03L81.69 344.92L81.56 344.8L81.42 344.69L81.28 344.57L81.14 344.46L81.01 344.34L80.88 344.23L80.75 344.11L80.63 344L80.51 343.88L80.39 343.76L80.27 343.65L80.16 343.53L80.05 343.41L79.95 343.29L79.85 343.18L79.75 343.06L79.65 342.94L79.56 342.82L79.47 342.7L79.39 342.58L79.31 342.46L79.23 342.33L79.16 342.21L79.09 342.09L79.02 341.96L78.96 341.84L78.9 341.71L78.85 341.58L78.8 341.45L78.75 341.32L78.71 341.19L78.67 341.06L78.63 340.93L78.6 340.79L78.57 340.66L78.55 340.52L78.53 340.39L78.51 340.25L78.5 340.11L78.5 339.97L78.5 339.82L78.5 317.22L60.68 310.14L60.61 310.11L60.55 310.07L60.49 310.03L60.43 309.99L60.37 309.94L60.32 309.89L60.27 309.84L60.23 309.79L60.18 309.73L60.15 309.67L60.11 309.61L60.08 309.54L60.05 309.48L60.03 309.41L60.01 309.34L60 309.27L59.98 309.2L59.97 309.13L59.97 309.06L59.97 308.99L59.97 308.92L59.97 308.84L59.98 308.77L60 308.7L60.01 308.63L60.03 308.56L60.05 308.5L60.08 308.43L60.11 308.37L60.15 308.31L60.18 308.25L60.23 308.19L60.27 308.13L60.32 308.08L60.37 308.03L60.43 307.99L60.49 307.94L60.55 307.9L60.61 307.87L60.68 307.84L112.59 286.77L112.61 286.76L112.64 286.75L112.67 286.73L112.7 286.72L112.73 286.72L112.76 286.71L112.79 286.7L112.82 286.7L112.85 286.69L112.88 286.69L112.91 286.68L112.94 286.68L112.97 286.68L113 286.68L113.03 286.68L113.06 286.68L113.09 286.68L113.12 286.68L113.15 286.68L113.22 286.68L113.25 286.68L113.28 286.68L113.32 286.67L113.35 286.67L113.39 286.67L113.42 286.67L113.46 286.67L113.49 286.67L113.53 286.66L113.57 286.66L113.6 286.66L113.64 286.65L113.68 286.64L113.72 286.64L113.76 286.63L113.8 286.62L113.84 286.61L113.88 286.59L113.93 286.58L165.83 307.65L165.9 307.68ZM113.32 331.03L113.29 331.04L113.26 331.06L113.23 331.07L113.2 331.08L113.17 331.09L113.15 331.1L113.12 331.11L113.09 331.12L113.07 331.13L113.04 331.13L113.02 331.14L112.99 331.14L112.97 331.15L112.94 331.15L112.92 331.15L112.9 331.16L112.87 331.16L112.85 331.16L112.82 331.15L112.8 331.15L112.78 331.15L112.75 331.14L112.73 331.14L112.7 331.13L112.68 331.13L112.65 331.12L112.63 331.11L112.6 331.1L112.57 331.09L112.54 331.08L112.52 331.07L112.49 331.06L112.46 331.04L112.43 331.03L112.39 331.01L80.79 318.18L80.79 339.82L80.8 339.89L80.8 339.95L80.81 340.02L80.82 340.09L80.83 340.16L80.84 340.24L80.86 340.31L80.88 340.39L80.91 340.47L80.94 340.55L80.97 340.63L81 340.71L81.04 340.79L81.08 340.88L81.12 340.97L81.17 341.05L81.22 341.14L81.27 341.23L81.33 341.33L81.39 341.42L81.46 341.52L81.53 341.61L81.6 341.71L81.67 341.81L81.75 341.91L81.84 342.01L81.93 342.11L82.02 342.21L82.11 342.32L82.21 342.42L82.32 342.53L82.42 342.64L82.54 342.75L82.65 342.86L82.78 342.97L82.9 343.08L83.03 343.19L83.16 343.3L83.3 343.41L83.45 343.52L83.59 343.64L83.74 343.75L83.9 343.86L84.06 343.97L84.22 344.08L84.39 344.19L84.56 344.3L84.73 344.41L84.91 344.52L85.09 344.63L85.27 344.74L85.46 344.85L85.65 344.96L85.85 345.07L86.04 345.17L86.24 345.28L86.45 345.39L86.65 345.49L86.86 345.6L87.07 345.7L87.29 345.81L87.5 345.91L87.72 346.01L87.94 346.12L88.17 346.22L88.39 346.32L88.62 346.42L88.85 346.52L89.09 346.62L89.32 346.72L89.56 346.81L89.8 346.91L90.29 347.11L90.8 347.32L91.32 347.51L91.85 347.71L92.39 347.9L92.93 348.08L93.49 348.27L94.05 348.44L94.63 348.62L95.21 348.79L95.8 348.95L96.4 349.11L97.01 349.26L97.62 349.41L98.24 349.55L98.88 349.69L99.51 349.82L100.16 349.95L100.82 350.07L101.48 350.18L102.15 350.29L102.82 350.4L103.5 350.49L104.19 350.58L104.89 350.67L105.59 350.74L106.3 350.81L107.02 350.88L107.74 350.93L108.47 350.98L109.21 351.02L109.95 351.06L110.69 351.09L111.45 351.11L112.21 351.12L112.97 351.12L113.73 351.12L114.49 351.1L115.24 351.08L115.99 351.05L116.73 351.02L117.46 350.97L118.19 350.92L118.92 350.85L119.63 350.79L120.34 350.71L121.05 350.63L121.74 350.54L122.43 350.44L123.12 350.34L123.79 350.24L124.46 350.12L125.12 350L125.78 349.88L126.42 349.75L127.06 349.61L127.69 349.47L128.32 349.33L128.93 349.18L129.54 349.02L130.14 348.86L130.73 348.7L131.31 348.54L131.88 348.37L132.45 348.19L133 348.02L133.55 347.84L134.09 347.66L134.61 347.47L135.13 347.29L135.64 347.1L136.14 346.91L136.4 346.81L136.65 346.72L136.89 346.62L137.14 346.52L137.37 346.42L137.61 346.32L137.84 346.22L138.07 346.12L138.3 346.01L138.52 345.91L138.74 345.81L138.95 345.7L139.16 345.6L139.37 345.49L139.57 345.39L139.77 345.28L139.97 345.17L140.16 345.07L140.35 344.96L140.54 344.85L140.72 344.74L140.9 344.63L141.08 344.52L141.25 344.41L141.42 344.3L141.58 344.19L141.74 344.08L141.9 343.97L142.06 343.86L142.21 343.75L142.35 343.64L142.5 343.52L142.64 343.41L142.77 343.3L142.91 343.19L143.04 343.08L143.12 343L143.2 342.93L143.29 342.85L143.37 342.77L143.44 342.69L143.52 342.62L143.6 342.53L143.67 342.45L143.74 342.37L143.81 342.29L143.88 342.21L143.95 342.12L144.02 342.03L144.08 341.95L144.15 341.86L144.21 341.77L144.27 341.68L144.33 341.59L144.39 341.5L144.44 341.41L144.5 341.32L144.55 341.22L144.6 341.13L144.65 341.04L144.7 340.94L144.75 340.84L144.8 340.74L144.84 340.64L144.88 340.55L144.93 340.44L144.97 340.34L145 340.24L145.04 340.14L145.08 340.03L145.11 339.93L145.14 339.82L144.95 318.18L113.35 331.01L113.32 331.03ZM384.45 302.61L384.79 302.62L385.12 302.65L385.45 302.68L385.77 302.71L386.09 302.75L386.41 302.8L386.72 302.86L387.03 302.92L387.33 302.99L387.63 303.07L387.93 303.15L388.22 303.24L388.51 303.34L388.8 303.44L389.08 303.55L389.36 303.67L389.63 303.8L389.9 303.93L390.17 304.07L390.43 304.22L390.69 304.37L390.94 304.53L391.19 304.7L391.44 304.88L391.68 305.06L391.92 305.25L392.16 305.45L392.39 305.66L392.58 305.8L392.77 305.94L392.95 306.09L393.13 306.25L393.3 306.41L393.47 306.58L393.63 306.75L393.8 306.93L393.95 307.11L394.11 307.31L394.26 307.5L394.4 307.7L394.54 307.91L394.68 308.12L394.81 308.34L394.94 308.56L395.06 308.79L395.18 309.02L395.29 309.26L395.4 309.5L395.5 309.75L395.6 310L395.7 310.26L395.79 310.52L395.87 310.78L395.95 311.05L396.03 311.33L396.1 311.6L396.16 311.89L396.22 312.17L390.67 313.51L390.58 313.06L390.49 312.62L390.39 312.2L390.28 311.8L390.16 311.4L390.02 311.03L389.88 310.67L389.73 310.32L389.56 310L389.39 309.68L389.21 309.38L389.01 309.1L388.81 308.83L388.59 308.58L388.37 308.34L388.13 308.12L387.89 307.91L387.63 307.72L387.37 307.54L387.09 307.38L386.81 307.24L386.51 307.11L386.2 306.99L385.89 306.89L385.56 306.81L385.22 306.74L384.88 306.69L384.52 306.65L384.15 306.62L383.77 306.62L383.51 306.62L383.24 306.63L382.99 306.65L382.73 306.68L382.48 306.71L382.23 306.76L381.99 306.81L381.75 306.87L381.52 306.93L381.29 307.01L381.06 307.09L380.84 307.18L380.63 307.28L380.41 307.39L380.2 307.5L380 307.63L379.8 307.76L379.61 307.9L379.42 308.05L379.23 308.21L379.05 308.37L378.88 308.55L378.7 308.73L378.54 308.92L378.38 309.12L378.22 309.33L378.07 309.55L377.92 309.78L377.78 310.01L377.64 310.26L377.51 310.47L377.38 310.69L377.26 310.92L377.14 311.15L377.02 311.39L376.91 311.63L376.8 311.88L376.7 312.14L376.6 312.41L376.5 312.67L376.41 312.95L376.32 313.23L376.24 313.52L376.16 313.81L376.09 314.11L376.02 314.41L375.95 314.72L375.89 315.04L375.84 315.36L375.79 315.69L375.74 316.02L375.7 316.36L375.66 316.7L375.63 317.05L375.6 317.41L375.58 317.77L375.56 318.13L375.55 318.5L375.54 318.88L375.54 319.26L375.54 319.68L375.55 320.09L375.57 320.49L375.59 320.89L375.62 321.28L375.65 321.67L375.69 322.05L375.74 322.42L375.79 322.79L375.85 323.15L375.91 323.51L375.98 323.85L376.06 324.2L376.14 324.53L376.23 324.86L376.32 325.18L376.42 325.5L376.53 325.81L376.64 326.11L376.76 326.41L376.88 326.7L377.01 326.98L377.14 327.26L377.28 327.53L377.42 327.8L377.57 328.05L377.72 328.31L377.88 328.55L378.05 328.79L378.22 329.02L378.37 329.21L378.53 329.39L378.68 329.57L378.84 329.73L379 329.89L379.16 330.04L379.33 330.18L379.49 330.32L379.66 330.45L379.83 330.57L380 330.69L380.17 330.8L380.35 330.9L380.53 330.99L380.71 331.08L380.89 331.17L381.08 331.24L381.27 331.31L381.46 331.38L381.65 331.44L381.85 331.49L382.05 331.54L382.25 331.58L382.46 331.61L382.67 331.64L382.88 331.66L383.1 331.68L383.32 331.7L383.54 331.7L383.77 331.71L384.15 331.7L384.52 331.68L384.88 331.64L385.23 331.58L385.57 331.51L385.91 331.43L386.23 331.33L386.55 331.22L386.85 331.09L387.15 330.94L387.44 330.78L387.71 330.6L387.98 330.41L388.24 330.2L388.49 329.98L388.73 329.74L388.96 329.49L389.18 329.22L389.39 328.94L389.59 328.64L389.78 328.33L389.96 328L390.13 327.65L390.29 327.29L390.44 326.92L390.59 326.53L390.72 326.12L390.84 325.7L390.95 325.26L391.05 324.81L396.41 326.53L396.23 327.18L396.03 327.79L395.82 328.39L395.59 328.97L395.34 329.52L395.08 330.05L394.8 330.56L394.5 331.05L394.19 331.52L393.86 331.96L393.51 332.38L393.15 332.79L392.77 333.17L392.37 333.52L391.96 333.86L391.53 334.18L391.08 334.47L390.62 334.74L390.14 334.99L389.65 335.22L389.13 335.42L388.6 335.61L388.06 335.77L387.5 335.91L386.92 336.03L386.32 336.13L385.71 336.2L385.08 336.26L384.43 336.29L383.77 336.3L383.32 336.3L382.87 336.28L382.42 336.25L381.98 336.21L381.55 336.16L381.13 336.1L380.71 336.02L380.3 335.94L379.9 335.84L379.5 335.73L379.11 335.62L378.73 335.49L378.35 335.35L377.98 335.2L377.62 335.03L377.26 334.86L376.92 334.68L376.57 334.48L376.24 334.28L375.91 334.06L375.59 333.83L375.28 333.6L374.98 333.35L374.68 333.09L374.39 332.82L374.1 332.54L373.83 332.25L373.56 331.95L373.3 331.64L373.05 331.32L372.82 331.01L372.6 330.7L372.39 330.38L372.19 330.06L371.99 329.73L371.81 329.39L371.63 329.05L371.45 328.7L371.29 328.35L371.13 327.99L370.98 327.62L370.84 327.25L370.71 326.88L370.58 326.49L370.46 326.1L370.35 325.71L370.25 325.31L370.15 324.9L370.06 324.48L369.98 324.06L369.91 323.63L369.84 323.19L369.79 322.75L369.74 322.3L369.7 321.84L369.66 321.38L369.63 320.91L369.62 320.43L369.6 319.94L369.6 319.45L369.6 318.88L369.62 318.32L369.65 317.77L369.68 317.23L369.73 316.7L369.78 316.18L369.85 315.67L369.92 315.17L370.01 314.68L370.1 314.2L370.21 313.73L370.32 313.27L370.45 312.81L370.58 312.37L370.72 311.93L370.88 311.51L371.04 311.09L371.21 310.68L371.39 310.28L371.59 309.89L371.79 309.5L372 309.13L372.22 308.76L372.44 308.41L372.68 308.06L372.93 307.71L373.18 307.38L373.45 307.05L373.72 306.74L374 306.43L374.26 306.18L374.51 305.94L374.77 305.71L375.04 305.49L375.31 305.28L375.59 305.07L375.87 304.87L376.16 304.68L376.45 304.5L376.75 304.33L377.05 304.16L377.36 304L377.67 303.85L377.99 303.71L378.31 303.58L378.64 303.45L378.98 303.33L379.31 303.23L379.66 303.13L380.01 303.03L380.36 302.95L380.72 302.88L381.08 302.81L381.45 302.75L381.82 302.71L382.2 302.67L382.59 302.64L382.98 302.61L383.37 302.6L383.77 302.6L384.11 302.6L384.45 302.61ZM453.56 302.27L454.24 302.34L454.9 302.44L455.54 302.57L456.16 302.72L456.76 302.9L457.35 303.11L457.92 303.35L458.47 303.62L459.01 303.91L459.53 304.23L460.03 304.57L460.51 304.94L460.97 305.34L461.42 305.76L461.86 306.21L462.28 306.69L462.68 307.19L463.03 307.68L463.36 308.19L463.68 308.7L463.98 309.23L464.25 309.78L464.51 310.34L464.75 310.91L464.97 311.5L465.17 312.1L465.35 312.72L465.51 313.36L465.66 314.01L465.78 314.68L465.89 315.37L465.97 316.07L466.04 316.79L466.09 317.53L466.11 318.29L466.12 319.07L466.11 319.96L466.07 320.83L466.01 321.67L465.92 322.49L465.81 323.29L465.67 324.06L465.51 324.81L465.32 325.54L465.11 326.24L464.88 326.92L464.62 327.58L464.34 328.22L464.03 328.83L463.7 329.42L463.35 330L462.98 330.55L462.58 331.08L462.16 331.6L461.72 332.09L461.32 332.5L460.91 332.89L460.48 333.25L460.05 333.58L459.6 333.89L459.14 334.18L458.66 334.45L458.18 334.69L457.69 334.91L457.18 335.11L456.66 335.28L456.13 335.43L455.59 335.56L455.04 335.67L454.48 335.76L453.91 335.83L453.33 335.88L452.74 335.91L452.14 335.92L451.43 335.91L450.73 335.86L450.05 335.79L449.39 335.69L448.75 335.56L448.13 335.41L447.52 335.23L446.93 335.02L446.36 334.78L445.81 334.51L445.28 334.22L444.76 333.9L444.26 333.56L443.78 333.19L443.31 332.79L442.86 332.37L442.43 331.92L442.01 331.44L441.61 330.94L441.26 330.45L440.92 329.95L440.61 329.43L440.31 328.9L440.03 328.35L439.78 327.8L439.54 327.22L439.32 326.63L439.12 326.03L438.94 325.41L438.77 324.77L438.63 324.12L438.51 323.45L438.4 322.77L438.32 322.06L438.25 321.34L438.2 320.6L438.17 319.84L438.16 319.07L438.18 318.17L438.21 317.3L438.28 316.46L438.36 315.64L438.48 314.84L438.61 314.07L438.78 313.32L438.96 312.59L439.17 311.89L439.41 311.21L439.67 310.55L439.95 309.92L440.25 309.3L440.58 308.71L440.93 308.13L441.31 307.58L441.7 307.05L442.12 306.54L442.57 306.04L442.94 305.66L443.32 305.29L443.73 304.95L444.14 304.62L444.58 304.32L445.03 304.03L445.49 303.77L445.97 303.52L446.46 303.3L446.96 303.09L447.48 302.91L448.02 302.75L448.57 302.61L449.13 302.49L449.71 302.39L450.3 302.31L450.9 302.26L451.51 302.22L452.14 302.21L452.86 302.23L453.56 302.27ZM351.73 302.09L352.25 302.14L352.77 302.21L353.27 302.29L353.76 302.39L354.23 302.51L354.7 302.64L355.15 302.78L355.59 302.94L356.02 303.12L356.43 303.31L356.83 303.51L357.22 303.73L357.6 303.97L357.97 304.22L358.32 304.49L358.66 304.78L358.99 305.08L359.3 305.39L359.61 305.72L359.9 306.07L360.18 306.43L360.44 306.81L360.7 307.21L360.94 307.62L361.17 308.05L361.39 308.5L361.59 308.96L361.78 309.44L361.96 309.94L362.13 310.45L356.58 311.98L356.5 311.64L356.42 311.32L356.33 311.01L356.23 310.7L356.12 310.41L356.01 310.13L355.89 309.86L355.76 309.61L355.62 309.36L355.48 309.12L355.33 308.9L355.18 308.68L355.02 308.48L354.85 308.29L354.67 308.11L354.49 307.93L354.31 307.77L354.11 307.62L353.91 307.48L353.71 307.35L353.5 307.24L353.28 307.13L353.06 307.03L352.83 306.94L352.6 306.87L352.36 306.8L352.12 306.74L351.87 306.7L351.62 306.66L351.36 306.64L351.1 306.62L350.83 306.62L350.65 306.62L350.48 306.62L350.31 306.63L350.14 306.64L349.97 306.65L349.81 306.66L349.65 306.67L349.5 306.69L349.35 306.71L349.2 306.74L349.05 306.76L348.91 306.79L348.77 306.82L348.63 306.85L348.5 306.89L348.37 306.93L348.24 306.97L348.11 307.01L347.99 307.06L347.87 307.11L347.75 307.17L347.63 307.22L347.52 307.28L347.41 307.34L347.3 307.41L347.2 307.48L347.1 307.55L347 307.63L346.9 307.7L346.8 307.78L346.71 307.87L346.62 307.96L346.55 308.03L346.48 308.1L346.41 308.18L346.35 308.25L346.29 308.33L346.23 308.41L346.17 308.49L346.12 308.57L346.06 308.65L346.01 308.73L345.96 308.82L345.92 308.9L345.87 308.99L345.83 309.07L345.79 309.16L345.76 309.25L345.72 309.34L345.69 309.43L345.66 309.52L345.63 309.62L345.6 309.71L345.58 309.81L345.56 309.91L345.54 310L345.52 310.1L345.51 310.2L345.5 310.31L345.49 310.41L345.48 310.51L345.47 310.62L345.47 310.72L345.47 310.83L345.47 310.97L345.47 311.11L345.48 311.25L345.49 311.39L345.5 311.52L345.51 311.65L345.53 311.78L345.54 311.91L345.56 312.03L345.59 312.15L345.61 312.27L345.64 312.39L345.67 312.51L345.7 312.62L345.74 312.73L345.78 312.84L345.82 312.95L345.87 313.05L345.91 313.15L345.96 313.25L346.02 313.35L346.07 313.45L346.13 313.54L346.2 313.63L346.26 313.72L346.33 313.81L346.4 313.89L346.48 313.97L346.56 314.05L346.64 314.13L346.72 314.2L346.81 314.28L346.9 314.35L346.99 314.42L347.09 314.49L347.19 314.56L347.29 314.62L347.39 314.69L347.5 314.76L347.61 314.82L347.72 314.88L347.84 314.95L347.96 315.01L348.08 315.07L348.2 315.13L348.33 315.19L348.47 315.25L348.6 315.31L348.75 315.37L348.89 315.42L349.04 315.48L349.19 315.54L349.35 315.59L349.51 315.65L349.68 315.7L349.85 315.76L350.03 315.81L350.21 315.87L350.4 315.92L350.59 315.98L350.78 316.03L350.99 316.09L351.19 316.14L351.41 316.19L353.13 316.77L353.49 316.86L353.83 316.95L354.18 317.05L354.51 317.15L354.84 317.26L355.16 317.36L355.48 317.47L355.78 317.58L356.08 317.7L356.38 317.82L356.66 317.94L356.94 318.06L357.22 318.18L357.48 318.31L357.74 318.43L357.99 318.56L358.23 318.69L358.47 318.83L358.7 318.96L358.92 319.1L359.13 319.23L359.34 319.37L359.54 319.51L359.73 319.65L359.91 319.79L360.09 319.93L360.26 320.07L360.42 320.22L360.57 320.36L360.71 320.5L360.85 320.65L360.98 320.79L361.09 320.92L361.19 321.05L361.29 321.18L361.39 321.32L361.48 321.46L361.57 321.6L361.65 321.75L361.74 321.9L361.81 322.05L361.89 322.21L361.96 322.37L362.03 322.53L362.1 322.69L362.16 322.86L362.22 323.03L362.27 323.21L362.33 323.38L362.38 323.56L362.42 323.74L362.46 323.93L362.5 324.12L362.54 324.31L362.57 324.5L362.6 324.69L362.62 324.89L362.64 325.09L362.66 325.29L362.68 325.5L362.69 325.71L362.7 325.92L362.7 326.13L362.71 326.34L362.7 326.65L362.69 326.94L362.67 327.23L362.65 327.52L362.62 327.8L362.58 328.08L362.54 328.35L362.49 328.61L362.43 328.87L362.37 329.13L362.3 329.38L362.22 329.62L362.14 329.86L362.05 330.1L361.95 330.33L361.84 330.56L361.73 330.78L361.61 331L361.49 331.21L361.36 331.42L361.22 331.62L361.08 331.83L360.92 332.02L360.77 332.21L360.6 332.4L360.43 332.59L360.25 332.77L360.07 332.95L359.87 333.12L359.68 333.29L359.47 333.46L359.26 333.62L359.06 333.76L358.86 333.9L358.65 334.03L358.44 334.16L358.23 334.28L358.01 334.4L357.79 334.52L357.56 334.63L357.34 334.73L357.1 334.83L356.87 334.93L356.63 335.02L356.38 335.11L356.13 335.19L355.88 335.27L355.62 335.34L355.36 335.41L355.09 335.48L354.82 335.54L354.54 335.6L354.26 335.65L353.97 335.69L353.68 335.74L353.39 335.78L353.09 335.81L352.78 335.84L352.47 335.86L352.15 335.88L351.83 335.9L351.5 335.91L351.17 335.92L350.83 335.92L350.51 335.92L350.19 335.91L349.88 335.9L349.57 335.88L349.27 335.86L348.97 335.84L348.67 335.81L348.38 335.78L348.1 335.74L347.81 335.69L347.53 335.65L347.26 335.6L346.98 335.54L346.71 335.48L346.45 335.41L346.19 335.34L345.93 335.27L345.67 335.19L345.42 335.11L345.17 335.02L344.93 334.93L344.68 334.83L344.44 334.73L344.21 334.63L343.97 334.52L343.74 334.4L343.51 334.28L343.29 334.16L343.06 334.03L342.84 333.9L342.62 333.76L342.4 333.62L342.23 333.48L342.05 333.33L341.88 333.18L341.71 333.03L341.55 332.87L341.39 332.72L341.23 332.56L341.08 332.39L340.92 332.23L340.78 332.06L340.63 331.89L340.49 331.72L340.35 331.54L340.22 331.36L340.09 331.17L339.96 330.99L339.84 330.8L339.72 330.6L339.6 330.41L339.49 330.21L339.38 330L339.27 329.79L339.17 329.58L339.06 329.37L338.97 329.15L338.87 328.92L338.78 328.69L338.7 328.46L338.61 328.23L338.53 327.99L338.46 327.74L338.38 327.49L343.75 325.77L343.78 325.96L343.82 326.16L343.87 326.34L343.92 326.52L343.97 326.7L344.02 326.88L344.08 327.05L344.14 327.21L344.2 327.38L344.27 327.54L344.34 327.69L344.41 327.85L344.48 328L344.56 328.14L344.64 328.29L344.73 328.43L344.81 328.56L344.9 328.7L344.99 328.83L345.09 328.96L345.19 329.09L345.29 329.21L345.39 329.34L345.5 329.46L345.6 329.58L345.71 329.69L345.83 329.81L345.94 329.92L346.06 330.04L346.18 330.15L346.3 330.26L346.43 330.37L346.53 330.45L346.64 330.54L346.75 330.62L346.87 330.7L346.98 330.77L347.09 330.84L347.21 330.91L347.33 330.98L347.45 331.04L347.57 331.1L347.69 331.16L347.81 331.21L347.93 331.26L348.06 331.31L348.19 331.35L348.32 331.39L348.45 331.43L348.58 331.47L348.72 331.5L348.85 331.53L348.99 331.56L349.13 331.59L349.27 331.61L349.42 331.63L349.56 331.65L349.71 331.66L349.86 331.68L350.01 331.69L350.16 331.7L350.32 331.7L350.48 331.7L350.64 331.71L351.03 331.7L351.41 331.69L351.77 331.67L352.12 331.63L352.46 331.59L352.79 331.54L353.1 331.49L353.4 331.42L353.69 331.34L353.97 331.26L354.24 331.16L354.49 331.06L354.73 330.95L354.96 330.83L355.18 330.7L355.38 330.56L355.57 330.41L355.75 330.25L355.92 330.09L356.07 329.91L356.21 329.73L356.34 329.53L356.46 329.33L356.56 329.12L356.66 328.9L356.74 328.67L356.81 328.43L356.86 328.19L356.9 327.93L356.94 327.67L356.95 327.39L356.96 327.11L356.96 326.97L356.96 326.83L356.95 326.69L356.94 326.55L356.93 326.42L356.92 326.29L356.9 326.16L356.88 326.03L356.86 325.91L356.84 325.79L356.82 325.67L356.79 325.55L356.76 325.43L356.72 325.32L356.69 325.21L356.65 325.1L356.61 324.99L356.56 324.89L356.51 324.79L356.46 324.69L356.41 324.59L356.35 324.49L356.3 324.4L356.23 324.31L356.17 324.22L356.1 324.13L356.03 324.05L355.95 323.97L355.87 323.89L355.79 323.81L355.71 323.74L355.62 323.66L355.53 323.59L355.43 323.52L355.33 323.45L355.23 323.38L355.13 323.3L355.02 323.23L354.9 323.16L354.79 323.09L354.67 323.02L354.54 322.95L354.41 322.88L354.28 322.81L354.14 322.74L354 322.67L353.85 322.6L353.7 322.54L353.55 322.47L353.39 322.4L353.23 322.34L353.06 322.27L352.88 322.21L352.7 322.14L352.52 322.08L352.33 322.02L352.14 321.96L351.94 321.9L351.74 321.84L351.53 321.78L351.32 321.72L351.1 321.67L350.87 321.61L350.64 321.56L348.92 320.98L348.58 320.87L348.25 320.76L347.92 320.65L347.61 320.54L347.29 320.43L346.99 320.31L346.69 320.2L346.4 320.08L346.12 319.96L345.84 319.84L345.57 319.72L345.31 319.6L345.05 319.47L344.8 319.35L344.56 319.22L344.32 319.09L344.09 318.96L343.87 318.83L343.65 318.69L343.44 318.56L343.24 318.42L343.04 318.28L342.85 318.14L342.67 317.99L342.49 317.85L342.32 317.7L342.16 317.55L342 317.4L341.85 317.24L341.71 317.09L341.58 316.93L341.45 316.77L341.34 316.64L341.24 316.51L341.14 316.38L341.04 316.24L340.95 316.1L340.86 315.95L340.78 315.81L340.69 315.65L340.61 315.5L340.54 315.34L340.47 315.18L340.4 315.02L340.33 314.85L340.27 314.68L340.21 314.5L340.15 314.33L340.1 314.14L340.05 313.96L340.01 313.77L339.97 313.58L339.93 313.39L339.89 313.19L339.86 312.99L339.83 312.78L339.81 312.57L339.78 312.36L339.77 312.15L339.75 311.93L339.74 311.71L339.73 311.48L339.72 311.25L339.72 311.02L339.73 310.77L339.74 310.52L339.75 310.28L339.78 310.03L339.81 309.79L339.84 309.56L339.89 309.32L339.94 309.09L339.99 308.85L340.05 308.63L340.12 308.4L340.2 308.18L340.28 307.96L340.37 307.74L340.46 307.52L340.56 307.31L340.67 307.1L340.78 306.89L340.9 306.69L341.02 306.49L341.15 306.29L341.29 306.1L341.43 305.91L341.58 305.72L341.74 305.53L341.9 305.35L342.06 305.17L342.23 304.99L342.41 304.82L342.6 304.65L342.78 304.48L342.98 304.32L343.16 304.18L343.35 304.04L343.54 303.91L343.73 303.78L343.93 303.66L344.13 303.54L344.34 303.42L344.55 303.31L344.77 303.21L344.99 303.11L345.21 303.01L345.44 302.92L345.67 302.83L345.9 302.75L346.14 302.67L346.38 302.6L346.62 302.53L346.87 302.46L347.12 302.4L347.37 302.34L347.63 302.29L347.89 302.25L348.15 302.2L348.42 302.16L348.69 302.13L348.96 302.1L349.23 302.08L349.51 302.06L349.79 302.04L350.07 302.03L350.35 302.02L350.64 302.02L351.19 302.05L351.73 302.09ZM549.16 302.83L549.93 302.89L550.67 302.98L551.38 303.08L552.06 303.21L552.7 303.37L553.32 303.55L553.9 303.75L554.45 303.98L554.97 304.23L555.46 304.51L555.92 304.81L556.35 305.13L556.74 305.48L557.1 305.85L557.43 306.25L557.73 306.67L558 307.12L558.24 307.59L558.44 308.09L558.61 308.61L558.76 309.16L558.87 309.73L558.95 310.33L558.99 310.95L559.01 311.6L559.01 311.83L559 312.06L558.99 312.29L558.97 312.52L558.95 312.75L558.92 312.97L558.89 313.19L558.85 313.41L558.81 313.63L558.76 313.85L558.71 314.06L558.65 314.28L558.59 314.48L558.52 314.69L558.44 314.9L558.36 315.1L558.28 315.3L558.19 315.5L558.09 315.69L557.99 315.88L557.88 316.07L557.76 316.26L557.64 316.44L557.51 316.63L557.38 316.8L557.24 316.98L557.09 317.15L556.96 317.3L556.83 317.44L556.7 317.58L556.56 317.72L556.42 317.86L556.27 317.99L556.12 318.12L555.97 318.24L555.82 318.36L555.66 318.48L555.5 318.6L555.33 318.71L555.17 318.82L555 318.93L554.82 319.03L554.65 319.13L554.47 319.23L554.28 319.32L554.1 319.41L553.91 319.5L553.72 319.58L553.52 319.66L553.32 319.74L553.12 319.82L552.92 319.89L552.71 319.96L552.5 320.02L559.97 335.54L553.84 335.54L547.13 320.98L541.01 320.98L541.01 335.54L535.45 335.54L535.45 302.79L547.52 302.79L548.35 302.8L549.16 302.83ZM205.76 303.86L206.2 303.92L206.64 304L207.06 304.09L207.46 304.21L207.86 304.35L208.24 304.51L208.61 304.68L208.96 304.87L209.3 305.08L209.63 305.31L209.95 305.56L210.25 305.82L210.54 306.11L210.82 306.4L211.09 306.72L211.34 307.05L211.58 307.4L211.81 307.76L212.03 308.14L212.23 308.53L212.43 308.94L212.61 309.37L212.78 309.8L212.94 310.26L210.26 311.21L210.14 310.84L210.01 310.48L209.88 310.13L209.74 309.79L209.59 309.47L209.43 309.16L209.26 308.87L209.09 308.59L208.91 308.32L208.72 308.07L208.52 307.83L208.32 307.6L208.1 307.39L207.88 307.19L207.65 307L207.41 306.82L207.16 306.66L206.91 306.51L206.64 306.37L206.37 306.25L206.09 306.14L205.8 306.03L205.5 305.95L205.2 305.87L204.88 305.8L204.56 305.75L204.22 305.71L203.88 305.68L203.53 305.67L203.17 305.66L202.95 305.66L202.72 305.67L202.51 305.68L202.29 305.69L202.08 305.71L201.88 305.73L201.68 305.75L201.49 305.78L201.3 305.81L201.11 305.85L200.93 305.89L200.75 305.94L200.57 305.98L200.4 306.03L200.23 306.09L200.06 306.15L199.9 306.21L199.74 306.28L199.58 306.35L199.43 306.43L199.28 306.5L199.13 306.59L198.98 306.67L198.83 306.76L198.69 306.86L198.55 306.95L198.41 307.06L198.27 307.16L198.14 307.27L198 307.38L197.89 307.48L197.78 307.58L197.68 307.68L197.58 307.79L197.49 307.89L197.4 308L197.32 308.11L197.24 308.23L197.16 308.34L197.09 308.46L197.03 308.58L196.97 308.7L196.91 308.83L196.85 308.95L196.8 309.08L196.76 309.21L196.72 309.35L196.68 309.48L196.64 309.61L196.61 309.75L196.58 309.89L196.56 310.03L196.54 310.17L196.52 310.32L196.5 310.46L196.49 310.61L196.48 310.76L196.47 310.91L196.47 311.06L196.47 311.21L196.47 311.4L196.48 311.59L196.49 311.77L196.5 311.95L196.52 312.12L196.54 312.3L196.56 312.46L196.59 312.63L196.62 312.79L196.66 312.94L196.7 313.1L196.75 313.25L196.79 313.4L196.84 313.54L196.9 313.68L196.96 313.82L197.02 313.95L197.09 314.08L197.16 314.21L197.24 314.33L197.31 314.46L197.4 314.58L197.48 314.69L197.57 314.8L197.67 314.92L197.76 315.02L197.87 315.13L197.97 315.23L198.08 315.33L198.19 315.43L198.29 315.5L198.39 315.58L198.5 315.66L198.62 315.73L198.73 315.81L198.86 315.88L198.99 315.96L199.12 316.04L199.26 316.11L199.4 316.19L199.55 316.26L199.7 316.33L199.85 316.41L200.01 316.48L200.18 316.55L200.35 316.62L200.52 316.69L200.7 316.76L200.89 316.83L201.07 316.9L201.26 316.97L201.46 317.04L201.66 317.1L201.86 317.17L202.07 317.23L202.28 317.29L202.5 317.36L202.72 317.42L202.94 317.48L203.17 317.53L204.32 317.92L204.7 318.01L205.07 318.11L205.43 318.22L205.78 318.32L206.13 318.43L206.46 318.54L206.79 318.65L207.1 318.76L207.41 318.88L207.71 318.99L208 319.12L208.29 319.24L208.56 319.36L208.83 319.49L209.09 319.62L209.34 319.75L209.58 319.88L209.81 320.01L210.03 320.15L210.25 320.29L210.46 320.42L210.66 320.57L210.85 320.71L211.04 320.85L211.22 321L211.38 321.14L211.55 321.29L211.7 321.44L211.84 321.59L211.98 321.75L212.08 321.86L212.17 321.98L212.26 322.11L212.34 322.24L212.43 322.37L212.51 322.5L212.59 322.64L212.66 322.79L212.74 322.93L212.81 323.08L212.87 323.23L212.94 323.39L213 323.55L213.05 323.71L213.11 323.88L213.16 324.05L213.21 324.22L213.25 324.39L213.29 324.57L213.33 324.75L213.36 324.94L213.4 325.13L213.42 325.32L213.45 325.51L213.47 325.71L213.48 325.9L213.5 326.11L213.51 326.31L213.51 326.52L213.51 326.73L213.51 326.99L213.5 327.26L213.49 327.52L213.46 327.78L213.43 328.03L213.4 328.29L213.36 328.54L213.31 328.78L213.25 329.03L213.19 329.27L213.12 329.5L213.04 329.74L212.96 329.97L212.87 330.19L212.77 330.41L212.67 330.63L212.56 330.85L212.44 331.06L212.31 331.26L212.18 331.46L212.04 331.66L211.89 331.86L211.74 332.05L211.58 332.23L211.41 332.41L211.23 332.59L211.05 332.76L210.86 332.92L210.66 333.08L210.45 333.24L210.26 333.37L210.06 333.5L209.86 333.62L209.66 333.74L209.46 333.86L209.25 333.97L209.04 334.08L208.83 334.18L208.61 334.28L208.39 334.38L208.17 334.47L207.94 334.56L207.71 334.64L207.48 334.72L207.24 334.79L207 334.86L206.76 334.93L206.51 334.99L206.25 335.05L206 335.1L205.73 335.14L205.47 335.19L205.2 335.22L204.92 335.25L204.64 335.28L204.36 335.3L204.07 335.32L203.78 335.33L203.48 335.34L203.17 335.34L202.89 335.34L202.6 335.33L202.32 335.32L202.04 335.3L201.77 335.28L201.5 335.25L201.23 335.22L200.96 335.19L200.7 335.14L200.43 335.1L200.18 335.05L199.92 334.99L199.67 334.93L199.42 334.86L199.17 334.79L198.93 334.72L198.69 334.64L198.46 334.56L198.22 334.47L197.99 334.38L197.77 334.28L197.55 334.18L197.33 334.08L197.11 333.97L196.9 333.86L196.69 333.74L196.49 333.62L196.29 333.5L196.09 333.37L195.89 333.24L195.72 333.1L195.56 332.96L195.39 332.82L195.24 332.68L195.08 332.53L194.93 332.39L194.78 332.23L194.63 332.08L194.49 331.92L194.36 331.76L194.22 331.6L194.09 331.43L193.96 331.26L193.84 331.09L193.72 330.92L193.6 330.74L193.48 330.56L193.37 330.37L193.26 330.18L193.16 329.99L193.05 329.79L192.95 329.6L192.86 329.39L192.76 329.19L192.67 328.98L192.58 328.76L192.5 328.55L192.41 328.33L192.33 328.1L192.26 327.88L194.94 326.92L195.06 327.33L195.19 327.73L195.33 328.12L195.48 328.49L195.64 328.85L195.81 329.19L195.99 329.52L196.18 329.84L196.39 330.14L196.6 330.43L196.82 330.7L197.05 330.96L197.29 331.21L197.55 331.44L197.81 331.66L198.08 331.86L198.37 332.05L198.66 332.23L198.96 332.39L199.28 332.54L199.6 332.67L199.94 332.79L200.28 332.89L200.64 332.99L201 333.06L201.38 333.13L201.76 333.17L202.16 333.21L202.56 333.23L202.98 333.24L203.25 333.24L203.51 333.23L203.76 333.22L204.01 333.21L204.26 333.19L204.5 333.17L204.74 333.14L204.97 333.11L205.19 333.08L205.41 333.04L205.63 333L205.84 332.95L206.05 332.9L206.25 332.84L206.45 332.78L206.65 332.72L206.84 332.65L207.02 332.58L207.2 332.5L207.38 332.42L207.55 332.33L207.72 332.24L207.88 332.14L208.04 332.04L208.2 331.93L208.35 331.82L208.5 331.7L208.64 331.58L208.78 331.45L208.92 331.32L209.01 331.23L209.1 331.13L209.19 331.02L209.28 330.92L209.36 330.81L209.45 330.7L209.52 330.59L209.6 330.48L209.67 330.36L209.74 330.24L209.81 330.12L209.87 329.99L209.93 329.86L209.99 329.73L210.04 329.6L210.09 329.46L210.14 329.33L210.19 329.19L210.23 329.04L210.27 328.9L210.3 328.75L210.33 328.6L210.36 328.45L210.38 328.29L210.4 328.13L210.42 327.97L210.43 327.81L210.44 327.64L210.45 327.47L210.45 327.3L210.45 327.11L210.44 326.93L210.43 326.74L210.42 326.57L210.4 326.39L210.38 326.22L210.36 326.05L210.33 325.89L210.29 325.73L210.26 325.57L210.22 325.42L210.17 325.27L210.13 325.12L210.07 324.98L210.02 324.84L209.96 324.7L209.9 324.56L209.83 324.43L209.76 324.3L209.68 324.18L209.61 324.06L209.52 323.94L209.44 323.82L209.35 323.71L209.25 323.6L209.16 323.49L209.05 323.39L208.95 323.28L208.84 323.18L208.73 323.09L208.61 322.99L208.49 322.9L208.36 322.81L208.24 322.71L208.1 322.62L207.97 322.54L207.82 322.45L207.68 322.36L207.53 322.28L207.37 322.19L207.21 322.11L207.05 322.03L206.88 321.95L206.7 321.87L206.52 321.79L206.34 321.72L206.15 321.64L205.95 321.57L205.75 321.5L205.55 321.43L205.34 321.36L205.12 321.29L204.9 321.22L204.67 321.16L204.44 321.09L204.19 321.03L203.95 320.97L203.7 320.91L203.44 320.85L203.17 320.79L202.02 320.41L201.68 320.31L201.35 320.21L201.02 320.11L200.7 320.01L200.38 319.91L200.07 319.81L199.77 319.7L199.48 319.6L199.19 319.49L198.91 319.38L198.64 319.27L198.37 319.15L198.11 319.04L197.86 318.92L197.62 318.8L197.38 318.68L197.16 318.56L196.94 318.43L196.72 318.31L196.52 318.18L196.32 318.05L196.14 317.92L195.96 317.78L195.78 317.64L195.62 317.5L195.47 317.36L195.32 317.22L195.18 317.07L195.06 316.92L194.94 316.77L194.82 316.63L194.72 316.5L194.62 316.36L194.52 316.22L194.42 316.08L194.34 315.94L194.25 315.79L194.17 315.65L194.1 315.5L194.03 315.35L193.96 315.2L193.9 315.04L193.84 314.89L193.79 314.73L193.74 314.57L193.69 314.4L193.65 314.23L193.61 314.06L193.58 313.89L193.55 313.72L193.52 313.54L193.49 313.36L193.47 313.17L193.45 312.99L193.44 312.8L193.43 312.6L193.42 312.4L193.41 312.2L193.41 312L193.41 311.79L193.41 311.56L193.42 311.33L193.43 311.11L193.46 310.89L193.48 310.67L193.52 310.46L193.56 310.24L193.61 310.03L193.66 309.82L193.72 309.62L193.78 309.41L193.85 309.21L193.93 309.02L194.01 308.82L194.1 308.63L194.19 308.44L194.29 308.25L194.4 308.06L194.51 307.88L194.63 307.7L194.75 307.52L194.87 307.35L195.01 307.18L195.15 307.01L195.29 306.84L195.44 306.68L195.59 306.51L195.75 306.35L195.92 306.2L196.09 306.04L196.26 305.91L196.44 305.78L196.62 305.66L196.81 305.54L197 305.42L197.19 305.31L197.38 305.2L197.58 305.1L197.79 305L197.99 304.9L198.2 304.81L198.42 304.72L198.64 304.64L198.86 304.56L199.08 304.49L199.31 304.42L199.54 304.35L199.77 304.29L200 304.24L200.24 304.18L200.48 304.14L200.73 304.1L200.98 304.06L201.23 304.03L201.48 304L201.74 303.98L202 303.96L202.26 303.95L202.52 303.94L202.79 303.94L203.32 303.87L203.83 303.83L204.34 303.8L204.82 303.8L205.3 303.82L205.76 303.86ZM522.24 335.34L519.56 325.77L509.6 325.77L506.73 335.34L501.36 335.34L511.32 302.79L518.02 302.79L528.17 335.34L522.24 335.34ZM496 330.75L496 335.34L474.93 335.34L474.93 302.79L480.68 302.79L480.68 330.75L496 330.75ZM423.61 316L423.61 302.79L429.16 302.79L429.16 335.34L423.61 335.34L423.61 320.6L410.01 320.6L410.01 335.34L404.46 335.34L404.46 302.79L410.01 302.79L410.01 316L423.61 316ZM159.48 330.61L158.94 331.4L158.74 332.35L158.94 333.31L159.48 334.1L160.28 334.64L161.23 334.84L162.19 334.64L162.98 334.1L163.52 333.31L163.72 332.35L163.52 331.4L162.98 330.61L162.19 330.06L161.23 329.86L160.28 330.06L159.48 330.61ZM324.98 306.23L324.98 334.58L322.3 334.58L322.3 306.23L312.53 306.23L312.53 303.74L334.94 303.74L334.94 306.23L324.98 306.23ZM247.8 334.39L247.8 306.04L247.41 306.04L247.38 306.15L247.35 306.26L247.32 306.37L247.28 306.5L247.24 306.63L247.2 306.76L247.16 306.9L247.11 307.05L247.07 307.21L247.02 307.37L246.97 307.54L246.91 307.71L246.86 307.89L246.8 308.08L246.74 308.27L246.68 308.47L246.61 308.67L246.55 308.88L246.48 309.1L246.41 309.32L246.33 309.55L246.26 309.79L246.18 310.03L246.1 310.28L246.02 310.53L245.94 310.79L245.85 311.05L245.76 311.33L245.67 311.6L245.58 311.89L245.49 312.18L245.39 312.47L245.29 312.77L245.19 313.08L245.09 313.39L244.98 313.71L244.87 314.04L244.77 314.37L244.65 314.7L244.54 315.04L237.65 334.58L234.01 334.58L227.3 315.04L227.23 314.83L227.16 314.61L227.09 314.4L227.02 314.18L226.94 313.97L226.87 313.75L226.8 313.53L226.73 313.32L226.66 313.1L226.59 312.88L226.51 312.67L226.44 312.45L226.37 312.23L226.3 312.01L226.23 311.79L226.15 311.57L226.08 311.35L226.01 311.13L225.94 310.91L225.87 310.69L225.8 310.46L225.72 310.24L225.65 310.02L225.58 309.79L225.51 309.56L225.44 309.34L225.36 309.11L225.29 308.88L225.22 308.65L225.15 308.42L225.08 308.19L225.01 307.95L224.93 307.72L224.86 307.48L224.79 307.25L224.72 307.01L224.65 306.77L224.57 306.53L224.5 306.29L224.43 306.04L224.05 306.04L224.05 334.58L221.56 334.58L221.56 303.94L226.15 303.94L232.86 323.09L232.94 323.32L233.03 323.55L233.11 323.78L233.2 324.01L233.28 324.24L233.36 324.47L233.44 324.7L233.53 324.92L233.61 325.15L233.69 325.38L233.77 325.61L233.85 325.84L233.92 326.07L234 326.3L234.08 326.52L234.16 326.75L234.23 326.98L234.31 327.21L234.39 327.43L234.46 327.66L234.54 327.89L234.61 328.11L234.69 328.34L234.76 328.56L234.83 328.79L234.91 329.01L234.98 329.23L235.05 329.46L235.13 329.68L235.2 329.9L235.27 330.12L235.35 330.34L235.42 330.56L235.49 330.78L235.56 331L235.63 331.22L235.71 331.44L235.78 331.66L235.85 331.87L235.92 332.09L236.3 332.09L236.42 331.73L236.53 331.39L236.64 331.04L236.75 330.71L236.85 330.38L236.96 330.06L237.06 329.75L237.16 329.44L237.25 329.15L237.35 328.85L237.44 328.57L237.53 328.29L237.62 328.02L237.71 327.76L237.8 327.5L237.88 327.25L237.96 327.01L238.04 326.77L238.12 326.54L238.2 326.32L238.27 326.1L238.34 325.9L238.41 325.69L238.48 325.5L238.55 325.31L238.62 325.13L238.68 324.95L238.74 324.78L238.8 324.62L238.86 324.47L238.92 324.32L238.98 324.18L239.03 324.04L239.08 323.91L239.14 323.79L239.18 323.68L239.23 323.57L239.28 323.46L239.33 323.37L239.37 323.28L245.88 303.74L250.48 303.74L250.48 334.39L247.8 334.39ZM298.8 303.8L299.54 303.86L300.25 303.95L300.93 304.06L301.58 304.2L302.19 304.37L302.77 304.56L303.31 304.78L303.83 305.02L304.31 305.29L304.75 305.58L305.17 305.89L305.55 306.23L305.89 306.6L306.21 306.99L306.49 307.4L306.74 307.84L306.95 308.31L307.13 308.79L307.28 309.31L307.4 309.84L307.48 310.4L307.53 310.99L307.55 311.6L307.55 311.85L307.54 312.09L307.52 312.34L307.5 312.58L307.48 312.81L307.45 313.05L307.41 313.28L307.37 313.5L307.32 313.72L307.26 313.94L307.2 314.15L307.13 314.37L307.06 314.57L306.97 314.78L306.89 314.97L306.79 315.17L306.69 315.36L306.58 315.55L306.47 315.74L306.35 315.92L306.22 316.09L306.08 316.27L305.94 316.44L305.79 316.6L305.63 316.77L305.49 316.93L305.35 317.08L305.2 317.23L305.05 317.37L304.9 317.5L304.74 317.64L304.57 317.76L304.41 317.88L304.23 318L304.06 318.11L303.88 318.22L303.69 318.32L303.5 318.42L303.31 318.51L303.11 318.6L302.91 318.69L302.7 318.77L302.48 318.84L302.27 318.91L302.04 318.98L301.81 319.04L301.58 319.1L301.34 319.16L301.1 319.21L300.85 319.26L308.31 334.39L305.25 334.39L298.16 319.64L289.93 319.64L289.93 334.2L287.25 334.2L287.25 303.74L297.21 303.74L298.02 303.76L298.8 303.8ZM277.86 334.39L274.61 324.24L263.12 324.24L259.86 334.39L257.18 334.39L267.33 303.74L270.59 303.74L280.74 334.39L277.86 334.39ZM450.96 306.7L450.4 306.8L449.87 306.95L449.37 307.14L448.88 307.37L448.42 307.65L447.97 307.97L447.55 308.33L447.14 308.74L446.75 309.2L446.38 309.71L446.01 310.26L445.72 310.76L445.45 311.3L445.21 311.86L444.99 312.47L444.8 313.1L444.63 313.77L444.49 314.46L444.37 315.19L444.27 315.94L444.19 316.73L444.14 317.54L444.11 318.39L444.1 319.26L444.11 320.25L444.15 321.21L444.22 322.12L444.32 323L444.45 323.83L444.61 324.62L444.8 325.37L445.01 326.08L445.26 326.75L445.55 327.38L445.86 327.97L446.21 328.52L446.59 329.02L446.91 329.45L447.25 329.83L447.61 330.17L447.98 330.48L448.38 330.75L448.79 330.98L449.22 331.18L449.67 331.34L450.14 331.48L450.62 331.58L451.11 331.65L451.62 331.69L452.14 331.71L452.75 331.69L453.33 331.62L453.88 331.52L454.41 331.37L454.92 331.19L455.4 330.95L455.87 330.68L456.31 330.36L456.74 329.99L457.15 329.58L457.54 329.12L457.91 328.62L458.27 328.07L458.57 327.56L458.84 327.03L459.08 326.46L459.3 325.86L459.49 325.22L459.66 324.56L459.8 323.86L459.92 323.13L460.02 322.38L460.09 321.59L460.15 320.78L460.18 319.94L460.19 319.07L460.17 318.07L460.13 317.11L460.06 316.2L459.96 315.33L459.84 314.49L459.68 313.7L459.49 312.95L459.27 312.24L459.02 311.57L458.74 310.94L458.43 310.35L458.08 309.8L457.7 309.3L457.34 308.91L456.97 308.56L456.6 308.23L456.22 307.93L455.82 307.66L455.42 307.42L455 307.21L454.56 307.03L454.11 306.88L453.65 306.77L453.16 306.68L452.66 306.63L452.14 306.62L451.54 306.64L450.96 306.7ZM112.97 328.52L161.61 308.99L113.16 289.26L64.52 308.99L112.97 328.52ZM266.18 314.09L263.69 322.13L273.84 322.13L271.35 314.09L271 313.02L270.67 311.97L270.35 310.94L270.04 309.92L269.73 308.92L269.44 307.95L269.15 306.99L268.86 306.04L268.48 306.04L266.18 314.09ZM513.88 308.1L513.58 309.34L513.28 310.54L513 311.69L512.71 312.79L512.41 313.84L512.09 314.85L510.36 321.56L518.41 321.56L516.49 314.85L516.38 314.34L516.2 313.61L515.96 312.67L515.67 311.52L515.34 310.16L514.97 308.59L514.58 306.81L514.19 306.81L513.88 308.1ZM289.93 317.53L296.82 317.53L298.51 317.46L299.98 317.25L301.24 316.89L302.3 316.38L303.17 315.73L303.83 314.92L304.3 313.97L304.58 312.86L304.68 311.6L304.65 310.97L304.59 310.38L304.48 309.82L304.32 309.29L304.11 308.79L303.85 308.33L303.54 307.91L303.18 307.53L302.76 307.19L302.3 306.94L301.8 306.71L301.27 306.5L300.7 306.32L300.07 306.16L299.4 306.03L298.67 305.93L297.87 305.87L297.02 305.85L289.93 305.85L289.93 317.53ZM541.39 316.58L547.13 316.58L548.81 316.47L550.23 316.16L551.39 315.64L552.29 314.92L552.94 314.01L553.33 312.9L553.45 311.6L553.33 310.37L552.94 309.31L552.31 308.43L551.43 307.73L550.3 307.22L548.93 306.91L547.33 306.81L541.39 306.81L541.39 316.58Z" id="cF0WvwyPQ"></path></defs><g><g><use xlink:href="#i3orxiQiFE" opacity="1" fill="#229dc4" fill-opacity="1"></use></g><g><use xlink:href="#cF0WvwyPQ" opacity="1" fill="#ffffff" fill-opacity="1"></use><g><use xlink:href="#cF0WvwyPQ" opacity="1" fill-opacity="0" stroke="#000000" stroke-width="1" stroke-opacity="0"></use></g></g></g></svg>