<?xml version="1.0" encoding="UTF-8" standalone="no"?>
<!DOCTYPE svg PUBLIC "-//W3C//DTD SVG 1.1//EN" "http://www.w3.org/Graphics/SVG/1.1/DTD/svg11.dtd">
<svg version="1.1" xmlns="http://www.w3.org/2000/svg" xmlns:xlink="http://www.w3.org/1999/xlink" preserveAspectRatio="xMidYMid meet" viewBox="-1 0.8417266187050352 644 150.3021582733813" width="640" height="146.3"><defs><path d="M190.62 98.07C186.01 98.07 184.17 95.31 184.17 90.71C184.17 89.32 184.17 82.42 184.17 69.99C191.91 69.99 196.21 69.99 197.06 69.99C200.29 69.99 203.51 67.68 203.51 64C203.51 60.32 200.75 58.01 197.06 58.01C196.21 58.01 191.91 58.01 184.17 58.01C184.17 53.87 184.17 51.57 184.17 51.11C184.17 46.96 180.95 44.2 177.27 44.2C173.58 44.2 170.36 47.42 170.36 51.11C170.36 55.11 170.36 87.16 170.36 91.17C170.36 102.68 175.88 110.96 188.78 110.96C192.46 110.96 197.53 110.5 201.21 108.66C204.43 107.28 205.35 104.98 205.35 102.68C205.35 99.45 202.13 96.23 197.06 97.15C195.22 97.61 192.92 98.07 190.62 98.07ZM234.36 55.25C222.85 55.25 216.4 62.16 216.4 72.75C216.4 75.88 216.4 100.93 216.4 104.06C216.4 107.74 219.63 110.96 223.31 110.96C226.99 110.96 230.22 107.74 230.22 104.06C230.22 101.2 230.22 78.37 230.22 75.51C230.22 70.91 232.06 69.06 235.28 69.06C238.5 69.06 240.35 69.99 243.11 69.99C247.25 69.99 249.55 66.3 249.55 63.54C249.09 59.86 247.25 57.55 243.11 56.17C241.27 55.71 237.58 55.25 234.36 55.25ZM257.84 76.89C257.84 80.12 257.38 85.64 257.84 89.78C258.76 102.68 267.97 111.42 281.78 111.42C288.23 111.42 294.22 110.04 297.9 107.74C300.66 105.9 301.12 104.06 301.12 102.22C301.12 98.53 297.9 94.85 292.37 96.69C289.15 98.07 285.47 98.99 281.78 98.99C275.34 98.99 270.27 95.77 270.27 89.32C270.27 89.23 270.27 88.77 270.27 87.94C286.02 87.94 294.77 87.94 296.52 87.94C301.12 87.94 303.42 85.18 303.42 81.04C303.42 80.81 303.42 78.96 303.42 78.73C303.88 64.46 294.68 55.25 281.32 55.25C268.43 55.25 259.22 63.54 257.84 76.89ZM270.73 78.73C270.73 71.83 273.96 67.22 281.32 67.22C287.77 67.22 291.45 71.37 290.99 77.35C290.99 78.27 290.99 78.73 290.07 78.73C286.2 78.73 272.67 78.73 270.73 78.73ZM313.09 76.89C313.09 80.12 312.63 85.64 313.09 89.78C314.01 102.68 323.22 111.42 337.04 111.42C343.48 111.42 349.47 110.04 353.15 107.74C355.91 105.9 356.37 104.06 356.37 102.22C356.37 98.53 353.15 94.85 347.63 96.69C344.4 98.07 340.72 98.99 337.04 98.99C330.59 98.99 325.53 95.77 325.53 89.32C325.53 89.23 325.53 88.77 325.53 87.94C341.27 87.94 350.02 87.94 351.77 87.94C356.37 87.94 358.68 85.18 358.68 81.04C358.68 80.81 358.68 78.96 358.68 78.73C359.14 64.46 349.93 55.25 336.58 55.25C323.68 55.25 314.47 63.54 313.09 76.89ZM325.99 78.73C325.99 71.83 329.21 67.22 336.58 67.22C343.02 67.22 346.71 71.37 346.24 77.35C346.24 78.27 346.24 78.73 345.32 78.73C341.46 78.73 327.92 78.73 325.99 78.73ZM561.73 76.43C557.12 75.51 555.74 74.13 555.74 71.83C555.74 69.53 558.04 67.68 563.11 67.68C565.87 67.68 569.09 68.6 571.86 69.99C575.08 71.83 578.76 71.37 580.6 69.06C582.91 66.76 582.91 62.62 580.14 59.86C576.46 57.09 570.01 55.25 563.57 55.25C551.6 55.25 542.85 61.24 542.85 72.29C542.85 81.04 549.29 85.64 557.58 87.94C561.73 88.86 561.27 88.86 564.95 89.78C569.09 90.71 570.94 92.55 570.94 94.39C570.94 97.15 568.63 98.99 563.11 98.99C558.5 98.99 554.36 97.61 551.14 95.77C547.91 93.47 544.23 94.39 542.39 97.15C540.55 99.91 541.01 103.6 543.77 105.44C547.45 108.66 553.44 111.42 563.11 111.42C575.08 111.42 584.29 104.98 584.29 93.93C584.29 85.64 579.22 80.58 569.09 78.27C567.62 77.91 562.46 76.62 561.73 76.43ZM640 81.04C640 81.04 640 81.04 640 81.04C640 79.65 640 78.89 640 78.73C640 64.46 630.79 55.25 617.44 55.25C604.55 55.25 595.34 63.54 593.96 76.89C593.96 80.12 593.5 85.64 593.96 89.78C594.88 102.68 604.09 111.42 617.9 111.42C624.35 111.42 630.33 110.04 634.01 107.74C636.78 105.9 637.24 104.06 637.24 102.22C637.24 98.53 634.01 94.85 628.49 96.69C625.27 98.07 621.58 98.99 617.9 98.99C611.45 98.99 606.39 95.77 606.39 89.32C606.39 89.23 606.39 88.77 606.39 87.94L633.09 87.94C637.7 86.1 640 83.8 640 81.04ZM627.11 77.35C627.11 78.27 626.65 78.73 626.19 78.73C624.25 78.73 608.78 78.73 606.85 78.73C606.85 71.83 610.53 67.22 617.44 67.22C623.88 67.22 627.57 71.37 627.11 77.35ZM423.6 75.97C423.14 80.12 423.14 86.56 423.6 90.71C424.52 102.68 435.11 111.42 448.92 111.42C462.73 111.42 472.86 102.68 473.78 90.71C474.24 86.56 474.24 80.58 473.78 76.43C472.86 64 462.73 55.25 448.92 55.25C435.11 55.25 424.98 64 423.6 75.97ZM448.92 98.07C442.47 98.07 438.33 93.93 437.87 88.4C437.87 85.64 437.87 81.04 437.87 78.27C438.33 72.29 442.47 68.6 448.92 68.6C455.37 68.6 459.51 72.75 459.97 78.27C460.43 81.04 460.43 85.64 459.97 88.4C459.51 94.39 455.37 98.07 448.92 98.07ZM381.7 59.4C381.7 59.4 381.7 59.4 381.7 59.4C381.7 50.56 381.7 45.64 381.7 44.66C381.7 40.52 378.94 37.76 375.25 37.76C371.57 37.76 368.81 40.98 368.81 44.66C368.81 50.6 368.81 98.12 368.81 104.06C368.81 107.74 372.03 110.96 375.71 110.96C379.4 110.96 382.16 107.74 382.16 104.06C382.16 100.97 382.16 76.29 382.16 73.21C384.46 70.91 388.14 69.06 392.75 69.06C398.27 69.06 401.5 72.29 401.5 78.73C401.5 81.27 401.5 101.53 401.5 104.06C401.5 108.2 404.26 111.42 407.94 111.42C412.09 111.42 414.85 108.2 414.85 104.06C414.85 101.43 414.85 80.44 414.85 77.81C414.39 63.08 407.02 55.25 394.13 55.25C389.06 55.25 383.54 57.09 381.7 59.4ZM516.14 62.62C516.14 65.89 516.14 92.04 516.14 95.31C513.84 96.69 510.62 98.07 506.47 98.07C500.95 98.07 496.81 94.85 496.81 88.4C496.81 85.82 496.81 65.2 496.81 62.62C496.81 58.47 493.58 55.25 489.9 55.25C485.76 55.25 483.45 58.47 483.45 62.62C483.45 65.24 483.45 86.24 483.45 88.86C483.45 103.14 491.74 110.96 506.01 110.96C516.6 110.96 523.97 107.28 527.19 104.98C529.04 104.06 529.5 102.68 529.5 100.37C529.5 96.6 529.5 66.39 529.5 62.62C529.5 58.94 526.73 55.71 523.05 55.71C519.37 55.71 516.14 58.94 516.14 62.62Z" id="b1shQUHIcl"></path><path d="M102.22 37.29C101.34 38.77 94.34 50.56 93.47 52.03C90.24 58.01 90.71 65.38 94.85 71.37C94.89 71.41 95.26 71.78 95.31 71.83C99.45 77.35 104.52 82.88 106.36 84.72C107.28 85.64 108.2 87.02 108.66 88.86C110.04 93.93 107.28 99.45 101.76 100.83C96.69 102.22 91.17 99.45 89.78 93.93C89.32 92.55 89.32 91.17 89.32 90.24C89.78 87.94 88.86 84.72 85.64 81.04C82.42 77.81 76.43 84.26 74.13 90.71C74.13 90.75 74.13 91.12 74.13 91.17C72.29 97.61 70.91 103.6 71.37 104.06C71.37 104.52 71.83 104.52 71.83 104.98C74.59 110.5 72.75 116.95 67.22 119.71C61.7 122.47 55.25 120.63 52.49 115.11C49.73 109.58 51.57 103.14 57.09 100.37C57.55 100.37 57.55 99.91 58.01 99.91C58.47 99.91 59.4 97.15 60.78 93.47C61.7 90.24 62.16 88.86 62.62 87.48C63.08 85.64 64 81.04 63.54 79.19C63.08 76.89 60.78 76.89 58.47 78.27C57.09 79.19 54.33 81.5 53.41 82.42C51.11 84.26 49.27 87.02 48.35 89.32C47.88 90.24 46.96 91.63 46.04 92.55C41.9 95.77 35.91 95.31 32.23 91.17C29.01 87.02 29.47 81.04 33.61 77.35C34.99 76.43 36.37 75.51 37.76 75.51C40.06 75.05 48.35 69.99 53.41 66.3C54.33 65.84 55.71 64.46 56.17 64C57.55 62.16 56.17 60.78 54.79 60.78C50.65 61.24 46.04 61.7 45.12 63.08C44.66 63.54 44.2 64.46 43.28 64.92C39.6 67.68 34.07 66.76 31.31 63.08C28.55 59.4 29.47 53.87 33.15 51.11C34.53 49.73 36.83 49.27 38.22 49.27C41.44 49.27 49.73 51.11 56.17 49.73C56.36 49.68 57.83 49.31 58.01 49.27C64.92 47.88 73.21 41.9 76.43 35.91C76.43 35.91 79.65 30.39 83.34 23.48C87.48 16.58 87.02 8.75 82.88 6.45C82.09 5.99 75.83 2.3 75.05 1.84C70.91 -0.46 64.92 -0.46 60.78 1.84C55.44 4.88 12.71 29.19 7.37 32.23C3.22 34.53 0 40.06 0 44.66C0 50.56 0 97.7 0 103.6C0 108.2 3.22 113.73 7.37 116.03C12.71 119.07 55.44 143.38 60.78 146.42C64.92 148.72 71.37 148.72 75.05 146.42C80.39 143.38 123.12 119.07 128.46 116.03C132.6 113.73 135.83 108.2 135.83 103.6C135.83 97.7 135.83 50.56 135.83 44.66C135.83 40.06 132.6 34.53 128.46 32.23C128.46 32.23 124.78 29.93 119.71 27.17C114.65 24.4 106.82 29.01 102.22 37.29Z" id="b3uQHV7fHY"></path></defs><g><g><use xlink:href="#b1shQUHIcl" opacity="1" fill="#3e474f" fill-opacity="1"></use><g><use xlink:href="#b1shQUHIcl" opacity="1" fill-opacity="0" stroke="#000000" stroke-width="1" stroke-opacity="0"></use></g></g><g><use xlink:href="#b3uQHV7fHY" opacity="1" fill="#5fcf80" fill-opacity="1"></use><g><use xlink:href="#b3uQHV7fHY" opacity="1" fill-opacity="0" stroke="#000000" stroke-width="1" stroke-opacity="0"></use></g></g></g></svg>