<?xml version="1.0" encoding="UTF-8" standalone="no" ?>
<!DOCTYPE svg PUBLIC "-//W3C//DTD SVG 1.1//EN" "http://www.w3.org/Graphics/SVG/1.1/DTD/svg11.dtd">
<svg xmlns="http://www.w3.org/2000/svg" xmlns:xlink="http://www.w3.org/1999/xlink" version="1.1" width="73" height="55" viewBox="211 222 73 55" xml:space="preserve">
<desc>Created with Fabric.js 4.6.0</desc>
<defs>
</defs>
<g transform="matrix(0.92 0 0 1 247.4 250)" id="DZCDYgYURo-tTwJKt3gBM"  >
<path style="stroke: none; stroke-width: 1; stroke-dasharray: none; stroke-linecap: butt; stroke-dashoffset: 0; stroke-linejoin: miter; stroke-miterlimit: 4; fill: rgb(28,84,141); fill-rule: nonzero; opacity: 1;" vector-effect="non-scaling-stroke"  transform=" translate(0, 0)" d="M 25.39333 -21.17376 C 29.314999999999998 -21.17376 32.5 -17.988760000000003 32.5 -14.06709 C 32.5 -7.01459 32.5 7.014579999999999 32.5 14.06708 C 32.5 17.98875 29.315 21.173750000000002 25.39333 21.173750000000002 C 13.812499999999998 21.173750000000002 -13.8125 21.173750000000002 -25.393340000000002 21.173750000000002 C -29.31501 21.173750000000002 -32.50001 17.988750000000003 -32.50001 14.06708 C -32.50001 7.0145800000000005 -32.50001 -7.014589999999998 -32.50001 -14.06709 C -32.50001 -17.98876 -29.315010000000004 -21.17376 -25.393340000000002 -21.17376 C -13.812510000000001 -21.17376 13.812489999999997 -21.17376 25.39333 -21.17376 z" stroke-linecap="round" />
</g>
<g transform="matrix(0.91 0 0 0.91 247.4 250)" style="" id="WmkhiHbxuRmhteIG_JWX5"  >
		<text xml:space="preserve" font-family="Poppins" font-size="24" font-style="normal" font-weight="700" line-height="1.16" style="stroke: none; stroke-width: 1; stroke-dasharray: none; stroke-linecap: butt; stroke-dashoffset: 0; stroke-linejoin: miter; stroke-miterlimit: 4; fill: rgb(255,255,255); fill-rule: nonzero; opacity: 1; white-space: pre;" ><tspan x="-27.76" y="7.54" >acm</tspan></text>
</g>
</svg>