<?xml version="1.0" encoding="UTF-8" standalone="no"?>
<!DOCTYPE svg PUBLIC "-//W3C//DTD SVG 1.1//EN" "http://www.w3.org/Graphics/SVG/1.1/DTD/svg11.dtd">
<svg version="1.1" xmlns="http://www.w3.org/2000/svg" xmlns:xlink="http://www.w3.org/1999/xlink" preserveAspectRatio="xMidYMid meet" viewBox="0 0 640 640" width="640" height="640"><defs><path d="M0 0L640 0L640 640L0 640L0 0Z" id="b2fuGjSFww"></path><path d="M37.47 631.03L38.22 632.14L38.5 633.5L38.22 634.86L37.47 635.97L36.36 636.72L35 637L33.64 636.72L32.53 635.97L31.78 634.86L31.5 633.5L31.78 632.14L32.53 631.03L33.64 630.28L35 630L36.36 630.28L37.47 631.03ZM73.97 631.03L74.72 632.14L75 633.5L74.72 634.86L73.97 635.97L72.86 636.72L71.5 637L70.14 636.72L69.03 635.97L68.28 634.86L68 633.5L68.28 632.14L69.03 631.03L70.14 630.28L71.5 630L72.86 630.28L73.97 631.03ZM113.97 631.03L114.72 632.14L115 633.5L114.72 634.86L113.97 635.97L112.86 636.72L111.5 637L110.14 636.72L109.03 635.97L108.28 634.86L108 633.5L108.28 632.14L109.03 631.03L110.14 630.28L111.5 630L112.86 630.28L113.97 631.03ZM167.47 631.03L168.22 632.14L168.5 633.5L168.22 634.86L167.47 635.97L166.36 636.72L165 637L163.64 636.72L162.53 635.97L161.78 634.86L161.5 633.5L161.78 632.14L162.53 631.03L163.64 630.28L165 630L166.36 630.28L167.47 631.03ZM10.97 631.03L11.72 632.14L12 633.5L11.72 634.86L10.97 635.97L9.86 636.72L8.5 637L7.14 636.72L6.03 635.97L5.28 634.86L5 633.5L5.28 632.14L6.03 631.03L7.14 630.28L8.5 630L9.86 630.28L10.97 631.03ZM142.47 631.03L143.22 632.14L143.5 633.5L143.22 634.86L142.47 635.97L141.36 636.72L140 637L138.64 636.72L137.53 635.97L136.78 634.86L136.5 633.5L136.78 632.14L137.53 631.03L138.64 630.28L140 630L141.36 630.28L142.47 631.03ZM100.47 631.03L101.22 632.14L101.5 633.5L101.22 634.86L100.47 635.97L99.36 636.72L98 637L96.64 636.72L95.53 635.97L94.78 634.86L94.5 633.5L94.78 632.14L95.53 631.03L96.64 630.28L98 630L99.36 630.28L100.47 631.03ZM50.97 631.03L51.72 632.14L52 633.5L51.72 634.86L50.97 635.97L49.86 636.72L48.5 637L47.14 636.72L46.03 635.97L45.28 634.86L45 633.5L45.28 632.14L46.03 631.03L47.14 630.28L48.5 630L49.86 630.28L50.97 631.03ZM37.47 616.03L38.22 617.14L38.5 618.5L38.22 619.86L37.47 620.97L36.36 621.72L35 622L33.64 621.72L32.53 620.97L31.78 619.86L31.5 618.5L31.78 617.14L32.53 616.03L33.64 615.28L35 615L36.36 615.28L37.47 616.03ZM73.97 616.03L74.72 617.14L75 618.5L74.72 619.86L73.97 620.97L72.86 621.72L71.5 622L70.14 621.72L69.03 620.97L68.28 619.86L68 618.5L68.28 617.14L69.03 616.03L70.14 615.28L71.5 615L72.86 615.28L73.97 616.03ZM113.97 616.03L114.72 617.14L115 618.5L114.72 619.86L113.97 620.97L112.86 621.72L111.5 622L110.14 621.72L109.03 620.97L108.28 619.86L108 618.5L108.28 617.14L109.03 616.03L110.14 615.28L111.5 615L112.86 615.28L113.97 616.03ZM167.47 616.03L168.22 617.14L168.5 618.5L168.22 619.86L167.47 620.97L166.36 621.72L165 622L163.64 621.72L162.53 620.97L161.78 619.86L161.5 618.5L161.78 617.14L162.53 616.03L163.64 615.28L165 615L166.36 615.28L167.47 616.03ZM10.97 616.03L11.72 617.14L12 618.5L11.72 619.86L10.97 620.97L9.86 621.72L8.5 622L7.14 621.72L6.03 620.97L5.28 619.86L5 618.5L5.28 617.14L6.03 616.03L7.14 615.28L8.5 615L9.86 615.28L10.97 616.03ZM142.47 616.03L143.22 617.14L143.5 618.5L143.22 619.86L142.47 620.97L141.36 621.72L140 622L138.64 621.72L137.53 620.97L136.78 619.86L136.5 618.5L136.78 617.14L137.53 616.03L138.64 615.28L140 615L141.36 615.28L142.47 616.03ZM100.47 616.03L101.22 617.14L101.5 618.5L101.22 619.86L100.47 620.97L99.36 621.72L98 622L96.64 621.72L95.53 620.97L94.78 619.86L94.5 618.5L94.78 617.14L95.53 616.03L96.64 615.28L98 615L99.36 615.28L100.47 616.03ZM50.97 616.03L51.72 617.14L52 618.5L51.72 619.86L50.97 620.97L49.86 621.72L48.5 622L47.14 621.72L46.03 620.97L45.28 619.86L45 618.5L45.28 617.14L46.03 616.03L47.14 615.28L48.5 615L49.86 615.28L50.97 616.03ZM37.47 601.03L38.22 602.14L38.5 603.5L38.22 604.86L37.47 605.97L36.36 606.72L35 607L33.64 606.72L32.53 605.97L31.78 604.86L31.5 603.5L31.78 602.14L32.53 601.03L33.64 600.28L35 600L36.36 600.28L37.47 601.03ZM73.97 601.03L74.72 602.14L75 603.5L74.72 604.86L73.97 605.97L72.86 606.72L71.5 607L70.14 606.72L69.03 605.97L68.28 604.86L68 603.5L68.28 602.14L69.03 601.03L70.14 600.28L71.5 600L72.86 600.28L73.97 601.03ZM113.97 601.03L114.72 602.14L115 603.5L114.72 604.86L113.97 605.97L112.86 606.72L111.5 607L110.14 606.72L109.03 605.97L108.28 604.86L108 603.5L108.28 602.14L109.03 601.03L110.14 600.28L111.5 600L112.86 600.28L113.97 601.03ZM167.47 601.03L168.22 602.14L168.5 603.5L168.22 604.86L167.47 605.97L166.36 606.72L165 607L163.64 606.72L162.53 605.97L161.78 604.86L161.5 603.5L161.78 602.14L162.53 601.03L163.64 600.28L165 600L166.36 600.28L167.47 601.03ZM10.97 601.03L11.72 602.14L12 603.5L11.72 604.86L10.97 605.97L9.86 606.72L8.5 607L7.14 606.72L6.03 605.97L5.28 604.86L5 603.5L5.28 602.14L6.03 601.03L7.14 600.28L8.5 600L9.86 600.28L10.97 601.03ZM142.47 601.03L143.22 602.14L143.5 603.5L143.22 604.86L142.47 605.97L141.36 606.72L140 607L138.64 606.72L137.53 605.97L136.78 604.86L136.5 603.5L136.78 602.14L137.53 601.03L138.64 600.28L140 600L141.36 600.28L142.47 601.03ZM100.47 601.03L101.22 602.14L101.5 603.5L101.22 604.86L100.47 605.97L99.36 606.72L98 607L96.64 606.72L95.53 605.97L94.78 604.86L94.5 603.5L94.78 602.14L95.53 601.03L96.64 600.28L98 600L99.36 600.28L100.47 601.03ZM50.97 601.03L51.72 602.14L52 603.5L51.72 604.86L50.97 605.97L49.86 606.72L48.5 607L47.14 606.72L46.03 605.97L45.28 604.86L45 603.5L45.28 602.14L46.03 601.03L47.14 600.28L48.5 600L49.86 600.28L50.97 601.03ZM37.47 586.03L38.22 587.14L38.5 588.5L38.22 589.86L37.47 590.97L36.36 591.72L35 592L33.64 591.72L32.53 590.97L31.78 589.86L31.5 588.5L31.78 587.14L32.53 586.03L33.64 585.28L35 585L36.36 585.28L37.47 586.03ZM73.97 586.03L74.72 587.14L75 588.5L74.72 589.86L73.97 590.97L72.86 591.72L71.5 592L70.14 591.72L69.03 590.97L68.28 589.86L68 588.5L68.28 587.14L69.03 586.03L70.14 585.28L71.5 585L72.86 585.28L73.97 586.03ZM113.97 586.03L114.72 587.14L115 588.5L114.72 589.86L113.97 590.97L112.86 591.72L111.5 592L110.14 591.72L109.03 590.97L108.28 589.86L108 588.5L108.28 587.14L109.03 586.03L110.14 585.28L111.5 585L112.86 585.28L113.97 586.03ZM167.47 586.03L168.22 587.14L168.5 588.5L168.22 589.86L167.47 590.97L166.36 591.72L165 592L163.64 591.72L162.53 590.97L161.78 589.86L161.5 588.5L161.78 587.14L162.53 586.03L163.64 585.28L165 585L166.36 585.28L167.47 586.03ZM10.97 586.03L11.72 587.14L12 588.5L11.72 589.86L10.97 590.97L9.86 591.72L8.5 592L7.14 591.72L6.03 590.97L5.28 589.86L5 588.5L5.28 587.14L6.03 586.03L7.14 585.28L8.5 585L9.86 585.28L10.97 586.03ZM142.47 586.03L143.22 587.14L143.5 588.5L143.22 589.86L142.47 590.97L141.36 591.72L140 592L138.64 591.72L137.53 590.97L136.78 589.86L136.5 588.5L136.78 587.14L137.53 586.03L138.64 585.28L140 585L141.36 585.28L142.47 586.03ZM100.47 586.03L101.22 587.14L101.5 588.5L101.22 589.86L100.47 590.97L99.36 591.72L98 592L96.64 591.72L95.53 590.97L94.78 589.86L94.5 588.5L94.78 587.14L95.53 586.03L96.64 585.28L98 585L99.36 585.28L100.47 586.03ZM50.97 586.03L51.72 587.14L52 588.5L51.72 589.86L50.97 590.97L49.86 591.72L48.5 592L47.14 591.72L46.03 590.97L45.28 589.86L45 588.5L45.28 587.14L46.03 586.03L47.14 585.28L48.5 585L49.86 585.28L50.97 586.03ZM37.47 571.03L38.22 572.14L38.5 573.5L38.22 574.86L37.47 575.97L36.36 576.72L35 577L33.64 576.72L32.53 575.97L31.78 574.86L31.5 573.5L31.78 572.14L32.53 571.03L33.64 570.28L35 570L36.36 570.28L37.47 571.03ZM73.97 571.03L74.72 572.14L75 573.5L74.72 574.86L73.97 575.97L72.86 576.72L71.5 577L70.14 576.72L69.03 575.97L68.28 574.86L68 573.5L68.28 572.14L69.03 571.03L70.14 570.28L71.5 570L72.86 570.28L73.97 571.03ZM113.97 571.03L114.72 572.14L115 573.5L114.72 574.86L113.97 575.97L112.86 576.72L111.5 577L110.14 576.72L109.03 575.97L108.28 574.86L108 573.5L108.28 572.14L109.03 571.03L110.14 570.28L111.5 570L112.86 570.28L113.97 571.03ZM167.47 571.03L168.22 572.14L168.5 573.5L168.22 574.86L167.47 575.97L166.36 576.72L165 577L163.64 576.72L162.53 575.97L161.78 574.86L161.5 573.5L161.78 572.14L162.53 571.03L163.64 570.28L165 570L166.36 570.28L167.47 571.03ZM10.97 571.03L11.72 572.14L12 573.5L11.72 574.86L10.97 575.97L9.86 576.72L8.5 577L7.14 576.72L6.03 575.97L5.28 574.86L5 573.5L5.28 572.14L6.03 571.03L7.14 570.28L8.5 570L9.86 570.28L10.97 571.03ZM142.47 571.03L143.22 572.14L143.5 573.5L143.22 574.86L142.47 575.97L141.36 576.72L140 577L138.64 576.72L137.53 575.97L136.78 574.86L136.5 573.5L136.78 572.14L137.53 571.03L138.64 570.28L140 570L141.36 570.28L142.47 571.03ZM100.47 571.03L101.22 572.14L101.5 573.5L101.22 574.86L100.47 575.97L99.36 576.72L98 577L96.64 576.72L95.53 575.97L94.78 574.86L94.5 573.5L94.78 572.14L95.53 571.03L96.64 570.28L98 570L99.36 570.28L100.47 571.03ZM50.97 571.03L51.72 572.14L52 573.5L51.72 574.86L50.97 575.97L49.86 576.72L48.5 577L47.14 576.72L46.03 575.97L45.28 574.86L45 573.5L45.28 572.14L46.03 571.03L47.14 570.28L48.5 570L49.86 570.28L50.97 571.03ZM37.47 556.03L38.22 557.14L38.5 558.5L38.22 559.86L37.47 560.97L36.36 561.72L35 562L33.64 561.72L32.53 560.97L31.78 559.86L31.5 558.5L31.78 557.14L32.53 556.03L33.64 555.28L35 555L36.36 555.28L37.47 556.03ZM73.97 556.03L74.72 557.14L75 558.5L74.72 559.86L73.97 560.97L72.86 561.72L71.5 562L70.14 561.72L69.03 560.97L68.28 559.86L68 558.5L68.28 557.14L69.03 556.03L70.14 555.28L71.5 555L72.86 555.28L73.97 556.03ZM113.97 556.03L114.72 557.14L115 558.5L114.72 559.86L113.97 560.97L112.86 561.72L111.5 562L110.14 561.72L109.03 560.97L108.28 559.86L108 558.5L108.28 557.14L109.03 556.03L110.14 555.28L111.5 555L112.86 555.28L113.97 556.03ZM167.47 556.03L168.22 557.14L168.5 558.5L168.22 559.86L167.47 560.97L166.36 561.72L165 562L163.64 561.72L162.53 560.97L161.78 559.86L161.5 558.5L161.78 557.14L162.53 556.03L163.64 555.28L165 555L166.36 555.28L167.47 556.03ZM10.97 556.03L11.72 557.14L12 558.5L11.72 559.86L10.97 560.97L9.86 561.72L8.5 562L7.14 561.72L6.03 560.97L5.28 559.86L5 558.5L5.28 557.14L6.03 556.03L7.14 555.28L8.5 555L9.86 555.28L10.97 556.03ZM142.47 556.03L143.22 557.14L143.5 558.5L143.22 559.86L142.47 560.97L141.36 561.72L140 562L138.64 561.72L137.53 560.97L136.78 559.86L136.5 558.5L136.78 557.14L137.53 556.03L138.64 555.28L140 555L141.36 555.28L142.47 556.03ZM100.47 556.03L101.22 557.14L101.5 558.5L101.22 559.86L100.47 560.97L99.36 561.72L98 562L96.64 561.72L95.53 560.97L94.78 559.86L94.5 558.5L94.78 557.14L95.53 556.03L96.64 555.28L98 555L99.36 555.28L100.47 556.03ZM50.97 556.03L51.72 557.14L52 558.5L51.72 559.86L50.97 560.97L49.86 561.72L48.5 562L47.14 561.72L46.03 560.97L45.28 559.86L45 558.5L45.28 557.14L46.03 556.03L47.14 555.28L48.5 555L49.86 555.28L50.97 556.03ZM37.47 541.03L38.22 542.14L38.5 543.5L38.22 544.86L37.47 545.97L36.36 546.72L35 547L33.64 546.72L32.53 545.97L31.78 544.86L31.5 543.5L31.78 542.14L32.53 541.03L33.64 540.28L35 540L36.36 540.28L37.47 541.03ZM73.97 541.03L74.72 542.14L75 543.5L74.72 544.86L73.97 545.97L72.86 546.72L71.5 547L70.14 546.72L69.03 545.97L68.28 544.86L68 543.5L68.28 542.14L69.03 541.03L70.14 540.28L71.5 540L72.86 540.28L73.97 541.03ZM113.97 541.03L114.72 542.14L115 543.5L114.72 544.86L113.97 545.97L112.86 546.72L111.5 547L110.14 546.72L109.03 545.97L108.28 544.86L108 543.5L108.28 542.14L109.03 541.03L110.14 540.28L111.5 540L112.86 540.28L113.97 541.03ZM167.47 541.03L168.22 542.14L168.5 543.5L168.22 544.86L167.47 545.97L166.36 546.72L165 547L163.64 546.72L162.53 545.97L161.78 544.86L161.5 543.5L161.78 542.14L162.53 541.03L163.64 540.28L165 540L166.36 540.28L167.47 541.03ZM10.97 541.03L11.72 542.14L12 543.5L11.72 544.86L10.97 545.97L9.86 546.72L8.5 547L7.14 546.72L6.03 545.97L5.28 544.86L5 543.5L5.28 542.14L6.03 541.03L7.14 540.28L8.5 540L9.86 540.28L10.97 541.03ZM142.47 541.03L143.22 542.14L143.5 543.5L143.22 544.86L142.47 545.97L141.36 546.72L140 547L138.64 546.72L137.53 545.97L136.78 544.86L136.5 543.5L136.78 542.14L137.53 541.03L138.64 540.28L140 540L141.36 540.28L142.47 541.03ZM100.47 541.03L101.22 542.14L101.5 543.5L101.22 544.86L100.47 545.97L99.36 546.72L98 547L96.64 546.72L95.53 545.97L94.78 544.86L94.5 543.5L94.78 542.14L95.53 541.03L96.64 540.28L98 540L99.36 540.28L100.47 541.03ZM50.97 541.03L51.72 542.14L52 543.5L51.72 544.86L50.97 545.97L49.86 546.72L48.5 547L47.14 546.72L46.03 545.97L45.28 544.86L45 543.5L45.28 542.14L46.03 541.03L47.14 540.28L48.5 540L49.86 540.28L50.97 541.03ZM37.47 526.03L38.22 527.14L38.5 528.5L38.22 529.86L37.47 530.97L36.36 531.72L35 532L33.64 531.72L32.53 530.97L31.78 529.86L31.5 528.5L31.78 527.14L32.53 526.03L33.64 525.28L35 525L36.36 525.28L37.47 526.03ZM73.97 526.03L74.72 527.14L75 528.5L74.72 529.86L73.97 530.97L72.86 531.72L71.5 532L70.14 531.72L69.03 530.97L68.28 529.86L68 528.5L68.28 527.14L69.03 526.03L70.14 525.28L71.5 525L72.86 525.28L73.97 526.03ZM113.97 526.03L114.72 527.14L115 528.5L114.72 529.86L113.97 530.97L112.86 531.72L111.5 532L110.14 531.72L109.03 530.97L108.28 529.86L108 528.5L108.28 527.14L109.03 526.03L110.14 525.28L111.5 525L112.86 525.28L113.97 526.03ZM167.47 526.03L168.22 527.14L168.5 528.5L168.22 529.86L167.47 530.97L166.36 531.72L165 532L163.64 531.72L162.53 530.97L161.78 529.86L161.5 528.5L161.78 527.14L162.53 526.03L163.64 525.28L165 525L166.36 525.28L167.47 526.03ZM10.97 526.03L11.72 527.14L12 528.5L11.72 529.86L10.97 530.97L9.86 531.72L8.5 532L7.14 531.72L6.03 530.97L5.28 529.86L5 528.5L5.28 527.14L6.03 526.03L7.14 525.28L8.5 525L9.86 525.28L10.97 526.03ZM142.47 526.03L143.22 527.14L143.5 528.5L143.22 529.86L142.47 530.97L141.36 531.72L140 532L138.64 531.72L137.53 530.97L136.78 529.86L136.5 528.5L136.78 527.14L137.53 526.03L138.64 525.28L140 525L141.36 525.28L142.47 526.03ZM100.47 526.03L101.22 527.14L101.5 528.5L101.22 529.86L100.47 530.97L99.36 531.72L98 532L96.64 531.72L95.53 530.97L94.78 529.86L94.5 528.5L94.78 527.14L95.53 526.03L96.64 525.28L98 525L99.36 525.28L100.47 526.03ZM50.97 526.03L51.72 527.14L52 528.5L51.72 529.86L50.97 530.97L49.86 531.72L48.5 532L47.14 531.72L46.03 530.97L45.28 529.86L45 528.5L45.28 527.14L46.03 526.03L47.14 525.28L48.5 525L49.86 525.28L50.97 526.03ZM37.47 511.03L38.22 512.14L38.5 513.5L38.22 514.86L37.47 515.97L36.36 516.72L35 517L33.64 516.72L32.53 515.97L31.78 514.86L31.5 513.5L31.78 512.14L32.53 511.03L33.64 510.28L35 510L36.36 510.28L37.47 511.03ZM73.97 511.03L74.72 512.14L75 513.5L74.72 514.86L73.97 515.97L72.86 516.72L71.5 517L70.14 516.72L69.03 515.97L68.28 514.86L68 513.5L68.28 512.14L69.03 511.03L70.14 510.28L71.5 510L72.86 510.28L73.97 511.03ZM113.97 511.03L114.72 512.14L115 513.5L114.72 514.86L113.97 515.97L112.86 516.72L111.5 517L110.14 516.72L109.03 515.97L108.28 514.86L108 513.5L108.28 512.14L109.03 511.03L110.14 510.28L111.5 510L112.86 510.28L113.97 511.03ZM167.47 511.03L168.22 512.14L168.5 513.5L168.22 514.86L167.47 515.97L166.36 516.72L165 517L163.64 516.72L162.53 515.97L161.78 514.86L161.5 513.5L161.78 512.14L162.53 511.03L163.64 510.28L165 510L166.36 510.28L167.47 511.03ZM10.97 511.03L11.72 512.14L12 513.5L11.72 514.86L10.97 515.97L9.86 516.72L8.5 517L7.14 516.72L6.03 515.97L5.28 514.86L5 513.5L5.28 512.14L6.03 511.03L7.14 510.28L8.5 510L9.86 510.28L10.97 511.03ZM142.47 511.03L143.22 512.14L143.5 513.5L143.22 514.86L142.47 515.97L141.36 516.72L140 517L138.64 516.72L137.53 515.97L136.78 514.86L136.5 513.5L136.78 512.14L137.53 511.03L138.64 510.28L140 510L141.36 510.28L142.47 511.03ZM100.47 511.03L101.22 512.14L101.5 513.5L101.22 514.86L100.47 515.97L99.36 516.72L98 517L96.64 516.72L95.53 515.97L94.78 514.86L94.5 513.5L94.78 512.14L95.53 511.03L96.64 510.28L98 510L99.36 510.28L100.47 511.03ZM50.97 511.03L51.72 512.14L52 513.5L51.72 514.86L50.97 515.97L49.86 516.72L48.5 517L47.14 516.72L46.03 515.97L45.28 514.86L45 513.5L45.28 512.14L46.03 511.03L47.14 510.28L48.5 510L49.86 510.28L50.97 511.03ZM113.97 496.03L114.72 497.14L115 498.5L114.72 499.86L113.97 500.97L112.86 501.72L111.5 502L110.14 501.72L109.03 500.97L108.28 499.86L108 498.5L108.28 497.14L109.03 496.03L110.14 495.28L111.5 495L112.86 495.28L113.97 496.03ZM100.47 496.03L101.22 497.14L101.5 498.5L101.22 499.86L100.47 500.97L99.36 501.72L98 502L96.64 501.72L95.53 500.97L94.78 499.86L94.5 498.5L94.78 497.14L95.53 496.03L96.64 495.28L98 495L99.36 495.28L100.47 496.03ZM37.47 496.03L38.22 497.14L38.5 498.5L38.22 499.86L37.47 500.97L36.36 501.72L35 502L33.64 501.72L32.53 500.97L31.78 499.86L31.5 498.5L31.78 497.14L32.53 496.03L33.64 495.28L35 495L36.36 495.28L37.47 496.03ZM73.97 496.03L74.72 497.14L75 498.5L74.72 499.86L73.97 500.97L72.86 501.72L71.5 502L70.14 501.72L69.03 500.97L68.28 499.86L68 498.5L68.28 497.14L69.03 496.03L70.14 495.28L71.5 495L72.86 495.28L73.97 496.03ZM167.47 496.03L168.22 497.14L168.5 498.5L168.22 499.86L167.47 500.97L166.36 501.72L165 502L163.64 501.72L162.53 500.97L161.78 499.86L161.5 498.5L161.78 497.14L162.53 496.03L163.64 495.28L165 495L166.36 495.28L167.47 496.03ZM142.47 496.03L143.22 497.14L143.5 498.5L143.22 499.86L142.47 500.97L141.36 501.72L140 502L138.64 501.72L137.53 500.97L136.78 499.86L136.5 498.5L136.78 497.14L137.53 496.03L138.64 495.28L140 495L141.36 495.28L142.47 496.03ZM50.97 496.03L51.72 497.14L52 498.5L51.72 499.86L50.97 500.97L49.86 501.72L48.5 502L47.14 501.72L46.03 500.97L45.28 499.86L45 498.5L45.28 497.14L46.03 496.03L47.14 495.28L48.5 495L49.86 495.28L50.97 496.03ZM10.97 496.03L11.72 497.14L12 498.5L11.72 499.86L10.97 500.97L9.86 501.72L8.5 502L7.14 501.72L6.03 500.97L5.28 499.86L5 498.5L5.28 497.14L6.03 496.03L7.14 495.28L8.5 495L9.86 495.28L10.97 496.03Z" id="c1uZs6Xf4h"></path><path d="M605.97 139.06L606.72 140.17L607 141.54L606.72 142.9L605.97 144.01L604.86 144.76L603.5 145.04L602.14 144.76L601.03 144.01L600.28 142.9L600 141.54L600.28 140.17L601.03 139.06L602.14 138.31L603.5 138.04L604.86 138.31L605.97 139.06ZM569.47 139.06L570.22 140.17L570.5 141.54L570.22 142.9L569.47 144.01L568.36 144.76L567 145.04L565.64 144.76L564.53 144.01L563.78 142.9L563.5 141.54L563.78 140.17L564.53 139.06L565.64 138.31L567 138.04L568.36 138.31L569.47 139.06ZM529.47 139.06L530.22 140.17L530.5 141.54L530.22 142.9L529.47 144.01L528.36 144.76L527 145.04L525.64 144.76L524.53 144.01L523.78 142.9L523.5 141.54L523.78 140.17L524.53 139.06L525.64 138.31L527 138.04L528.36 138.31L529.47 139.06ZM475.97 139.06L476.72 140.17L477 141.54L476.72 142.9L475.97 144.01L474.86 144.76L473.5 145.04L472.14 144.76L471.03 144.01L470.28 142.9L470 141.54L470.28 140.17L471.03 139.06L472.14 138.31L473.5 138.04L474.86 138.31L475.97 139.06ZM632.47 139.06L633.22 140.17L633.5 141.54L633.22 142.9L632.47 144.01L631.36 144.76L630 145.04L628.64 144.76L627.53 144.01L626.78 142.9L626.5 141.54L626.78 140.17L627.53 139.06L628.64 138.31L630 138.04L631.36 138.31L632.47 139.06ZM500.97 139.06L501.72 140.17L502 141.54L501.72 142.9L500.97 144.01L499.86 144.76L498.5 145.04L497.14 144.76L496.03 144.01L495.28 142.9L495 141.54L495.28 140.17L496.03 139.06L497.14 138.31L498.5 138.04L499.86 138.31L500.97 139.06ZM542.97 139.06L543.72 140.17L544 141.54L543.72 142.9L542.97 144.01L541.86 144.76L540.5 145.04L539.14 144.76L538.03 144.01L537.28 142.9L537 141.54L537.28 140.17L538.03 139.06L539.14 138.31L540.5 138.04L541.86 138.31L542.97 139.06ZM592.47 139.06L593.22 140.17L593.5 141.54L593.22 142.9L592.47 144.01L591.36 144.76L590 145.04L588.64 144.76L587.53 144.01L586.78 142.9L586.5 141.54L586.78 140.17L587.53 139.06L588.64 138.31L590 138.04L591.36 138.31L592.47 139.06ZM605.97 124.06L606.72 125.17L607 126.54L606.72 127.9L605.97 129.01L604.86 129.76L603.5 130.04L602.14 129.76L601.03 129.01L600.28 127.9L600 126.54L600.28 125.17L601.03 124.06L602.14 123.31L603.5 123.04L604.86 123.31L605.97 124.06ZM569.47 124.06L570.22 125.17L570.5 126.54L570.22 127.9L569.47 129.01L568.36 129.76L567 130.04L565.64 129.76L564.53 129.01L563.78 127.9L563.5 126.54L563.78 125.17L564.53 124.06L565.64 123.31L567 123.04L568.36 123.31L569.47 124.06ZM529.47 124.06L530.22 125.17L530.5 126.54L530.22 127.9L529.47 129.01L528.36 129.76L527 130.04L525.64 129.76L524.53 129.01L523.78 127.9L523.5 126.54L523.78 125.17L524.53 124.06L525.64 123.31L527 123.04L528.36 123.31L529.47 124.06ZM475.97 124.06L476.72 125.17L477 126.54L476.72 127.9L475.97 129.01L474.86 129.76L473.5 130.04L472.14 129.76L471.03 129.01L470.28 127.9L470 126.54L470.28 125.17L471.03 124.06L472.14 123.31L473.5 123.04L474.86 123.31L475.97 124.06ZM632.47 124.06L633.22 125.17L633.5 126.54L633.22 127.9L632.47 129.01L631.36 129.76L630 130.04L628.64 129.76L627.53 129.01L626.78 127.9L626.5 126.54L626.78 125.17L627.53 124.06L628.64 123.31L630 123.04L631.36 123.31L632.47 124.06ZM500.97 124.06L501.72 125.17L502 126.54L501.72 127.9L500.97 129.01L499.86 129.76L498.5 130.04L497.14 129.76L496.03 129.01L495.28 127.9L495 126.54L495.28 125.17L496.03 124.06L497.14 123.31L498.5 123.04L499.86 123.31L500.97 124.06ZM542.97 124.06L543.72 125.17L544 126.54L543.72 127.9L542.97 129.01L541.86 129.76L540.5 130.04L539.14 129.76L538.03 129.01L537.28 127.9L537 126.54L537.28 125.17L538.03 124.06L539.14 123.31L540.5 123.04L541.86 123.31L542.97 124.06ZM592.47 124.06L593.22 125.17L593.5 126.54L593.22 127.9L592.47 129.01L591.36 129.76L590 130.04L588.64 129.76L587.53 129.01L586.78 127.9L586.5 126.54L586.78 125.17L587.53 124.06L588.64 123.31L590 123.04L591.36 123.31L592.47 124.06ZM605.97 109.06L606.72 110.17L607 111.54L606.72 112.9L605.97 114.01L604.86 114.76L603.5 115.04L602.14 114.76L601.03 114.01L600.28 112.9L600 111.54L600.28 110.17L601.03 109.06L602.14 108.31L603.5 108.04L604.86 108.31L605.97 109.06ZM569.47 109.06L570.22 110.17L570.5 111.54L570.22 112.9L569.47 114.01L568.36 114.76L567 115.04L565.64 114.76L564.53 114.01L563.78 112.9L563.5 111.54L563.78 110.17L564.53 109.06L565.64 108.31L567 108.04L568.36 108.31L569.47 109.06ZM529.47 109.06L530.22 110.17L530.5 111.54L530.22 112.9L529.47 114.01L528.36 114.76L527 115.04L525.64 114.76L524.53 114.01L523.78 112.9L523.5 111.54L523.78 110.17L524.53 109.06L525.64 108.31L527 108.04L528.36 108.31L529.47 109.06ZM475.97 109.06L476.72 110.17L477 111.54L476.72 112.9L475.97 114.01L474.86 114.76L473.5 115.04L472.14 114.76L471.03 114.01L470.28 112.9L470 111.54L470.28 110.17L471.03 109.06L472.14 108.31L473.5 108.04L474.86 108.31L475.97 109.06ZM632.47 109.06L633.22 110.17L633.5 111.54L633.22 112.9L632.47 114.01L631.36 114.76L630 115.04L628.64 114.76L627.53 114.01L626.78 112.9L626.5 111.54L626.78 110.17L627.53 109.06L628.64 108.31L630 108.04L631.36 108.31L632.47 109.06ZM500.97 109.06L501.72 110.17L502 111.54L501.72 112.9L500.97 114.01L499.86 114.76L498.5 115.04L497.14 114.76L496.03 114.01L495.28 112.9L495 111.54L495.28 110.17L496.03 109.06L497.14 108.31L498.5 108.04L499.86 108.31L500.97 109.06ZM542.97 109.06L543.72 110.17L544 111.54L543.72 112.9L542.97 114.01L541.86 114.76L540.5 115.04L539.14 114.76L538.03 114.01L537.28 112.9L537 111.54L537.28 110.17L538.03 109.06L539.14 108.31L540.5 108.04L541.86 108.31L542.97 109.06ZM592.47 109.06L593.22 110.17L593.5 111.54L593.22 112.9L592.47 114.01L591.36 114.76L590 115.04L588.64 114.76L587.53 114.01L586.78 112.9L586.5 111.54L586.78 110.17L587.53 109.06L588.64 108.31L590 108.04L591.36 108.31L592.47 109.06ZM605.97 94.06L606.72 95.17L607 96.54L606.72 97.9L605.97 99.01L604.86 99.76L603.5 100.04L602.14 99.76L601.03 99.01L600.28 97.9L600 96.54L600.28 95.17L601.03 94.06L602.14 93.31L603.5 93.04L604.86 93.31L605.97 94.06ZM569.47 94.06L570.22 95.17L570.5 96.54L570.22 97.9L569.47 99.01L568.36 99.76L567 100.04L565.64 99.76L564.53 99.01L563.78 97.9L563.5 96.54L563.78 95.17L564.53 94.06L565.64 93.31L567 93.04L568.36 93.31L569.47 94.06ZM529.47 94.06L530.22 95.17L530.5 96.54L530.22 97.9L529.47 99.01L528.36 99.76L527 100.04L525.64 99.76L524.53 99.01L523.78 97.9L523.5 96.54L523.78 95.17L524.53 94.06L525.64 93.31L527 93.04L528.36 93.31L529.47 94.06ZM475.97 94.06L476.72 95.17L477 96.54L476.72 97.9L475.97 99.01L474.86 99.76L473.5 100.04L472.14 99.76L471.03 99.01L470.28 97.9L470 96.54L470.28 95.17L471.03 94.06L472.14 93.31L473.5 93.04L474.86 93.31L475.97 94.06ZM632.47 94.06L633.22 95.17L633.5 96.54L633.22 97.9L632.47 99.01L631.36 99.76L630 100.04L628.64 99.76L627.53 99.01L626.78 97.9L626.5 96.54L626.78 95.17L627.53 94.06L628.64 93.31L630 93.04L631.36 93.31L632.47 94.06ZM500.97 94.06L501.72 95.17L502 96.54L501.72 97.9L500.97 99.01L499.86 99.76L498.5 100.04L497.14 99.76L496.03 99.01L495.28 97.9L495 96.54L495.28 95.17L496.03 94.06L497.14 93.31L498.5 93.04L499.86 93.31L500.97 94.06ZM542.97 94.06L543.72 95.17L544 96.54L543.72 97.9L542.97 99.01L541.86 99.76L540.5 100.04L539.14 99.76L538.03 99.01L537.28 97.9L537 96.54L537.28 95.17L538.03 94.06L539.14 93.31L540.5 93.04L541.86 93.31L542.97 94.06ZM592.47 94.06L593.22 95.17L593.5 96.54L593.22 97.9L592.47 99.01L591.36 99.76L590 100.04L588.64 99.76L587.53 99.01L586.78 97.9L586.5 96.54L586.78 95.17L587.53 94.06L588.64 93.31L590 93.04L591.36 93.31L592.47 94.06ZM529.47 79.06L530.22 80.17L530.5 81.54L530.22 82.9L529.47 84.01L528.36 84.76L527 85.04L525.64 84.76L524.53 84.01L523.78 82.9L523.5 81.54L523.78 80.17L524.53 79.06L525.64 78.31L527 78.04L528.36 78.31L529.47 79.06ZM542.97 79.06L543.72 80.17L544 81.54L543.72 82.9L542.97 84.01L541.86 84.76L540.5 85.04L539.14 84.76L538.03 84.01L537.28 82.9L537 81.54L537.28 80.17L538.03 79.06L539.14 78.31L540.5 78.04L541.86 78.31L542.97 79.06ZM605.97 79.06L606.72 80.17L607 81.54L606.72 82.9L605.97 84.01L604.86 84.76L603.5 85.04L602.14 84.76L601.03 84.01L600.28 82.9L600 81.54L600.28 80.17L601.03 79.06L602.14 78.31L603.5 78.04L604.86 78.31L605.97 79.06ZM569.47 79.06L570.22 80.17L570.5 81.54L570.22 82.9L569.47 84.01L568.36 84.76L567 85.04L565.64 84.76L564.53 84.01L563.78 82.9L563.5 81.54L563.78 80.17L564.53 79.06L565.64 78.31L567 78.04L568.36 78.31L569.47 79.06ZM475.97 79.06L476.72 80.17L477 81.54L476.72 82.9L475.97 84.01L474.86 84.76L473.5 85.04L472.14 84.76L471.03 84.01L470.28 82.9L470 81.54L470.28 80.17L471.03 79.06L472.14 78.31L473.5 78.04L474.86 78.31L475.97 79.06ZM632.47 79.06L633.22 80.17L633.5 81.54L633.22 82.9L632.47 84.01L631.36 84.76L630 85.04L628.64 84.76L627.53 84.01L626.78 82.9L626.5 81.54L626.78 80.17L627.53 79.06L628.64 78.31L630 78.04L631.36 78.31L632.47 79.06ZM500.97 79.06L501.72 80.17L502 81.54L501.72 82.9L500.97 84.01L499.86 84.76L498.5 85.04L497.14 84.76L496.03 84.01L495.28 82.9L495 81.54L495.28 80.17L496.03 79.06L497.14 78.31L498.5 78.04L499.86 78.31L500.97 79.06ZM592.47 79.06L593.22 80.17L593.5 81.54L593.22 82.9L592.47 84.01L591.36 84.76L590 85.04L588.64 84.76L587.53 84.01L586.78 82.9L586.5 81.54L586.78 80.17L587.53 79.06L588.64 78.31L590 78.04L591.36 78.31L592.47 79.06ZM529.47 64.06L530.22 65.17L530.5 66.54L530.22 67.9L529.47 69.01L528.36 69.76L527 70.04L525.64 69.76L524.53 69.01L523.78 67.9L523.5 66.54L523.78 65.17L524.53 64.06L525.64 63.31L527 63.04L528.36 63.31L529.47 64.06ZM542.97 64.06L543.72 65.17L544 66.54L543.72 67.9L542.97 69.01L541.86 69.76L540.5 70.04L539.14 69.76L538.03 69.01L537.28 67.9L537 66.54L537.28 65.17L538.03 64.06L539.14 63.31L540.5 63.04L541.86 63.31L542.97 64.06ZM605.97 64.06L606.72 65.17L607 66.54L606.72 67.9L605.97 69.01L604.86 69.76L603.5 70.04L602.14 69.76L601.03 69.01L600.28 67.9L600 66.54L600.28 65.17L601.03 64.06L602.14 63.31L603.5 63.04L604.86 63.31L605.97 64.06ZM569.47 64.06L570.22 65.17L570.5 66.54L570.22 67.9L569.47 69.01L568.36 69.76L567 70.04L565.64 69.76L564.53 69.01L563.78 67.9L563.5 66.54L563.78 65.17L564.53 64.06L565.64 63.31L567 63.04L568.36 63.31L569.47 64.06ZM475.97 64.06L476.72 65.17L477 66.54L476.72 67.9L475.97 69.01L474.86 69.76L473.5 70.04L472.14 69.76L471.03 69.01L470.28 67.9L470 66.54L470.28 65.17L471.03 64.06L472.14 63.31L473.5 63.04L474.86 63.31L475.97 64.06ZM500.97 64.06L501.72 65.17L502 66.54L501.72 67.9L500.97 69.01L499.86 69.76L498.5 70.04L497.14 69.76L496.03 69.01L495.28 67.9L495 66.54L495.28 65.17L496.03 64.06L497.14 63.31L498.5 63.04L499.86 63.31L500.97 64.06ZM592.47 64.06L593.22 65.17L593.5 66.54L593.22 67.9L592.47 69.01L591.36 69.76L590 70.04L588.64 69.76L587.53 69.01L586.78 67.9L586.5 66.54L586.78 65.17L587.53 64.06L588.64 63.31L590 63.04L591.36 63.31L592.47 64.06ZM632.47 64.06L633.22 65.17L633.5 66.54L633.22 67.9L632.47 69.01L631.36 69.76L630 70.04L628.64 69.76L627.53 69.01L626.78 67.9L626.5 66.54L626.78 65.17L627.53 64.06L628.64 63.31L630 63.04L631.36 63.31L632.47 64.06ZM529.47 49.06L530.22 50.17L530.5 51.54L530.22 52.9L529.47 54.01L528.36 54.76L527 55.04L525.64 54.76L524.53 54.01L523.78 52.9L523.5 51.54L523.78 50.17L524.53 49.06L525.64 48.31L527 48.04L528.36 48.31L529.47 49.06ZM542.97 49.06L543.72 50.17L544 51.54L543.72 52.9L542.97 54.01L541.86 54.76L540.5 55.04L539.14 54.76L538.03 54.01L537.28 52.9L537 51.54L537.28 50.17L538.03 49.06L539.14 48.31L540.5 48.04L541.86 48.31L542.97 49.06ZM605.97 49.06L606.72 50.17L607 51.54L606.72 52.9L605.97 54.01L604.86 54.76L603.5 55.04L602.14 54.76L601.03 54.01L600.28 52.9L600 51.54L600.28 50.17L601.03 49.06L602.14 48.31L603.5 48.04L604.86 48.31L605.97 49.06ZM569.47 49.06L570.22 50.17L570.5 51.54L570.22 52.9L569.47 54.01L568.36 54.76L567 55.04L565.64 54.76L564.53 54.01L563.78 52.9L563.5 51.54L563.78 50.17L564.53 49.06L565.64 48.31L567 48.04L568.36 48.31L569.47 49.06ZM475.97 49.06L476.72 50.17L477 51.54L476.72 52.9L475.97 54.01L474.86 54.76L473.5 55.04L472.14 54.76L471.03 54.01L470.28 52.9L470 51.54L470.28 50.17L471.03 49.06L472.14 48.31L473.5 48.04L474.86 48.31L475.97 49.06ZM500.97 49.06L501.72 50.17L502 51.54L501.72 52.9L500.97 54.01L499.86 54.76L498.5 55.04L497.14 54.76L496.03 54.01L495.28 52.9L495 51.54L495.28 50.17L496.03 49.06L497.14 48.31L498.5 48.04L499.86 48.31L500.97 49.06ZM592.47 49.06L593.22 50.17L593.5 51.54L593.22 52.9L592.47 54.01L591.36 54.76L590 55.04L588.64 54.76L587.53 54.01L586.78 52.9L586.5 51.54L586.78 50.17L587.53 49.06L588.64 48.31L590 48.04L591.36 48.31L592.47 49.06ZM632.47 49.06L633.22 50.17L633.5 51.54L633.22 52.9L632.47 54.01L631.36 54.76L630 55.04L628.64 54.76L627.53 54.01L626.78 52.9L626.5 51.54L626.78 50.17L627.53 49.06L628.64 48.31L630 48.04L631.36 48.31L632.47 49.06ZM529.47 34.06L530.22 35.17L530.5 36.54L530.22 37.9L529.47 39.01L528.36 39.76L527 40.04L525.64 39.76L524.53 39.01L523.78 37.9L523.5 36.54L523.78 35.17L524.53 34.06L525.64 33.31L527 33.04L528.36 33.31L529.47 34.06ZM542.97 34.06L543.72 35.17L544 36.54L543.72 37.9L542.97 39.01L541.86 39.76L540.5 40.04L539.14 39.76L538.03 39.01L537.28 37.9L537 36.54L537.28 35.17L538.03 34.06L539.14 33.31L540.5 33.04L541.86 33.31L542.97 34.06ZM605.97 34.06L606.72 35.17L607 36.54L606.72 37.9L605.97 39.01L604.86 39.76L603.5 40.04L602.14 39.76L601.03 39.01L600.28 37.9L600 36.54L600.28 35.17L601.03 34.06L602.14 33.31L603.5 33.04L604.86 33.31L605.97 34.06ZM569.47 34.06L570.22 35.17L570.5 36.54L570.22 37.9L569.47 39.01L568.36 39.76L567 40.04L565.64 39.76L564.53 39.01L563.78 37.9L563.5 36.54L563.78 35.17L564.53 34.06L565.64 33.31L567 33.04L568.36 33.31L569.47 34.06ZM475.97 34.06L476.72 35.17L477 36.54L476.72 37.9L475.97 39.01L474.86 39.76L473.5 40.04L472.14 39.76L471.03 39.01L470.28 37.9L470 36.54L470.28 35.17L471.03 34.06L472.14 33.31L473.5 33.04L474.86 33.31L475.97 34.06ZM500.97 34.06L501.72 35.17L502 36.54L501.72 37.9L500.97 39.01L499.86 39.76L498.5 40.04L497.14 39.76L496.03 39.01L495.28 37.9L495 36.54L495.28 35.17L496.03 34.06L497.14 33.31L498.5 33.04L499.86 33.31L500.97 34.06ZM592.47 34.06L593.22 35.17L593.5 36.54L593.22 37.9L592.47 39.01L591.36 39.76L590 40.04L588.64 39.76L587.53 39.01L586.78 37.9L586.5 36.54L586.78 35.17L587.53 34.06L588.64 33.31L590 33.04L591.36 33.31L592.47 34.06ZM632.47 34.06L633.22 35.17L633.5 36.54L633.22 37.9L632.47 39.01L631.36 39.76L630 40.04L628.64 39.76L627.53 39.01L626.78 37.9L626.5 36.54L626.78 35.17L627.53 34.06L628.64 33.31L630 33.04L631.36 33.31L632.47 34.06ZM529.47 19.06L530.22 20.17L530.5 21.54L530.22 22.9L529.47 24.01L528.36 24.76L527 25.04L525.64 24.76L524.53 24.01L523.78 22.9L523.5 21.54L523.78 20.17L524.53 19.06L525.64 18.31L527 18.04L528.36 18.31L529.47 19.06ZM542.97 19.06L543.72 20.17L544 21.54L543.72 22.9L542.97 24.01L541.86 24.76L540.5 25.04L539.14 24.76L538.03 24.01L537.28 22.9L537 21.54L537.28 20.17L538.03 19.06L539.14 18.31L540.5 18.04L541.86 18.31L542.97 19.06ZM605.97 19.06L606.72 20.17L607 21.54L606.72 22.9L605.97 24.01L604.86 24.76L603.5 25.04L602.14 24.76L601.03 24.01L600.28 22.9L600 21.54L600.28 20.17L601.03 19.06L602.14 18.31L603.5 18.04L604.86 18.31L605.97 19.06ZM569.47 19.06L570.22 20.17L570.5 21.54L570.22 22.9L569.47 24.01L568.36 24.76L567 25.04L565.64 24.76L564.53 24.01L563.78 22.9L563.5 21.54L563.78 20.17L564.53 19.06L565.64 18.31L567 18.04L568.36 18.31L569.47 19.06ZM475.97 19.06L476.72 20.17L477 21.54L476.72 22.9L475.97 24.01L474.86 24.76L473.5 25.04L472.14 24.76L471.03 24.01L470.28 22.9L470 21.54L470.28 20.17L471.03 19.06L472.14 18.31L473.5 18.04L474.86 18.31L475.97 19.06ZM500.97 19.06L501.72 20.17L502 21.54L501.72 22.9L500.97 24.01L499.86 24.76L498.5 25.04L497.14 24.76L496.03 24.01L495.28 22.9L495 21.54L495.28 20.17L496.03 19.06L497.14 18.31L498.5 18.04L499.86 18.31L500.97 19.06ZM592.47 19.06L593.22 20.17L593.5 21.54L593.22 22.9L592.47 24.01L591.36 24.76L590 25.04L588.64 24.76L587.53 24.01L586.78 22.9L586.5 21.54L586.78 20.17L587.53 19.06L588.64 18.31L590 18.04L591.36 18.31L592.47 19.06ZM632.47 19.06L633.22 20.17L633.5 21.54L633.22 22.9L632.47 24.01L631.36 24.76L630 25.04L628.64 24.76L627.53 24.01L626.78 22.9L626.5 21.54L626.78 20.17L627.53 19.06L628.64 18.31L630 18.04L631.36 18.31L632.47 19.06ZM529.47 4.06L530.22 5.17L530.5 6.54L530.22 7.9L529.47 9.01L528.36 9.76L527 10.04L525.64 9.76L524.53 9.01L523.78 7.9L523.5 6.54L523.78 5.17L524.53 4.06L525.64 3.31L527 3.04L528.36 3.31L529.47 4.06ZM542.97 4.06L543.72 5.17L544 6.54L543.72 7.9L542.97 9.01L541.86 9.76L540.5 10.04L539.14 9.76L538.03 9.01L537.28 7.9L537 6.54L537.28 5.17L538.03 4.06L539.14 3.31L540.5 3.04L541.86 3.31L542.97 4.06ZM605.97 4.06L606.72 5.17L607 6.54L606.72 7.9L605.97 9.01L604.86 9.76L603.5 10.04L602.14 9.76L601.03 9.01L600.28 7.9L600 6.54L600.28 5.17L601.03 4.06L602.14 3.31L603.5 3.04L604.86 3.31L605.97 4.06ZM569.47 4.06L570.22 5.17L570.5 6.54L570.22 7.9L569.47 9.01L568.36 9.76L567 10.04L565.64 9.76L564.53 9.01L563.78 7.9L563.5 6.54L563.78 5.17L564.53 4.06L565.64 3.31L567 3.04L568.36 3.31L569.47 4.06ZM475.97 4.06L476.72 5.17L477 6.54L476.72 7.9L475.97 9.01L474.86 9.76L473.5 10.04L472.14 9.76L471.03 9.01L470.28 7.9L470 6.54L470.28 5.17L471.03 4.06L472.14 3.31L473.5 3.04L474.86 3.31L475.97 4.06ZM500.97 4.06L501.72 5.17L502 6.54L501.72 7.9L500.97 9.01L499.86 9.76L498.5 10.04L497.14 9.76L496.03 9.01L495.28 7.9L495 6.54L495.28 5.17L496.03 4.06L497.14 3.31L498.5 3.04L499.86 3.31L500.97 4.06ZM592.47 4.06L593.22 5.17L593.5 6.54L593.22 7.9L592.47 9.01L591.36 9.76L590 10.04L588.64 9.76L587.53 9.01L586.78 7.9L586.5 6.54L586.78 5.17L587.53 4.06L588.64 3.31L590 3.04L591.36 3.31L592.47 4.06ZM632.47 4.06L633.22 5.17L633.5 6.54L633.22 7.9L632.47 9.01L631.36 9.76L630 10.04L628.64 9.76L627.53 9.01L626.78 7.9L626.5 6.54L626.78 5.17L627.53 4.06L628.64 3.31L630 3.04L631.36 3.31L632.47 4.06Z" id="b2vEwQJMjh"></path></defs><g><g><g><use xlink:href="#b2fuGjSFww" opacity="1" fill="#1c548d" fill-opacity="1"></use></g><g><use xlink:href="#c1uZs6Xf4h" opacity="1" fill="#ffffff" fill-opacity="0.3"></use></g><g><use xlink:href="#b2vEwQJMjh" opacity="1" fill="#ffffff" fill-opacity="0.3"></use></g></g></g></svg>