<?xml version="1.0" encoding="UTF-8" standalone="no"?>
<!DOCTYPE svg PUBLIC "-//W3C//DTD SVG 1.1//EN" "http://www.w3.org/Graphics/SVG/1.1/DTD/svg11.dtd">
<svg version="1.1" xmlns="http://www.w3.org/2000/svg" xmlns:xlink="http://www.w3.org/1999/xlink" preserveAspectRatio="xMidYMid meet" viewBox="-0.6076667587164726 -0.9999999999999929 503.99983566545006 445.44000000000005" width="500" height="441.44"><defs><path d="M194.4 11.37C195.58 9.54 196.23 8.53 196.36 8.33C195.78 6.72 195.11 5.14 194.35 3.61C194.26 3.68 193.84 4.02 193.08 4.63C193.68 3.7 194.02 3.18 194.08 3.08C193.12 1.19 192.37 0 192.37 0C192.37 0 188.43 6.21 187.11 12.79C187.28 13.05 188.12 14.35 189.63 16.69C187.96 15.34 187.02 14.59 186.84 14.44C186.74 15.2 186.69 15.97 186.69 16.75C186.69 24.54 189.23 30.85 192.37 30.85C195.51 30.85 198.05 24.54 198.05 16.75C197.99 14.27 197.56 11.81 196.75 9.47C196.44 9.72 195.65 10.35 194.4 11.37Z" id="cmit4Fu1V"></path><path d="M208.32 18.12C210.44 17.67 211.62 17.41 211.85 17.36C212.58 15.81 213.22 14.22 213.77 12.6C213.66 12.59 213.12 12.53 212.14 12.43C213.23 12.19 213.83 12.06 213.95 12.04C214.61 10.02 214.92 8.65 214.92 8.65C214.92 8.65 207.74 10.25 202.15 13.97C202.09 14.28 201.76 15.79 201.18 18.52C200.95 16.37 200.82 15.18 200.8 14.95C200.19 15.42 199.61 15.93 199.06 16.47C193.55 21.98 190.88 28.25 193.1 30.47C195.32 32.69 201.59 30.02 207.1 24.51C208.81 22.72 210.23 20.67 211.32 18.44C210.92 18.4 209.92 18.29 208.32 18.12Z" id="d2XjQT1AZ1"></path><path d="M209.61 48.27C201.4 48.8 192.46 48.24 182.95 48.27C182.95 46.09 182.95 28.67 182.95 26.49C191.33 27.8 200.27 27.66 209.61 26.49C209.61 30.85 209.61 43.92 209.61 48.27Z" id="b1ynKsc3tz"></path><path d="M268.32 65.25C269.08 64.06 269.51 63.4 269.6 63.27C269.22 62.22 268.78 61.19 268.28 60.19C268.23 60.24 267.95 60.46 267.45 60.86C267.85 60.25 268.07 59.92 268.11 59.85C267.48 58.62 266.99 57.84 266.99 57.84C265.41 60.42 264.25 63.24 263.56 66.18C263.67 66.35 264.22 67.2 265.21 68.73C264.11 67.84 263.51 67.35 263.38 67.25C263.32 67.75 263.29 68.26 263.28 68.76C263.28 73.84 264.94 77.96 266.99 77.96C269.04 77.96 270.7 73.84 270.7 68.76C270.66 67.14 270.37 65.54 269.85 64.01C269.65 64.18 269.13 64.59 268.32 65.25Z" id="cfL9t96Xl"></path><path d="M277.39 69.66C278.78 69.36 279.54 69.2 279.7 69.16C280.17 68.15 280.59 67.12 280.95 66.06C280.87 66.05 280.52 66.01 279.89 65.94C280.59 65.79 280.99 65.71 281.07 65.69C281.5 64.38 281.7 63.48 281.7 63.48C278.75 64.19 275.94 65.36 273.37 66.95C273.33 67.15 273.12 68.14 272.74 69.92C272.59 68.52 272.51 67.74 272.49 67.59C272.09 67.89 271.71 68.23 271.35 68.58C267.76 72.18 266.02 76.26 267.47 77.71C268.92 79.16 273 77.42 276.59 73.82C277.71 72.65 278.64 71.32 279.35 69.87C279.09 69.84 278.44 69.77 277.39 69.66Z" id="a1zfFPHK8"></path><path d="M278.23 89.32C272.88 89.66 267.05 89.3 260.85 89.32C260.85 87.9 260.85 76.54 260.85 75.12C266.61 75.93 272.47 75.93 278.23 75.12C278.23 77.96 278.23 86.48 278.23 89.32Z" id="b29rpfheu4"></path><path d="M274.93 131.41C270.2 131.71 265.05 131.39 259.58 131.41C259.58 130.16 259.58 120.12 259.58 118.87C264.67 119.58 269.84 119.58 274.93 118.87C274.93 121.38 274.93 128.9 274.93 131.41Z" id="c6hPSkrakm"></path><path d="M301.89 46.74C301.89 46.74 301.89 46.74 301.89 46.74C301.89 50.2 301.89 52.13 301.89 52.51C301.89 52.51 301.89 52.51 301.89 52.51C177.95 52.51 109.09 52.51 95.31 52.51C95.31 52.51 95.31 52.51 95.31 52.51C95.31 49.05 95.31 47.12 95.31 46.74C95.31 46.74 95.31 46.74 95.31 46.74C219.26 46.74 288.12 46.74 301.89 46.74Z" id="aomd10WDz"></path><path d="M301.89 87.71C301.89 87.71 301.89 87.71 301.89 87.71C301.89 91.17 301.89 93.1 301.89 93.48C301.89 93.48 301.89 93.48 301.89 93.48C177.95 93.48 109.09 93.48 95.31 93.48C95.31 93.48 95.31 93.48 95.31 93.48C95.31 90.02 95.31 88.09 95.31 87.71C95.31 87.71 95.31 87.71 95.31 87.71C219.26 87.71 288.12 87.71 301.89 87.71Z" id="dVFIJLzbL"></path><path d="M301.89 128.68C301.89 128.68 301.89 128.68 301.89 128.68C301.89 132.14 301.89 134.07 301.89 134.45C301.89 134.45 301.89 134.45 301.89 134.45C177.95 134.45 109.09 134.45 95.31 134.45C95.31 134.45 95.31 134.45 95.31 134.45C95.31 130.99 95.31 129.06 95.31 128.68C95.31 128.68 95.31 128.68 95.31 128.68C219.26 128.68 288.12 128.68 301.89 128.68Z" id="a1rSHfg5Fm"></path><path d="M267.27 100.4C260.9 100.4 255.73 105.57 255.73 111.95C255.73 118.32 260.9 123.49 267.27 123.49C273.64 123.49 278.81 118.32 278.81 111.95C278.81 105.57 273.64 100.4 267.27 100.4Z" id="a1JJdgwspv"></path><path d="M267.27 102.71C262.17 102.71 258.04 106.85 258.04 111.95C258.04 117.04 262.17 121.18 267.27 121.18C272.37 121.18 276.5 117.04 276.5 111.95C276.5 106.85 272.37 102.71 267.27 102.71Z" id="f762rr5efK"></path><path d="M267.27 109.64C266 109.64 264.96 110.67 264.96 111.95C264.96 113.22 266 114.25 267.27 114.25C268.55 114.25 269.58 113.22 269.58 111.95C269.58 110.67 268.55 109.64 267.27 109.64Z" id="b2hKb3IYu1"></path><path d="M275.35 112.52C275.35 112.52 275.35 112.52 275.35 112.52C269.81 112.52 266.73 112.52 266.12 112.52C266.12 112.52 266.12 112.52 266.12 112.52C266.12 111.83 266.12 111.45 266.12 111.37C266.12 111.37 266.12 111.37 266.12 111.37C271.66 111.37 274.73 111.37 275.35 111.37C275.35 111.37 275.35 111.37 275.35 111.37C275.35 112.06 275.35 112.45 275.35 112.52Z" id="a1BVaTVrFx"></path><path d="M266.69 113.1C266.69 113.1 266.69 113.1 266.69 113.1C266.69 107.56 266.69 104.48 266.69 103.87C266.69 103.87 266.69 103.87 266.69 103.87C267.39 103.87 267.77 103.87 267.85 103.87C267.85 103.87 267.85 103.87 267.85 103.87C267.85 109.41 267.85 112.48 267.85 113.1C267.85 113.1 267.85 113.1 267.85 113.1C267.16 113.1 266.77 113.1 266.69 113.1Z" id="i106GeGdK"></path><path d="M200.54 59.56C200.54 59.56 200.54 59.56 200.54 59.56C200.54 77.7 200.54 87.77 200.54 89.79C200.54 89.79 200.54 89.79 200.54 89.79C195.96 89.79 193.41 89.79 192.9 89.79C192.9 89.79 192.9 89.79 192.9 89.79C192.9 71.65 192.9 61.58 192.9 59.56C192.9 59.56 192.9 59.56 192.9 59.56C197.49 59.56 200.03 59.56 200.54 59.56Z" id="aHVzC1zUs"></path><path d="M200.54 64.33C200.54 64.33 200.54 64.33 200.54 64.33C200.54 66.43 200.54 67.6 200.54 67.83C200.54 67.83 200.54 67.83 200.54 67.83C195.96 67.83 193.41 67.83 192.9 67.83C192.9 67.83 192.9 67.83 192.9 67.83C192.9 65.73 192.9 64.57 192.9 64.33C192.9 64.33 192.9 64.33 192.9 64.33C197.49 64.33 200.03 64.33 200.54 64.33Z" id="e2QlgdyPoE"></path><path d="M200.54 79.6C200.54 79.6 200.54 79.6 200.54 79.6C200.54 81.7 200.54 82.87 200.54 83.1C200.54 83.1 200.54 83.1 200.54 83.1C195.96 83.1 193.41 83.1 192.9 83.1C192.9 83.1 192.9 83.1 192.9 83.1C192.9 81 192.9 79.84 192.9 79.6C192.9 79.6 192.9 79.6 192.9 79.6C197.49 79.6 200.03 79.6 200.54 79.6Z" id="fGkaG4sno"></path><path d="M188.77 59.56C188.77 59.56 188.77 59.56 188.77 59.56C188.77 77.7 188.77 87.77 188.77 89.79C188.77 89.79 188.77 89.79 188.77 89.79C184.19 89.79 181.64 89.79 181.13 89.79C181.13 89.79 181.13 89.79 181.13 89.79C181.13 71.65 181.13 61.58 181.13 59.56C181.13 59.56 181.13 59.56 181.13 59.56C185.71 59.56 188.26 59.56 188.77 59.56Z" id="aiBYxDZmq"></path><path d="M188.77 64.33C188.77 64.33 188.77 64.33 188.77 64.33C188.77 66.43 188.77 67.6 188.77 67.83C188.77 67.83 188.77 67.83 188.77 67.83C184.19 67.83 181.64 67.83 181.13 67.83C181.13 67.83 181.13 67.83 181.13 67.83C181.13 65.73 181.13 64.57 181.13 64.33C181.13 64.33 181.13 64.33 181.13 64.33C185.71 64.33 188.26 64.33 188.77 64.33Z" id="b2iZ7Ff9ay"></path><path d="M188.77 79.6C188.77 79.6 188.77 79.6 188.77 79.6C188.77 81.7 188.77 82.87 188.77 83.1C188.77 83.1 188.77 83.1 188.77 83.1C184.19 83.1 181.64 83.1 181.13 83.1C181.13 83.1 181.13 83.1 181.13 83.1C181.13 81 181.13 79.84 181.13 79.6C181.13 79.6 181.13 79.6 181.13 79.6C185.71 79.6 188.26 79.6 188.77 79.6Z" id="b4hZA7HhrT"></path><path d="M207.12 59.44C207.12 59.44 207.12 59.44 207.12 59.44C215.17 75.69 219.64 84.72 220.53 86.52C220.53 86.52 220.53 86.52 220.53 86.52C216.42 88.56 214.14 89.68 213.69 89.91C213.69 89.91 213.69 89.91 213.69 89.91C205.64 73.66 201.17 64.63 200.28 62.82C200.28 62.82 200.28 62.82 200.28 62.82C204.38 60.79 206.66 59.66 207.12 59.44Z" id="o1ftUILiVx"></path><path d="M209.24 63.71C209.24 63.71 209.24 63.71 209.24 63.71C210.17 65.59 210.69 66.64 210.79 66.85C210.79 66.85 210.79 66.85 210.79 66.85C206.68 68.88 204.4 70.01 203.95 70.24C203.95 70.24 203.95 70.24 203.95 70.24C203.02 68.35 202.5 67.31 202.39 67.1C202.39 67.1 202.39 67.1 202.39 67.1C206.5 65.07 208.78 63.94 209.24 63.71Z" id="afeLkZ4ne"></path><path d="M216.01 77.4C216.01 77.4 216.01 77.4 216.01 77.4C216.95 79.28 217.46 80.33 217.57 80.53C217.57 80.53 217.57 80.53 217.57 80.53C213.46 82.57 211.18 83.7 210.72 83.92C210.72 83.92 210.72 83.92 210.72 83.92C209.79 82.04 209.27 81 209.17 80.79C209.17 80.79 209.17 80.79 209.17 80.79C213.28 78.75 215.56 77.62 216.01 77.4Z" id="a25LanCUm"></path><path d="M132.45 100.53C132.45 100.53 132.45 100.53 132.45 100.53C132.45 118.67 132.45 128.74 132.45 130.76C132.45 130.76 132.45 130.76 132.45 130.76C127.87 130.76 125.32 130.76 124.81 130.76C124.81 130.76 124.81 130.76 124.81 130.76C124.81 112.62 124.81 102.54 124.81 100.53C124.81 100.53 124.81 100.53 124.81 100.53C129.4 100.53 131.94 100.53 132.45 100.53Z" id="bcMGDpt6r"></path><path d="M132.45 105.3C132.45 105.3 132.45 105.3 132.45 105.3C132.45 107.4 132.45 108.57 132.45 108.8C132.45 108.8 132.45 108.8 132.45 108.8C127.87 108.8 125.32 108.8 124.81 108.8C124.81 108.8 124.81 108.8 124.81 108.8C124.81 106.7 124.81 105.54 124.81 105.3C124.81 105.3 124.81 105.3 124.81 105.3C129.4 105.3 131.94 105.3 132.45 105.3Z" id="bfXs6oOyi"></path><path d="M132.45 120.57C132.45 120.57 132.45 120.57 132.45 120.57C132.45 122.67 132.45 123.84 132.45 124.07C132.45 124.07 132.45 124.07 132.45 124.07C127.87 124.07 125.32 124.07 124.81 124.07C124.81 124.07 124.81 124.07 124.81 124.07C124.81 121.97 124.81 120.81 124.81 120.57C124.81 120.57 124.81 120.57 124.81 120.57C129.4 120.57 131.94 120.57 132.45 120.57Z" id="d1T3t7JAvY"></path><path d="M120.68 100.53C120.68 100.53 120.68 100.53 120.68 100.53C120.68 118.67 120.68 128.74 120.68 130.76C120.68 130.76 120.68 130.76 120.68 130.76C116.1 130.76 113.55 130.76 113.04 130.76C113.04 130.76 113.04 130.76 113.04 130.76C113.04 112.62 113.04 102.54 113.04 100.53C113.04 100.53 113.04 100.53 113.04 100.53C117.62 100.53 120.17 100.53 120.68 100.53Z" id="b1ELYKrGxL"></path><path d="M120.68 105.3C120.68 105.3 120.68 105.3 120.68 105.3C120.68 107.4 120.68 108.57 120.68 108.8C120.68 108.8 120.68 108.8 120.68 108.8C116.1 108.8 113.55 108.8 113.04 108.8C113.04 108.8 113.04 108.8 113.04 108.8C113.04 106.7 113.04 105.54 113.04 105.3C113.04 105.3 113.04 105.3 113.04 105.3C117.62 105.3 120.17 105.3 120.68 105.3Z" id="f6hDf4zgSy"></path><path d="M120.68 120.57C120.68 120.57 120.68 120.57 120.68 120.57C120.68 122.67 120.68 123.84 120.68 124.07C120.68 124.07 120.68 124.07 120.68 124.07C116.1 124.07 113.55 124.07 113.04 124.07C113.04 124.07 113.04 124.07 113.04 124.07C113.04 121.97 113.04 120.81 113.04 120.57C113.04 120.57 113.04 120.57 113.04 120.57C117.62 120.57 120.17 120.57 120.68 120.57Z" id="a7CdptMIH"></path><path d="M139.03 100.4C139.03 100.4 139.03 100.4 139.03 100.4C147.08 116.66 151.55 125.69 152.44 127.49C152.44 127.49 152.44 127.49 152.44 127.49C148.33 129.53 146.05 130.65 145.6 130.88C145.6 130.88 145.6 130.88 145.6 130.88C137.55 114.63 133.08 105.6 132.19 103.79C132.19 103.79 132.19 103.79 132.19 103.79C136.29 101.76 138.57 100.63 139.03 100.4Z" id="c3D0JERBq"></path><path d="M141.15 104.68C141.15 104.68 141.15 104.68 141.15 104.68C142.08 106.56 142.6 107.61 142.7 107.82C142.7 107.82 142.7 107.82 142.7 107.82C138.59 109.85 136.31 110.98 135.86 111.21C135.86 111.21 135.86 111.21 135.86 111.21C134.93 109.32 134.41 108.28 134.3 108.07C134.3 108.07 134.3 108.07 134.3 108.07C138.41 106.04 140.69 104.91 141.15 104.68Z" id="aeFdzf9WZ"></path><path d="M147.92 118.37C147.92 118.37 147.92 118.37 147.92 118.37C148.86 120.25 149.37 121.3 149.48 121.5C149.48 121.5 149.48 121.5 149.48 121.5C145.37 123.54 143.09 124.67 142.63 124.89C142.63 124.89 142.63 124.89 142.63 124.89C141.7 123.01 141.18 121.97 141.08 121.76C141.08 121.76 141.08 121.76 141.08 121.76C145.19 119.72 147.47 118.59 147.92 118.37Z" id="a45XCHllKq"></path><path d="M204 100.53C204 100.53 204 100.53 204 100.53C204 118.67 204 128.74 204 130.76C204 130.76 204 130.76 204 130.76C199.42 130.76 196.88 130.76 196.37 130.76C196.37 130.76 196.37 130.76 196.37 130.76C196.37 112.62 196.37 102.54 196.37 100.53C196.37 100.53 196.37 100.53 196.37 100.53C200.95 100.53 203.49 100.53 204 100.53Z" id="gwtXmZH4c"></path><path d="M204 105.3C204 105.3 204 105.3 204 105.3C204 107.4 204 108.57 204 108.8C204 108.8 204 108.8 204 108.8C199.42 108.8 196.88 108.8 196.37 108.8C196.37 108.8 196.37 108.8 196.37 108.8C196.37 106.7 196.37 105.54 196.37 105.3C196.37 105.3 196.37 105.3 196.37 105.3C200.95 105.3 203.49 105.3 204 105.3Z" id="c3ZMFHUd5u"></path><path d="M204 120.57C204 120.57 204 120.57 204 120.57C204 122.67 204 123.84 204 124.07C204 124.07 204 124.07 204 124.07C199.42 124.07 196.88 124.07 196.37 124.07C196.37 124.07 196.37 124.07 196.37 124.07C196.37 121.97 196.37 120.81 196.37 120.57C196.37 120.57 196.37 120.57 196.37 120.57C200.95 120.57 203.49 120.57 204 120.57Z" id="c7QEdiREAV"></path><path d="M192.23 100.53C192.23 100.53 192.23 100.53 192.23 100.53C192.23 118.67 192.23 128.74 192.23 130.76C192.23 130.76 192.23 130.76 192.23 130.76C187.65 130.76 185.1 130.76 184.59 130.76C184.59 130.76 184.59 130.76 184.59 130.76C184.59 112.62 184.59 102.54 184.59 100.53C184.59 100.53 184.59 100.53 184.59 100.53C189.18 100.53 191.72 100.53 192.23 100.53Z" id="aTEnqrqIM"></path><path d="M192.23 105.3C192.23 105.3 192.23 105.3 192.23 105.3C192.23 107.4 192.23 108.57 192.23 108.8C192.23 108.8 192.23 108.8 192.23 108.8C187.65 108.8 185.1 108.8 184.59 108.8C184.59 108.8 184.59 108.8 184.59 108.8C184.59 106.7 184.59 105.54 184.59 105.3C184.59 105.3 184.59 105.3 184.59 105.3C189.18 105.3 191.72 105.3 192.23 105.3Z" id="a1iQObcAqA"></path><path d="M192.23 120.57C192.23 120.57 192.23 120.57 192.23 120.57C192.23 122.67 192.23 123.84 192.23 124.07C192.23 124.07 192.23 124.07 192.23 124.07C187.65 124.07 185.1 124.07 184.59 124.07C184.59 124.07 184.59 124.07 184.59 124.07C184.59 121.97 184.59 120.81 184.59 120.57C184.59 120.57 184.59 120.57 184.59 120.57C189.18 120.57 191.72 120.57 192.23 120.57Z" id="e1oXydvc1N"></path><path d="M210.58 100.4C210.58 100.4 210.58 100.4 210.58 100.4C218.63 116.66 223.1 125.69 223.99 127.49C223.99 127.49 223.99 127.49 223.99 127.49C219.89 129.53 217.61 130.65 217.15 130.88C217.15 130.88 217.15 130.88 217.15 130.88C209.1 114.63 204.63 105.6 203.74 103.79C203.74 103.79 203.74 103.79 203.74 103.79C207.84 101.76 210.13 100.63 210.58 100.4Z" id="eLGocvIrS"></path><path d="M212.7 104.68C212.7 104.68 212.7 104.68 212.7 104.68C213.63 106.56 214.15 107.61 214.25 107.82C214.25 107.82 214.25 107.82 214.25 107.82C210.15 109.85 207.87 110.98 207.41 111.21C207.41 111.21 207.41 111.21 207.41 111.21C206.48 109.32 205.96 108.28 205.86 108.07C205.86 108.07 205.86 108.07 205.86 108.07C209.96 106.04 212.24 104.91 212.7 104.68Z" id="b28vt05Rq1"></path><path d="M219.48 118.37C219.48 118.37 219.48 118.37 219.48 118.37C220.41 120.25 220.93 121.3 221.03 121.5C221.03 121.5 221.03 121.5 221.03 121.5C216.92 123.54 214.64 124.67 214.19 124.89C214.19 124.89 214.19 124.89 214.19 124.89C213.25 123.01 212.74 121.97 212.63 121.76C212.63 121.76 212.63 121.76 212.63 121.76C216.74 119.72 219.02 118.59 219.48 118.37Z" id="c7lkkS0G9L"></path><path d="M285.74 18.5C285.74 18.5 285.74 18.5 285.74 18.5C285.74 36.71 285.74 46.83 285.74 48.85C285.74 48.85 285.74 48.85 285.74 48.85C267.53 48.85 257.41 48.85 255.39 48.85C255.39 48.85 255.39 48.85 255.39 48.85C255.39 30.64 255.39 20.52 255.39 18.5C255.39 18.5 255.39 18.5 255.39 18.5C273.6 18.5 283.71 18.5 285.74 18.5Z" id="cxhjlqYls"></path><path d="M279.67 24.57C279.67 24.57 279.67 24.57 279.67 24.57C279.67 35.49 279.67 41.56 279.67 42.78C279.67 42.78 279.67 42.78 279.67 42.78C268.74 42.78 262.67 42.78 261.46 42.78C261.46 42.78 261.46 42.78 261.46 42.78C261.46 31.85 261.46 25.78 261.46 24.57C261.46 24.57 261.46 24.57 261.46 24.57C272.38 24.57 278.45 24.57 279.67 24.57Z" id="e2OtpBYLYI"></path><path d="M270.59 37.37L274.45 44.06L266.73 44.06L259.01 44.06L262.87 37.37L266.73 30.68L266.73 30.68L270.59 37.37Z" id="a2tyNRnaUh"></path><path d="M277.3 38.65L281.16 45.33L273.44 45.33L265.71 45.33L269.58 38.65L273.44 31.96L273.44 31.96L277.3 38.65Z" id="cybmulH4h"></path><path d="M276.15 25.53C274.92 25.53 273.92 26.53 273.92 27.76C273.92 29 274.92 30 276.15 30C277.39 30 278.39 29 278.39 27.76C278.39 26.53 277.39 25.53 276.15 25.53Z" id="d74S6yhU7l"></path><path d="M132.24 18.5C132.24 18.5 132.24 18.5 132.24 18.5C132.24 36.71 132.24 46.83 132.24 48.85C132.24 48.85 132.24 48.85 132.24 48.85C114.04 48.85 103.92 48.85 101.9 48.85C101.9 48.85 101.9 48.85 101.9 48.85C101.9 30.64 101.9 20.52 101.9 18.5C101.9 18.5 101.9 18.5 101.9 18.5C120.11 18.5 130.22 18.5 132.24 18.5Z" id="b1k3qS5nZk"></path><path d="M126.17 24.57C126.17 24.57 126.17 24.57 126.17 24.57C126.17 35.49 126.17 41.56 126.17 42.78C126.17 42.78 126.17 42.78 126.17 42.78C115.25 42.78 109.18 42.78 107.97 42.78C107.97 42.78 107.97 42.78 107.97 42.78C107.97 31.85 107.97 25.78 107.97 24.57C107.97 24.57 107.97 24.57 107.97 24.57C118.89 24.57 124.96 24.57 126.17 24.57Z" id="a31kEIccsL"></path><path d="M117.1 37.37L120.96 44.06L113.24 44.06L105.51 44.06L109.38 37.37L113.24 30.68L113.24 30.68L117.1 37.37Z" id="f4pdSe1Lhm"></path><path d="M123.81 38.65L127.67 45.33L119.95 45.33L112.22 45.33L116.08 38.65L119.95 31.96L119.95 31.96L123.81 38.65Z" id="dQ8OFEkyC"></path><path d="M122.66 25.53C121.43 25.53 120.42 26.53 120.42 27.76C120.42 29 121.43 30 122.66 30C123.9 30 124.9 29 124.9 27.76C124.9 26.53 123.9 25.53 122.66 25.53Z" id="d4gUhKfNC3"></path><path d="M40.91 225.45C42.09 223.63 42.74 222.61 42.87 222.41C42.29 220.8 41.62 219.22 40.86 217.69C40.77 217.76 40.35 218.1 39.59 218.72C40.19 217.78 40.53 217.26 40.59 217.16C39.63 215.27 38.88 214.08 38.88 214.08C38.88 214.08 34.93 220.3 33.62 226.87C33.79 227.13 34.63 228.43 36.14 230.77C34.46 229.42 33.53 228.67 33.35 228.52C33.25 229.28 33.2 230.06 33.19 230.83C33.19 238.62 35.74 244.94 38.88 244.94C42.02 244.94 44.56 238.62 44.56 230.83C44.5 228.35 44.06 225.89 43.26 223.55C42.95 223.8 42.16 224.44 40.91 225.45Z" id="aGYxrJqus"></path><path d="M54.96 232.16C57.08 231.71 58.26 231.45 58.49 231.4C59.22 229.85 59.86 228.26 60.41 226.64C60.3 226.63 59.76 226.57 58.78 226.46C59.87 226.23 60.47 226.1 60.59 226.08C61.25 224.06 61.56 222.69 61.56 222.69C61.56 222.69 54.38 224.29 48.79 228.01C48.73 228.32 48.4 229.83 47.82 232.55C47.59 230.41 47.47 229.22 47.44 228.98C46.83 229.46 46.25 229.97 45.7 230.51C40.19 236.02 37.52 242.28 39.74 244.5C41.96 246.72 48.23 244.06 53.74 238.55C55.45 236.75 56.87 234.71 57.96 232.48C57.56 232.44 56.56 232.33 54.96 232.16Z" id="a3hsDiv1HI"></path><path d="M56.12 262.35C47.91 262.88 38.97 262.32 29.46 262.35C29.46 260.18 29.46 242.75 29.46 240.57C37.84 241.88 46.78 241.75 56.12 240.57C56.12 244.93 56.12 258 56.12 262.35Z" id="aXEouOrLW"></path><path d="M395.08 269.19C395.08 269.19 395.08 269.19 395.08 269.19C395.08 355.4 395.08 403.29 395.08 412.87C395.08 412.87 395.08 412.87 395.08 412.87C328.61 412.87 291.68 412.87 284.29 412.87C284.29 412.87 284.29 412.87 284.29 412.87C284.29 326.66 284.29 278.77 284.29 269.19C284.29 269.19 284.29 269.19 284.29 269.19C350.77 269.19 387.7 269.19 395.08 269.19Z" id="fFYfoafQE"></path><path d="M58.67 276.69C58.67 276.69 58.67 276.69 58.67 276.69C58.67 358.4 58.67 403.79 58.67 412.87C58.67 412.87 58.67 412.87 58.67 412.87C55.21 412.87 53.29 412.87 52.9 412.87C52.9 412.87 52.9 412.87 52.9 412.87C52.9 331.16 52.9 285.77 52.9 276.69C52.9 276.69 52.9 276.69 52.9 276.69C56.36 276.69 58.29 276.69 58.67 276.69Z" id="c2YLgjI98R"></path><path d="M395.08 259.38C395.08 259.38 395.08 259.38 395.08 259.38C395.08 266.3 395.08 270.15 395.08 270.92C395.08 270.92 395.08 270.92 395.08 270.92C158.27 270.92 26.71 270.92 0.39 270.92C0.39 270.92 0.39 270.92 0.39 270.92C0.39 264 0.39 260.15 0.39 259.38C0.39 259.38 0.39 259.38 0.39 259.38C237.21 259.38 368.77 259.38 395.08 259.38Z" id="d2J7EedU5B"></path><path d="M61.56 270.92C61.56 270.92 61.56 270.92 61.56 270.92C61.56 277.84 61.56 281.69 61.56 282.46C61.56 282.46 61.56 282.46 61.56 282.46C54.63 282.46 50.79 282.46 50.02 282.46C50.02 282.46 50.02 282.46 50.02 282.46C50.02 275.54 50.02 271.69 50.02 270.92C50.02 270.92 50.02 270.92 50.02 270.92C56.94 270.92 60.79 270.92 61.56 270.92Z" id="j5yOof9TJ"></path><path d="M347.77 280.15L331.61 280.15L330.64 277.56L289.49 277.56L289.49 304.1L389.89 304.1L389.89 277.56L348.42 277.56L348.42 277.56L347.77 280.15Z" id="bcd1187zP"></path><path d="M347.77 313.62L331.61 313.62L330.64 311.02L289.49 311.02L289.49 337.57L389.89 337.57L389.89 311.02L348.42 311.02L348.42 311.02L347.77 313.62Z" id="axLlUYYWt"></path><path d="M347.77 347.09L331.61 347.09L330.64 344.49L289.49 344.49L289.49 371.04L389.89 371.04L389.89 344.49L348.42 344.49L348.42 344.49L347.77 347.09Z" id="a3p7Gpspt"></path><path d="M347.77 380.56L331.61 380.56L330.64 377.96L289.49 377.96L289.49 404.5L389.89 404.5L389.89 377.96L348.42 377.96L348.42 377.96L347.77 380.56Z" id="b1gWyB5y0P"></path><path d="M180.43 257.65L181.58 242.64L213.32 242.64L214.47 257.65L214.47 257.65L180.43 257.65Z" id="b15xTcRmEH"></path><path d="M216.78 255.92C216.78 255.92 216.78 255.92 216.78 255.92C216.78 257.99 216.78 259.15 216.78 259.38C216.78 259.38 216.78 259.38 216.78 259.38C193.93 259.38 181.23 259.38 178.7 259.38C178.7 259.38 178.7 259.38 178.7 259.38C178.7 257.3 178.7 256.15 178.7 255.92C178.7 255.92 178.7 255.92 178.7 255.92C201.55 255.92 214.24 255.92 216.78 255.92Z" id="b3FFMlNX8Z"></path><path d="M132.53 145.99C130.62 145.99 129.07 147.54 129.07 149.45C129.07 149.45 129.07 149.45 129.07 149.45C129.07 154.74 129.07 181.19 129.07 228.8L266.12 228.8C266.12 181.19 266.12 154.74 266.12 149.45C266.12 147.54 264.57 145.99 262.65 145.99C262.65 145.99 145.55 145.99 132.53 145.99Z" id="bRHkVwvxl"></path><path d="M129.07 228.8C129.07 236.59 129.07 240.91 129.07 241.78C129.07 243.69 130.62 245.24 132.53 245.24C132.53 245.24 132.53 245.24 132.53 245.24C145.55 245.24 249.64 245.24 262.65 245.24C264.57 245.24 266.12 243.69 266.12 241.78C266.12 240.91 266.12 236.59 266.12 228.8L129.07 228.8Z" id="gyLXy4ZKQ"></path><path d="M259.48 153.2C259.48 153.2 259.48 153.2 259.48 153.2C259.48 194.75 259.48 217.83 259.48 222.45C259.48 222.45 259.48 222.45 259.48 222.45C185.39 222.45 144.23 222.45 136 222.45C136 222.45 136 222.45 136 222.45C136 180.9 136 157.82 136 153.2C136 153.2 136 153.2 136 153.2C210.09 153.2 251.25 153.2 259.48 153.2Z" id="acbaCbuQ"></path><path d="M197.74 233.41C195.83 233.41 194.28 234.96 194.28 236.87C194.28 238.79 195.83 240.34 197.74 240.34C199.65 240.34 201.2 238.79 201.2 236.87C201.2 234.96 199.65 233.41 197.74 233.41Z" id="aO37RWM73"></path><path d="M490.58 412.01C477.97 412.81 464.23 411.96 449.61 412.01C449.61 408.66 449.61 381.88 449.61 378.54C462.49 380.54 476.23 380.34 490.58 378.54C490.58 385.23 490.58 405.31 490.58 412.01Z" id="c1iv6rYmHY"></path><path d="M468.08 381.54L469.23 313.91L470.39 313.91L471.54 381.54L471.54 381.54L468.08 381.54Z" id="c2Jh6s4lG"></path><path d="M483.66 382L484.81 314.37L485.97 314.37L487.12 382L487.12 382L483.66 382Z" id="jLhSwn2n2"></path><path d="M454.23 382L455.38 314.37L456.54 314.37L457.69 382L457.69 382L454.23 382Z" id="brbuZf4rM"></path><path d="M474.43 270.63C477.78 265.45 479.64 262.57 480.01 261.99C478.36 257.42 476.44 252.93 474.28 248.57C474.04 248.77 472.84 249.74 470.67 251.49C472.38 248.84 473.34 247.36 473.53 247.07C470.8 241.7 468.66 238.32 468.66 238.32C468.66 238.32 457.45 255.98 453.7 274.68C454.18 275.42 456.57 279.12 460.87 285.77C456.11 281.92 453.46 279.78 452.93 279.35C452.65 281.53 452.51 283.73 452.5 285.92C452.5 308.07 459.73 326.03 468.66 326.03C477.58 326.03 484.81 308.07 484.81 285.92C484.81 279.06 483.26 271.87 481.12 265.23C480.22 265.95 477.99 267.75 474.43 270.63Z" id="b2W9s2k7Da"></path><path d="M490.01 272.89C493.36 267.71 495.22 264.83 495.59 264.25C493.94 259.67 492.02 255.19 489.86 250.83C489.62 251.02 488.41 252 486.25 253.75C487.96 251.09 488.92 249.62 489.11 249.33C486.38 243.96 484.24 240.57 484.24 240.57C484.24 240.57 473.03 258.24 469.28 276.94C469.76 277.68 472.15 281.37 476.45 288.02C471.69 284.18 469.04 282.04 468.51 281.61C468.23 283.79 468.09 285.98 468.08 288.18C468.08 310.33 475.31 328.28 484.24 328.28C493.16 328.28 500.39 310.33 500.39 288.18C500.39 281.31 498.84 274.13 496.7 267.49C495.8 268.21 493.57 270.01 490.01 272.89Z" id="g7UgfC2oz"></path><path d="M461.15 271.79C464.51 266.6 466.37 263.72 466.74 263.15C465.09 258.57 463.17 254.09 461.01 249.73C460.77 249.92 459.56 250.89 457.4 252.64C459.11 249.99 460.07 248.52 460.26 248.22C457.53 242.85 455.38 239.47 455.38 239.47C455.38 239.47 444.17 257.13 440.43 275.84C440.91 276.58 443.3 280.27 447.6 286.92C442.84 283.07 440.19 280.94 439.66 280.51C439.38 282.69 439.23 284.88 439.23 287.08C439.23 309.23 446.46 327.18 455.38 327.18C464.31 327.18 471.54 309.23 471.54 287.08C471.54 280.21 469.99 273.03 467.84 266.38C466.95 267.1 464.72 268.9 461.15 271.79Z" id="abpuZS8he"></path><path d="M209.34 172.75C209.34 172.75 209.34 172.75 209.34 172.75C209.34 173.9 209.34 174.53 209.34 174.66C209.34 174.66 209.34 174.66 209.34 174.66C189.36 174.66 178.26 174.66 176.04 174.66C176.04 174.66 176.04 174.66 176.04 174.66C176.04 173.51 176.04 172.88 176.04 172.75C176.04 172.75 176.04 172.75 176.04 172.75C196.02 172.75 207.12 172.75 209.34 172.75Z" id="e1UIO6WaTv"></path><path d="M227.46 179.72C227.46 179.72 227.46 179.72 227.46 179.72C227.46 180.87 227.46 181.51 227.46 181.63C227.46 181.63 227.46 181.63 227.46 181.63C196.61 181.63 179.47 181.63 176.04 181.63C176.04 181.63 176.04 181.63 176.04 181.63C176.04 180.49 176.04 179.85 176.04 179.72C176.04 179.72 176.04 179.72 176.04 179.72C206.89 179.72 224.03 179.72 227.46 179.72Z" id="b1HksGbcz0"></path><path d="M217.94 186.29C217.94 186.29 217.94 186.29 217.94 186.29C217.94 187.44 217.94 188.07 217.94 188.2C217.94 188.2 217.94 188.2 217.94 188.2C192.8 188.2 178.83 188.2 176.04 188.2C176.04 188.2 176.04 188.2 176.04 188.2C176.04 187.05 176.04 186.42 176.04 186.29C176.04 186.29 176.04 186.29 176.04 186.29C201.18 186.29 215.15 186.29 217.94 186.29Z" id="b2tEe8F6Wj"></path><path d="M200.5 192.83C200.5 192.83 200.5 192.83 200.5 192.83C200.5 193.98 200.5 194.62 200.5 194.75C200.5 194.75 200.5 194.75 200.5 194.75C185.82 194.75 177.67 194.75 176.04 194.75C176.04 194.75 176.04 194.75 176.04 194.75C176.04 193.6 176.04 192.96 176.04 192.83C176.04 192.83 176.04 192.83 176.04 192.83C190.72 192.83 198.87 192.83 200.5 192.83Z" id="d2r8Zcpo8w"></path><path d="M212.96 199.38C212.96 199.38 212.96 199.38 212.96 199.38C212.96 200.52 212.96 201.16 212.96 201.29C212.96 201.29 212.96 201.29 212.96 201.29C190.81 201.29 178.5 201.29 176.04 201.29C176.04 201.29 176.04 201.29 176.04 201.29C176.04 200.14 176.04 199.51 176.04 199.38C176.04 199.38 176.04 199.38 176.04 199.38C198.19 199.38 210.5 199.38 212.96 199.38Z" id="c3Zcoi6BFO"></path><path d="M164.94 172.07C164.94 172.07 164.94 172.07 164.94 172.07C164.94 174.52 164.94 175.88 164.94 176.15C164.94 176.15 164.94 176.15 164.94 176.15C162.5 176.15 161.14 176.15 160.86 176.15C160.86 176.15 160.86 176.15 160.86 176.15C160.86 173.7 160.86 172.34 160.86 172.07C160.86 172.07 160.86 172.07 160.86 172.07C163.31 172.07 164.67 172.07 164.94 172.07Z" id="df47jhTxi"></path><path d="M164.94 178.64C164.94 178.64 164.94 178.64 164.94 178.64C164.94 181.09 164.94 182.44 164.94 182.72C164.94 182.72 164.94 182.72 164.94 182.72C162.5 182.72 161.14 182.72 160.86 182.72C160.86 182.72 160.86 182.72 160.86 182.72C160.86 180.27 160.86 178.91 160.86 178.64C160.86 178.64 160.86 178.64 160.86 178.64C163.31 178.64 164.67 178.64 164.94 178.64Z" id="e2Msqh5wAM"></path><path d="M164.94 185.21C164.94 185.21 164.94 185.21 164.94 185.21C164.94 187.65 164.94 189.01 164.94 189.28C164.94 189.28 164.94 189.28 164.94 189.28C162.5 189.28 161.14 189.28 160.86 189.28C160.86 189.28 160.86 189.28 160.86 189.28C160.86 186.84 160.86 185.48 160.86 185.21C160.86 185.21 160.86 185.21 160.86 185.21C163.31 185.21 164.67 185.21 164.94 185.21Z" id="b7dNcZ6lRw"></path><path d="M164.94 191.78C164.94 191.78 164.94 191.78 164.94 191.78C164.94 194.22 164.94 195.58 164.94 195.85C164.94 195.85 164.94 195.85 164.94 195.85C162.5 195.85 161.14 195.85 160.86 195.85C160.86 195.85 160.86 195.85 160.86 195.85C160.86 193.41 160.86 192.05 160.86 191.78C160.86 191.78 160.86 191.78 160.86 191.78C163.31 191.78 164.67 191.78 164.94 191.78Z" id="b3uO33I5G"></path><path d="M164.94 198.34C164.94 198.34 164.94 198.34 164.94 198.34C164.94 200.79 164.94 202.15 164.94 202.42C164.94 202.42 164.94 202.42 164.94 202.42C162.5 202.42 161.14 202.42 160.86 202.42C160.86 202.42 160.86 202.42 160.86 202.42C160.86 199.98 160.86 198.62 160.86 198.34C160.86 198.34 160.86 198.34 160.86 198.34C163.31 198.34 164.67 198.34 164.94 198.34Z" id="b8t6e8TqG"></path><path d="M236.29 169.13C235.09 162.24 235.09 155.19 236.29 148.3C238.03 148.3 252.01 148.3 253.76 148.3C251.79 155.1 251.79 162.33 253.76 169.13C250.27 169.13 238.03 169.13 236.29 169.13Z" id="cLeXtNA7P"></path><path d="M119.44 209.13C109.22 209.15 100.92 200.87 100.91 190.65C100.91 189.41 101.03 188.18 101.28 186.96C101.28 186.96 101.28 186.96 101.28 186.96C101.26 173.6 112.07 162.76 125.43 162.74C125.43 162.74 125.43 162.74 125.43 162.74C138.79 162.73 149.64 173.54 149.65 186.9C149.65 186.9 149.65 186.9 149.65 186.9C153.73 201.08 140.96 214.38 126.63 210.89C125.19 210.53 120.16 209.31 119.44 209.13Z" id="e3431tgXH"></path><path d="M134.48 177.87C124.66 177.87 116.7 185.83 116.7 195.64C116.7 205.46 124.66 213.41 134.48 213.41C144.29 213.41 152.25 205.46 152.25 195.64C152.25 185.83 144.29 177.87 134.48 177.87Z" id="a4Yv8Eop3"></path><path d="M114.39 225.01C114.39 225.01 139.11 228.87 139.11 228.87C139.11 228.87 138.34 211.1 139.89 209.55C141.43 208 122.89 204.91 122.89 204.91C121.19 208.93 117.48 223.46 114.39 225.01Z" id="aL4y9oksR"></path><path d="M190.11 327.78C194.75 339.37 187.02 408.14 187.02 408.14C186.04 408.14 181.15 408.14 172.34 408.14C172.34 374.3 172.34 355.5 172.34 351.73C172.34 351.73 109.74 333.94 109.74 327.76C109.74 321.58 150.71 319.28 150.71 319.28C158.59 320.98 185.48 316.19 190.11 327.78Z" id="e2lRUbfWCW"></path><path d="M184.71 405.05C189.34 406.91 191.92 407.94 192.43 408.14C192.43 408.14 201.71 407.37 197.84 414.33C195.6 418.42 191.62 421.26 187.02 422.05C187.02 422.05 172.34 427.46 171.57 422.05C171.57 422.05 175.43 405.83 175.43 405.83C176.67 405.72 179.76 405.47 184.71 405.05Z" id="afmQ9iNaX"></path><path d="M170.8 327.78C175.43 339.37 167.71 408.14 167.71 408.14C166.73 408.14 161.83 408.14 153.02 408.14C153.02 374.3 153.02 355.5 153.02 351.73C153.02 351.73 108.59 341.44 108.59 335.26C108.59 332.36 105.56 317.6 110.89 314.49C116.92 310.98 131.39 319.28 131.39 319.28C139.27 320.98 166.16 316.19 170.8 327.78Z" id="e2DmkAwoY"></path><path d="M165.39 405.05C170.02 406.91 172.6 407.94 173.11 408.14C173.11 408.14 182.39 407.37 178.52 414.33C176.28 418.42 172.3 421.26 167.71 422.05C167.71 422.05 153.02 427.46 152.25 422.05C152.25 422.05 156.11 405.83 156.11 405.83C157.35 405.72 160.44 405.47 165.39 405.05Z" id="bwcGhBcNc"></path><path d="M138.38 225.21C145.73 226.01 151.74 231.44 153.27 238.68C154.17 242.95 161.39 277.14 162.3 281.42C162.3 281.42 165.39 323.92 159.21 326.23C159.21 326.23 144.52 316.96 132.93 318.51C132.93 318.51 106.27 323.53 106.27 323.53C106.27 323.53 103.88 247.46 103.57 241.23C102.95 228.79 115.16 222.69 115.16 222.69C119.8 223.19 136.06 224.96 138.38 225.21Z" id="abTdUZqCVl"></path><path d="M170.17 321.49C175.89 324.86 179.07 326.73 179.7 327.1C179.7 327.1 196.8 324.65 196.27 330.66C196.27 330.66 177.07 335.51 177.07 335.51C176.3 335.04 172.47 332.68 165.58 328.43L170.17 321.49Z" id="a38d5NRh0P"></path><path d="M99.98 158.22C93.64 158.22 88.5 163.36 88.5 169.71C88.5 176.05 93.64 181.19 99.98 181.19C106.32 181.19 111.46 176.05 111.46 169.71C111.46 163.36 106.32 158.22 99.98 158.22Z" id="bcLXsXgG"></path><path d="M99.09 152.07C98.33 152.07 97.58 152.14 96.83 152.29C102.56 149.59 109.4 152.04 112.11 157.77C114.82 163.5 112.37 170.34 106.64 173.04C105.8 173.44 104.91 173.74 103.99 173.92C108.01 172.03 110.58 167.98 110.57 163.53C110.57 157.2 105.43 152.06 99.09 152.07Z" id="a2kYIhWkrw"></path><path d="M120.42 170.04L135.9 167.19C143.04 171.67 147.01 174.16 147.8 174.66C153.78 178.4 157.03 185.28 156.12 192.28C155.33 192.07 151.35 191.07 144.2 189.25L141.53 182.56L138.35 187.77L121.73 209.16L112.39 203.22L104.07 190.18L120.42 170.04Z" id="a41NIC4Gs9"></path><path d="M133.17 229.26C137.8 226.94 140.38 225.65 140.9 225.4C140.9 225.4 157.12 227.71 160.21 238.53C160.21 238.53 177.21 324.31 177.21 324.31C176.34 324.72 171.96 326.78 164.08 330.49L145.53 284.9L133.17 229.26Z" id="a1oHHpxPJC"></path><path d="M147.48 289.69L161.19 323.4L160.72 324.57L144.36 290.25L139.75 259.67L139.75 259.67L147.48 289.69Z" id="ezJIlzzsl"></path><path d="M79.31 424.28L105.73 345.8L109.55 347.12L82.04 425.22L82.04 425.22L79.31 424.28Z" id="dqc63QRmO"></path><path d="M185.75 424.28L159.33 345.8L155.51 347.12L183.03 425.22L183.03 425.22L185.75 424.28Z" id="bFOo4LUeI"></path><path d="M130.08 441.44L130.98 349.7L126.94 349.69L127.2 441.43L127.2 441.43L130.08 441.44Z" id="b2TO6iZR29"></path><path d="M83.28 331.68C85.54 340.8 92.65 347.94 101.77 350.22C101.77 350.22 101.77 350.22 101.77 350.22C123.85 355.74 146.95 355.59 168.95 349.79C170.13 349.47 179.59 346.98 180.77 346.67C187.63 344.86 192.8 338.96 193.28 331.88C193.48 329.37 193.03 326.86 191.97 324.58C191.9 324.44 191.84 324.32 191.83 324.29C188.69 317.84 182.23 313.66 175.06 313.45C174.22 313.42 170.05 313.29 162.54 313.04C135.19 300.93 119.99 294.19 116.95 292.85C116.95 292.85 101.28 284.88 88.39 283.99C79.87 283.4 73.31 291.41 75.36 299.69C76.95 306.09 82.49 328.48 83.28 331.68Z" id="aphmY1Ck2"></path><path d="M353.25 199.08C353.25 199.08 353.25 199.08 353.25 199.08C353.25 235.78 353.25 256.17 353.25 260.24C353.25 260.24 353.25 260.24 353.25 260.24C326.24 260.24 311.24 260.24 308.24 260.24C308.24 260.24 308.24 260.24 308.24 260.24C308.24 223.54 308.24 203.16 308.24 199.08C308.24 199.08 308.24 199.08 308.24 199.08C335.25 199.08 350.25 199.08 353.25 199.08Z" id="e27kDnVaGv"></path><path d="M348.06 206.14C348.06 206.14 348.06 206.14 348.06 206.14C348.06 234.37 348.06 250.05 348.06 253.19C348.06 253.19 348.06 253.19 348.06 253.19C327.28 253.19 315.74 253.19 313.43 253.19C313.43 253.19 313.43 253.19 313.43 253.19C313.43 224.96 313.43 209.27 313.43 206.14C313.43 206.14 313.43 206.14 313.43 206.14C334.21 206.14 345.75 206.14 348.06 206.14Z" id="ctxHgktUa"></path><path d="M343.83 218.45C343.83 218.45 343.83 218.45 343.83 218.45C343.83 219.6 343.83 220.23 343.83 220.36C343.83 220.36 343.83 220.36 343.83 220.36C333.77 220.36 328.18 220.36 327.06 220.36C327.06 220.36 327.06 220.36 327.06 220.36C327.06 219.21 327.06 218.58 327.06 218.45C327.06 218.45 327.06 218.45 327.06 218.45C337.12 218.45 342.72 218.45 343.83 218.45Z" id="c5VxBkIwyP"></path><path d="M321.73 217.39C321.73 217.39 321.73 217.39 321.73 217.39C321.73 219.84 321.73 221.2 321.73 221.47C321.73 221.47 321.73 221.47 321.73 221.47C319.29 221.47 317.93 221.47 317.65 221.47C317.65 221.47 317.65 221.47 317.65 221.47C317.65 219.02 317.65 217.66 317.65 217.39C317.65 217.39 317.65 217.39 317.65 217.39C320.1 217.39 321.46 217.39 321.73 217.39Z" id="a3Tiexvurk"></path><path d="M343.83 226.53C343.83 226.53 343.83 226.53 343.83 226.53C343.83 227.67 343.83 228.31 343.83 228.44C343.83 228.44 343.83 228.44 343.83 228.44C333.77 228.44 328.18 228.44 327.06 228.44C327.06 228.44 327.06 228.44 327.06 228.44C327.06 227.29 327.06 226.65 327.06 226.53C327.06 226.53 327.06 226.53 327.06 226.53C337.12 226.53 342.72 226.53 343.83 226.53Z" id="dsu813DQA"></path><path d="M321.73 225.47C321.73 225.47 321.73 225.47 321.73 225.47C321.73 227.92 321.73 229.27 321.73 229.55C321.73 229.55 321.73 229.55 321.73 229.55C319.29 229.55 317.93 229.55 317.65 229.55C317.65 229.55 317.65 229.55 317.65 229.55C317.65 227.1 317.65 225.74 317.65 225.47C317.65 225.47 317.65 225.47 317.65 225.47C320.1 225.47 321.46 225.47 321.73 225.47Z" id="cQZ9y9y91"></path><path d="M343.83 234.61C343.83 234.61 343.83 234.61 343.83 234.61C343.83 235.75 343.83 236.39 343.83 236.52C343.83 236.52 343.83 236.52 343.83 236.52C333.77 236.52 328.18 236.52 327.06 236.52C327.06 236.52 327.06 236.52 327.06 236.52C327.06 235.37 327.06 234.73 327.06 234.61C327.06 234.61 327.06 234.61 327.06 234.61C337.12 234.61 342.72 234.61 343.83 234.61Z" id="a1dfXADCEJ"></path><path d="M321.73 233.55C321.73 233.55 321.73 233.55 321.73 233.55C321.73 235.99 321.73 237.35 321.73 237.62C321.73 237.62 321.73 237.62 321.73 237.62C319.29 237.62 317.93 237.62 317.65 237.62C317.65 237.62 317.65 237.62 317.65 237.62C317.65 235.18 317.65 233.82 317.65 233.55C317.65 233.55 317.65 233.55 317.65 233.55C320.1 233.55 321.46 233.55 321.73 233.55Z" id="bLnBBt3KP"></path><path d="M330.74 200.81C331.9 200.81 332.48 201.39 332.48 202.54C332.48 202.54 332.48 202.54 332.48 202.54C332.48 203.69 331.9 204.27 330.74 204.27C330.74 204.27 330.74 204.27 330.74 204.27C329.59 204.27 329.01 203.69 329.01 202.54C329.01 202.54 329.01 202.54 329.01 202.54C329.01 201.39 329.59 200.81 330.74 200.81C330.74 200.81 330.74 200.81 330.74 200.81Z" id="c1BGqznI3"></path></defs><g><g><use xlink:href="#cmit4Fu1V" opacity="1" fill="#e6e6e6" fill-opacity="1"></use><g><use xlink:href="#cmit4Fu1V" opacity="1" fill-opacity="0" stroke="#000000" stroke-width="1" stroke-opacity="0"></use></g></g><g><use xlink:href="#d2XjQT1AZ1" opacity="1" fill="#e6e6e6" fill-opacity="1"></use><g><use xlink:href="#d2XjQT1AZ1" opacity="1" fill-opacity="0" stroke="#000000" stroke-width="1" stroke-opacity="0"></use></g></g><g><use xlink:href="#b1ynKsc3tz" opacity="1" fill="#e6e6e6" fill-opacity="1"></use><g><use xlink:href="#b1ynKsc3tz" opacity="1" fill-opacity="0" stroke="#000000" stroke-width="1" stroke-opacity="0"></use></g></g><g><use xlink:href="#cfL9t96Xl" opacity="1" fill="#e6e6e6" fill-opacity="1"></use><g><use xlink:href="#cfL9t96Xl" opacity="1" fill-opacity="0" stroke="#000000" stroke-width="1" stroke-opacity="0"></use></g></g><g><use xlink:href="#a1zfFPHK8" opacity="1" fill="#e6e6e6" fill-opacity="1"></use><g><use xlink:href="#a1zfFPHK8" opacity="1" fill-opacity="0" stroke="#000000" stroke-width="1" stroke-opacity="0"></use></g></g><g><use xlink:href="#b29rpfheu4" opacity="1" fill="#e6e6e6" fill-opacity="1"></use><g><use xlink:href="#b29rpfheu4" opacity="1" fill-opacity="0" stroke="#000000" stroke-width="1" stroke-opacity="0"></use></g></g><g><use xlink:href="#c6hPSkrakm" opacity="1" fill="#e6e6e6" fill-opacity="1"></use><g><use xlink:href="#c6hPSkrakm" opacity="1" fill-opacity="0" stroke="#000000" stroke-width="1" stroke-opacity="0"></use></g></g><g><use xlink:href="#aomd10WDz" opacity="1" fill="#e6e6e6" fill-opacity="1"></use><g><use xlink:href="#aomd10WDz" opacity="1" fill-opacity="0" stroke="#000000" stroke-width="1" stroke-opacity="0"></use></g></g><g><use xlink:href="#dVFIJLzbL" opacity="1" fill="#e6e6e6" fill-opacity="1"></use><g><use xlink:href="#dVFIJLzbL" opacity="1" fill-opacity="0" stroke="#000000" stroke-width="1" stroke-opacity="0"></use></g></g><g><use xlink:href="#a1rSHfg5Fm" opacity="1" fill="#e6e6e6" fill-opacity="1"></use><g><use xlink:href="#a1rSHfg5Fm" opacity="1" fill-opacity="0" stroke="#000000" stroke-width="1" stroke-opacity="0"></use></g></g><g><use xlink:href="#a1JJdgwspv" opacity="1" fill="#e6e6e6" fill-opacity="1"></use><g><use xlink:href="#a1JJdgwspv" opacity="1" fill-opacity="0" stroke="#000000" stroke-width="1" stroke-opacity="0"></use></g></g><g><use xlink:href="#f762rr5efK" opacity="1" fill="#ffffff" fill-opacity="1"></use><g><use xlink:href="#f762rr5efK" opacity="1" fill-opacity="0" stroke="#000000" stroke-width="1" stroke-opacity="0"></use></g></g><g><use xlink:href="#b2hKb3IYu1" opacity="1" fill="#e6e6e6" fill-opacity="1"></use><g><use xlink:href="#b2hKb3IYu1" opacity="1" fill-opacity="0" stroke="#000000" stroke-width="1" stroke-opacity="0"></use></g></g><g><use xlink:href="#a1BVaTVrFx" opacity="1" fill="#e6e6e6" fill-opacity="1"></use><g><use xlink:href="#a1BVaTVrFx" opacity="1" fill-opacity="0" stroke="#000000" stroke-width="1" stroke-opacity="0"></use></g></g><g><use xlink:href="#i106GeGdK" opacity="1" fill="#e6e6e6" fill-opacity="1"></use><g><use xlink:href="#i106GeGdK" opacity="1" fill-opacity="0" stroke="#000000" stroke-width="1" stroke-opacity="0"></use></g></g><g><use xlink:href="#aHVzC1zUs" opacity="1" fill="#e6e6e6" fill-opacity="1"></use><g><use xlink:href="#aHVzC1zUs" opacity="1" fill-opacity="0" stroke="#000000" stroke-width="1" stroke-opacity="0"></use></g></g><g><use xlink:href="#e2QlgdyPoE" opacity="1" fill="#cccccc" fill-opacity="1"></use><g><use xlink:href="#e2QlgdyPoE" opacity="1" fill-opacity="0" stroke="#000000" stroke-width="1" stroke-opacity="0"></use></g></g><g><use xlink:href="#fGkaG4sno" opacity="1" fill="#cccccc" fill-opacity="1"></use><g><use xlink:href="#fGkaG4sno" opacity="1" fill-opacity="0" stroke="#000000" stroke-width="1" stroke-opacity="0"></use></g></g><g><use xlink:href="#aiBYxDZmq" opacity="1" fill="#e6e6e6" fill-opacity="1"></use><g><use xlink:href="#aiBYxDZmq" opacity="1" fill-opacity="0" stroke="#000000" stroke-width="1" stroke-opacity="0"></use></g></g><g><use xlink:href="#b2iZ7Ff9ay" opacity="1" fill="#cccccc" fill-opacity="1"></use><g><use xlink:href="#b2iZ7Ff9ay" opacity="1" fill-opacity="0" stroke="#000000" stroke-width="1" stroke-opacity="0"></use></g></g><g><use xlink:href="#b4hZA7HhrT" opacity="1" fill="#cccccc" fill-opacity="1"></use><g><use xlink:href="#b4hZA7HhrT" opacity="1" fill-opacity="0" stroke="#000000" stroke-width="1" stroke-opacity="0"></use></g></g><g><use xlink:href="#o1ftUILiVx" opacity="1" fill="#e6e6e6" fill-opacity="1"></use><g><use xlink:href="#o1ftUILiVx" opacity="1" fill-opacity="0" stroke="#000000" stroke-width="1" stroke-opacity="0"></use></g></g><g><use xlink:href="#afeLkZ4ne" opacity="1" fill="#cccccc" fill-opacity="1"></use><g><use xlink:href="#afeLkZ4ne" opacity="1" fill-opacity="0" stroke="#000000" stroke-width="1" stroke-opacity="0"></use></g></g><g><use xlink:href="#a25LanCUm" opacity="1" fill="#cccccc" fill-opacity="1"></use><g><use xlink:href="#a25LanCUm" opacity="1" fill-opacity="0" stroke="#000000" stroke-width="1" stroke-opacity="0"></use></g></g><g><use xlink:href="#bcMGDpt6r" opacity="1" fill="#e6e6e6" fill-opacity="1"></use><g><use xlink:href="#bcMGDpt6r" opacity="1" fill-opacity="0" stroke="#000000" stroke-width="1" stroke-opacity="0"></use></g></g><g><use xlink:href="#bfXs6oOyi" opacity="1" fill="#cccccc" fill-opacity="1"></use><g><use xlink:href="#bfXs6oOyi" opacity="1" fill-opacity="0" stroke="#000000" stroke-width="1" stroke-opacity="0"></use></g></g><g><use xlink:href="#d1T3t7JAvY" opacity="1" fill="#cccccc" fill-opacity="1"></use><g><use xlink:href="#d1T3t7JAvY" opacity="1" fill-opacity="0" stroke="#000000" stroke-width="1" stroke-opacity="0"></use></g></g><g><use xlink:href="#b1ELYKrGxL" opacity="1" fill="#e6e6e6" fill-opacity="1"></use><g><use xlink:href="#b1ELYKrGxL" opacity="1" fill-opacity="0" stroke="#000000" stroke-width="1" stroke-opacity="0"></use></g></g><g><use xlink:href="#f6hDf4zgSy" opacity="1" fill="#cccccc" fill-opacity="1"></use><g><use xlink:href="#f6hDf4zgSy" opacity="1" fill-opacity="0" stroke="#000000" stroke-width="1" stroke-opacity="0"></use></g></g><g><use xlink:href="#a7CdptMIH" opacity="1" fill="#cccccc" fill-opacity="1"></use><g><use xlink:href="#a7CdptMIH" opacity="1" fill-opacity="0" stroke="#000000" stroke-width="1" stroke-opacity="0"></use></g></g><g><use xlink:href="#c3D0JERBq" opacity="1" fill="#e6e6e6" fill-opacity="1"></use><g><use xlink:href="#c3D0JERBq" opacity="1" fill-opacity="0" stroke="#000000" stroke-width="1" stroke-opacity="0"></use></g></g><g><use xlink:href="#aeFdzf9WZ" opacity="1" fill="#cccccc" fill-opacity="1"></use><g><use xlink:href="#aeFdzf9WZ" opacity="1" fill-opacity="0" stroke="#000000" stroke-width="1" stroke-opacity="0"></use></g></g><g><use xlink:href="#a45XCHllKq" opacity="1" fill="#cccccc" fill-opacity="1"></use><g><use xlink:href="#a45XCHllKq" opacity="1" fill-opacity="0" stroke="#000000" stroke-width="1" stroke-opacity="0"></use></g></g><g><use xlink:href="#gwtXmZH4c" opacity="1" fill="#e6e6e6" fill-opacity="1"></use><g><use xlink:href="#gwtXmZH4c" opacity="1" fill-opacity="0" stroke="#000000" stroke-width="1" stroke-opacity="0"></use></g></g><g><use xlink:href="#c3ZMFHUd5u" opacity="1" fill="#cccccc" fill-opacity="1"></use><g><use xlink:href="#c3ZMFHUd5u" opacity="1" fill-opacity="0" stroke="#000000" stroke-width="1" stroke-opacity="0"></use></g></g><g><use xlink:href="#c7QEdiREAV" opacity="1" fill="#cccccc" fill-opacity="1"></use><g><use xlink:href="#c7QEdiREAV" opacity="1" fill-opacity="0" stroke="#000000" stroke-width="1" stroke-opacity="0"></use></g></g><g><use xlink:href="#aTEnqrqIM" opacity="1" fill="#e6e6e6" fill-opacity="1"></use><g><use xlink:href="#aTEnqrqIM" opacity="1" fill-opacity="0" stroke="#000000" stroke-width="1" stroke-opacity="0"></use></g></g><g><use xlink:href="#a1iQObcAqA" opacity="1" fill="#cccccc" fill-opacity="1"></use><g><use xlink:href="#a1iQObcAqA" opacity="1" fill-opacity="0" stroke="#000000" stroke-width="1" stroke-opacity="0"></use></g></g><g><use xlink:href="#e1oXydvc1N" opacity="1" fill="#cccccc" fill-opacity="1"></use><g><use xlink:href="#e1oXydvc1N" opacity="1" fill-opacity="0" stroke="#000000" stroke-width="1" stroke-opacity="0"></use></g></g><g><use xlink:href="#eLGocvIrS" opacity="1" fill="#e6e6e6" fill-opacity="1"></use><g><use xlink:href="#eLGocvIrS" opacity="1" fill-opacity="0" stroke="#000000" stroke-width="1" stroke-opacity="0"></use></g></g><g><use xlink:href="#b28vt05Rq1" opacity="1" fill="#cccccc" fill-opacity="1"></use><g><use xlink:href="#b28vt05Rq1" opacity="1" fill-opacity="0" stroke="#000000" stroke-width="1" stroke-opacity="0"></use></g></g><g><use xlink:href="#c7lkkS0G9L" opacity="1" fill="#cccccc" fill-opacity="1"></use><g><use xlink:href="#c7lkkS0G9L" opacity="1" fill-opacity="0" stroke="#000000" stroke-width="1" stroke-opacity="0"></use></g></g><g><use xlink:href="#cxhjlqYls" opacity="1" fill="#e6e6e6" fill-opacity="1"></use><g><use xlink:href="#cxhjlqYls" opacity="1" fill-opacity="0" stroke="#000000" stroke-width="1" stroke-opacity="0"></use></g></g><g><use xlink:href="#e2OtpBYLYI" opacity="1" fill="#cccccc" fill-opacity="1"></use><g><use xlink:href="#e2OtpBYLYI" opacity="1" fill-opacity="0" stroke="#000000" stroke-width="1" stroke-opacity="0"></use></g></g><g><use xlink:href="#a2tyNRnaUh" opacity="1" fill="#e6e6e6" fill-opacity="1"></use><g><use xlink:href="#a2tyNRnaUh" opacity="1" fill-opacity="0" stroke="#000000" stroke-width="1" stroke-opacity="0"></use></g></g><g><use xlink:href="#cybmulH4h" opacity="1" fill="#e6e6e6" fill-opacity="1"></use><g><use xlink:href="#cybmulH4h" opacity="1" fill-opacity="0" stroke="#000000" stroke-width="1" stroke-opacity="0"></use></g></g><g><use xlink:href="#d74S6yhU7l" opacity="1" fill="#e6e6e6" fill-opacity="1"></use><g><use xlink:href="#d74S6yhU7l" opacity="1" fill-opacity="0" stroke="#000000" stroke-width="1" stroke-opacity="0"></use></g></g><g><use xlink:href="#b1k3qS5nZk" opacity="1" fill="#e6e6e6" fill-opacity="1"></use><g><use xlink:href="#b1k3qS5nZk" opacity="1" fill-opacity="0" stroke="#000000" stroke-width="1" stroke-opacity="0"></use></g></g><g><use xlink:href="#a31kEIccsL" opacity="1" fill="#cccccc" fill-opacity="1"></use><g><use xlink:href="#a31kEIccsL" opacity="1" fill-opacity="0" stroke="#000000" stroke-width="1" stroke-opacity="0"></use></g></g><g><use xlink:href="#f4pdSe1Lhm" opacity="1" fill="#e6e6e6" fill-opacity="1"></use><g><use xlink:href="#f4pdSe1Lhm" opacity="1" fill-opacity="0" stroke="#000000" stroke-width="1" stroke-opacity="0"></use></g></g><g><use xlink:href="#dQ8OFEkyC" opacity="1" fill="#e6e6e6" fill-opacity="1"></use><g><use xlink:href="#dQ8OFEkyC" opacity="1" fill-opacity="0" stroke="#000000" stroke-width="1" stroke-opacity="0"></use></g></g><g><use xlink:href="#d4gUhKfNC3" opacity="1" fill="#e6e6e6" fill-opacity="1"></use><g><use xlink:href="#d4gUhKfNC3" opacity="1" fill-opacity="0" stroke="#000000" stroke-width="1" stroke-opacity="0"></use></g></g><g><use xlink:href="#aGYxrJqus" opacity="1" fill="#153d66" fill-opacity="1"></use><g><use xlink:href="#aGYxrJqus" opacity="1" fill-opacity="0" stroke="#000000" stroke-width="1" stroke-opacity="0"></use></g></g><g><use xlink:href="#a3hsDiv1HI" opacity="1" fill="#153d66" fill-opacity="1"></use><g><use xlink:href="#a3hsDiv1HI" opacity="1" fill-opacity="0" stroke="#000000" stroke-width="1" stroke-opacity="0"></use></g></g><g><use xlink:href="#aXEouOrLW" opacity="1" fill="#3f3d56" fill-opacity="1"></use><g><use xlink:href="#aXEouOrLW" opacity="1" fill-opacity="0" stroke="#000000" stroke-width="1" stroke-opacity="0"></use></g></g><g><use xlink:href="#fFYfoafQE" opacity="1" fill="#e6e6e6" fill-opacity="1"></use><g><use xlink:href="#fFYfoafQE" opacity="1" fill-opacity="0" stroke="#000000" stroke-width="1" stroke-opacity="0"></use></g></g><g><use xlink:href="#c2YLgjI98R" opacity="1" fill="#e6e6e6" fill-opacity="1"></use><g><use xlink:href="#c2YLgjI98R" opacity="1" fill-opacity="0" stroke="#000000" stroke-width="1" stroke-opacity="0"></use></g></g><g><use xlink:href="#d2J7EedU5B" opacity="1" fill="#e6e6e6" fill-opacity="1"></use><g><use xlink:href="#d2J7EedU5B" opacity="1" fill-opacity="0" stroke="#000000" stroke-width="1" stroke-opacity="0"></use></g></g><g><use xlink:href="#j5yOof9TJ" opacity="1" fill="#e6e6e6" fill-opacity="1"></use><g><use xlink:href="#j5yOof9TJ" opacity="1" fill-opacity="0" stroke="#000000" stroke-width="1" stroke-opacity="0"></use></g></g><g><use xlink:href="#bcd1187zP" opacity="1" fill="#3f3d56" fill-opacity="1"></use><g><use xlink:href="#bcd1187zP" opacity="1" fill-opacity="0" stroke="#000000" stroke-width="1" stroke-opacity="0"></use></g></g><g><use xlink:href="#axLlUYYWt" opacity="1" fill="#3f3d56" fill-opacity="1"></use><g><use xlink:href="#axLlUYYWt" opacity="1" fill-opacity="0" stroke="#000000" stroke-width="1" stroke-opacity="0"></use></g></g><g><use xlink:href="#a3p7Gpspt" opacity="1" fill="#3f3d56" fill-opacity="1"></use><g><use xlink:href="#a3p7Gpspt" opacity="1" fill-opacity="0" stroke="#000000" stroke-width="1" stroke-opacity="0"></use></g></g><g><use xlink:href="#b1gWyB5y0P" opacity="1" fill="#3f3d56" fill-opacity="1"></use><g><use xlink:href="#b1gWyB5y0P" opacity="1" fill-opacity="0" stroke="#000000" stroke-width="1" stroke-opacity="0"></use></g></g><g><use xlink:href="#b15xTcRmEH" opacity="1" fill="#e6e6e6" fill-opacity="1"></use><g><use xlink:href="#b15xTcRmEH" opacity="1" fill-opacity="0" stroke="#000000" stroke-width="1" stroke-opacity="0"></use></g></g><g><use xlink:href="#b3FFMlNX8Z" opacity="1" fill="#e6e6e6" fill-opacity="1"></use><g><use xlink:href="#b3FFMlNX8Z" opacity="1" fill-opacity="0" stroke="#000000" stroke-width="1" stroke-opacity="0"></use></g></g><g><use xlink:href="#bRHkVwvxl" opacity="1" fill="#3f3d56" fill-opacity="1"></use><g><use xlink:href="#bRHkVwvxl" opacity="1" fill-opacity="0" stroke="#000000" stroke-width="1" stroke-opacity="0"></use></g></g><g><use xlink:href="#gyLXy4ZKQ" opacity="1" fill="#e6e6e6" fill-opacity="1"></use><g><use xlink:href="#gyLXy4ZKQ" opacity="1" fill-opacity="0" stroke="#000000" stroke-width="1" stroke-opacity="0"></use></g></g><g><use xlink:href="#acbaCbuQ" opacity="1" fill="#ffffff" fill-opacity="1"></use><g><use xlink:href="#acbaCbuQ" opacity="1" fill-opacity="0" stroke="#000000" stroke-width="1" stroke-opacity="0"></use></g></g><g><use xlink:href="#aO37RWM73" opacity="1" fill="#3f3d56" fill-opacity="1"></use><g><use xlink:href="#aO37RWM73" opacity="1" fill-opacity="0" stroke="#000000" stroke-width="1" stroke-opacity="0"></use></g></g><g><use xlink:href="#c1iv6rYmHY" opacity="1" fill="#3f3d56" fill-opacity="1"></use><g><use xlink:href="#c1iv6rYmHY" opacity="1" fill-opacity="0" stroke="#000000" stroke-width="1" stroke-opacity="0"></use></g></g><g><use xlink:href="#c2Jh6s4lG" opacity="1" fill="#3f3d56" fill-opacity="1"></use><g><use xlink:href="#c2Jh6s4lG" opacity="1" fill-opacity="0" stroke="#000000" stroke-width="1" stroke-opacity="0"></use></g></g><g><use xlink:href="#jLhSwn2n2" opacity="1" fill="#3f3d56" fill-opacity="1"></use><g><use xlink:href="#jLhSwn2n2" opacity="1" fill-opacity="0" stroke="#000000" stroke-width="1" stroke-opacity="0"></use></g></g><g><use xlink:href="#brbuZf4rM" opacity="1" fill="#3f3d56" fill-opacity="1"></use><g><use xlink:href="#brbuZf4rM" opacity="1" fill-opacity="0" stroke="#000000" stroke-width="1" stroke-opacity="0"></use></g></g><g><use xlink:href="#b2W9s2k7Da" opacity="1" fill="#e6e6e6" fill-opacity="1"></use><g><use xlink:href="#b2W9s2k7Da" opacity="1" fill-opacity="0" stroke="#000000" stroke-width="1" stroke-opacity="0"></use></g></g><g><use xlink:href="#g7UgfC2oz" opacity="1" fill="#153d66" fill-opacity="1"></use><g><use xlink:href="#g7UgfC2oz" opacity="1" fill-opacity="0" stroke="#000000" stroke-width="1" stroke-opacity="0"></use></g></g><g><use xlink:href="#abpuZS8he" opacity="1" fill="#153d66" fill-opacity="1"></use><g><use xlink:href="#abpuZS8he" opacity="1" fill-opacity="0" stroke="#000000" stroke-width="1" stroke-opacity="0"></use></g></g><g><use xlink:href="#e1UIO6WaTv" opacity="1" fill="#3f3d56" fill-opacity="1"></use><g><use xlink:href="#e1UIO6WaTv" opacity="1" fill-opacity="0" stroke="#000000" stroke-width="1" stroke-opacity="0"></use></g></g><g><use xlink:href="#b1HksGbcz0" opacity="1" fill="#153d66" fill-opacity="1"></use><g><use xlink:href="#b1HksGbcz0" opacity="1" fill-opacity="0" stroke="#000000" stroke-width="1" stroke-opacity="0"></use></g></g><g><use xlink:href="#b2tEe8F6Wj" opacity="1" fill="#153d66" fill-opacity="1"></use><g><use xlink:href="#b2tEe8F6Wj" opacity="1" fill-opacity="0" stroke="#000000" stroke-width="1" stroke-opacity="0"></use></g></g><g><use xlink:href="#d2r8Zcpo8w" opacity="1" fill="#3f3d56" fill-opacity="1"></use><g><use xlink:href="#d2r8Zcpo8w" opacity="1" fill-opacity="0" stroke="#000000" stroke-width="1" stroke-opacity="0"></use></g></g><g><use xlink:href="#c3Zcoi6BFO" opacity="1" fill="#3f3d56" fill-opacity="1"></use><g><use xlink:href="#c3Zcoi6BFO" opacity="1" fill-opacity="0" stroke="#000000" stroke-width="1" stroke-opacity="0"></use></g></g><g><use xlink:href="#df47jhTxi" opacity="1" fill="#3f3d56" fill-opacity="1"></use><g><use xlink:href="#df47jhTxi" opacity="1" fill-opacity="0" stroke="#000000" stroke-width="1" stroke-opacity="0"></use></g></g><g><use xlink:href="#e2Msqh5wAM" opacity="1" fill="#153d66" fill-opacity="1"></use><g><use xlink:href="#e2Msqh5wAM" opacity="1" fill-opacity="0" stroke="#000000" stroke-width="1" stroke-opacity="0"></use></g></g><g><use xlink:href="#b7dNcZ6lRw" opacity="1" fill="#153d66" fill-opacity="1"></use><g><use xlink:href="#b7dNcZ6lRw" opacity="1" fill-opacity="0" stroke="#000000" stroke-width="1" stroke-opacity="0"></use></g></g><g><use xlink:href="#b3uO33I5G" opacity="1" fill="#3f3d56" fill-opacity="1"></use><g><use xlink:href="#b3uO33I5G" opacity="1" fill-opacity="0" stroke="#000000" stroke-width="1" stroke-opacity="0"></use></g></g><g><use xlink:href="#b8t6e8TqG" opacity="1" fill="#3f3d56" fill-opacity="1"></use><g><use xlink:href="#b8t6e8TqG" opacity="1" fill-opacity="0" stroke="#000000" stroke-width="1" stroke-opacity="0"></use></g></g><g><use xlink:href="#cLeXtNA7P" opacity="1" fill="#153d66" fill-opacity="1"></use><g><use xlink:href="#cLeXtNA7P" opacity="1" fill-opacity="0" stroke="#000000" stroke-width="1" stroke-opacity="0"></use></g></g><g><use xlink:href="#e3431tgXH" opacity="1" fill="#2f2e41" fill-opacity="1"></use><g><use xlink:href="#e3431tgXH" opacity="1" fill-opacity="0" stroke="#000000" stroke-width="1" stroke-opacity="0"></use></g></g><g><use xlink:href="#a4Yv8Eop3" opacity="1" fill="#ffb8b8" fill-opacity="1"></use><g><use xlink:href="#a4Yv8Eop3" opacity="1" fill-opacity="0" stroke="#000000" stroke-width="1" stroke-opacity="0"></use></g></g><g><use xlink:href="#aL4y9oksR" opacity="1" fill="#ffb8b8" fill-opacity="1"></use><g><use xlink:href="#aL4y9oksR" opacity="1" fill-opacity="0" stroke="#000000" stroke-width="1" stroke-opacity="0"></use></g></g><g><use xlink:href="#e2lRUbfWCW" opacity="1" fill="#2f2e41" fill-opacity="1"></use><g><use xlink:href="#e2lRUbfWCW" opacity="1" fill-opacity="0" stroke="#000000" stroke-width="1" stroke-opacity="0"></use></g></g><g><use xlink:href="#afmQ9iNaX" opacity="1" fill="#2f2e41" fill-opacity="1"></use><g><use xlink:href="#afmQ9iNaX" opacity="1" fill-opacity="0" stroke="#000000" stroke-width="1" stroke-opacity="0"></use></g></g><g><use xlink:href="#e2DmkAwoY" opacity="1" fill="#2f2e41" fill-opacity="1"></use><g><use xlink:href="#e2DmkAwoY" opacity="1" fill-opacity="0" stroke="#000000" stroke-width="1" stroke-opacity="0"></use></g></g><g><use xlink:href="#bwcGhBcNc" opacity="1" fill="#2f2e41" fill-opacity="1"></use><g><use xlink:href="#bwcGhBcNc" opacity="1" fill-opacity="0" stroke="#000000" stroke-width="1" stroke-opacity="0"></use></g></g><g><use xlink:href="#abTdUZqCVl" opacity="1" fill="#575a89" fill-opacity="1"></use><g><use xlink:href="#abTdUZqCVl" opacity="1" fill-opacity="0" stroke="#000000" stroke-width="1" stroke-opacity="0"></use></g></g><g><use xlink:href="#a38d5NRh0P" opacity="1" fill="#ffb8b8" fill-opacity="1"></use><g><use xlink:href="#a38d5NRh0P" opacity="1" fill-opacity="0" stroke="#000000" stroke-width="1" stroke-opacity="0"></use></g></g><g><use xlink:href="#bcLXsXgG" opacity="1" fill="#2f2e41" fill-opacity="1"></use><g><use xlink:href="#bcLXsXgG" opacity="1" fill-opacity="0" stroke="#000000" stroke-width="1" stroke-opacity="0"></use></g></g><g><use xlink:href="#a2kYIhWkrw" opacity="1" fill="#2f2e41" fill-opacity="1"></use><g><use xlink:href="#a2kYIhWkrw" opacity="1" fill-opacity="0" stroke="#000000" stroke-width="1" stroke-opacity="0"></use></g></g><g><use xlink:href="#a41NIC4Gs9" opacity="1" fill="#2f2e41" fill-opacity="1"></use><g><use xlink:href="#a41NIC4Gs9" opacity="1" fill-opacity="0" stroke="#000000" stroke-width="1" stroke-opacity="0"></use></g></g><g><use xlink:href="#a1oHHpxPJC" opacity="1" fill="#575a89" fill-opacity="1"></use><g><use xlink:href="#a1oHHpxPJC" opacity="1" fill-opacity="0" stroke="#000000" stroke-width="1" stroke-opacity="0"></use></g></g><g><use xlink:href="#ezJIlzzsl" opacity="1" fill="#000000" fill-opacity="1"></use><g><use xlink:href="#ezJIlzzsl" opacity="1" fill-opacity="0" stroke="#000000" stroke-width="1" stroke-opacity="0"></use></g></g><g><use xlink:href="#dqc63QRmO" opacity="1" fill="#3f3d56" fill-opacity="1"></use><g><use xlink:href="#dqc63QRmO" opacity="1" fill-opacity="0" stroke="#000000" stroke-width="1" stroke-opacity="0"></use></g></g><g><use xlink:href="#bFOo4LUeI" opacity="1" fill="#3f3d56" fill-opacity="1"></use><g><use xlink:href="#bFOo4LUeI" opacity="1" fill-opacity="0" stroke="#000000" stroke-width="1" stroke-opacity="0"></use></g></g><g><use xlink:href="#b2TO6iZR29" opacity="1" fill="#3f3d56" fill-opacity="1"></use><g><use xlink:href="#b2TO6iZR29" opacity="1" fill-opacity="0" stroke="#000000" stroke-width="1" stroke-opacity="0"></use></g></g><g><use xlink:href="#aphmY1Ck2" opacity="1" fill="#153d66" fill-opacity="1"></use><g><use xlink:href="#aphmY1Ck2" opacity="1" fill-opacity="0" stroke="#000000" stroke-width="1" stroke-opacity="0"></use></g></g><g><use xlink:href="#e27kDnVaGv" opacity="1" fill="#e6e6e6" fill-opacity="1"></use><g><use xlink:href="#e27kDnVaGv" opacity="1" fill-opacity="0" stroke="#000000" stroke-width="1" stroke-opacity="0"></use></g></g><g><use xlink:href="#ctxHgktUa" opacity="1" fill="#ffffff" fill-opacity="1"></use><g><use xlink:href="#ctxHgktUa" opacity="1" fill-opacity="0" stroke="#000000" stroke-width="1" stroke-opacity="0"></use></g></g><g><use xlink:href="#c5VxBkIwyP" opacity="1" fill="#3f3d56" fill-opacity="1"></use><g><use xlink:href="#c5VxBkIwyP" opacity="1" fill-opacity="0" stroke="#000000" stroke-width="1" stroke-opacity="0"></use></g></g><g><use xlink:href="#a3Tiexvurk" opacity="1" fill="#3f3d56" fill-opacity="1"></use><g><use xlink:href="#a3Tiexvurk" opacity="1" fill-opacity="0" stroke="#000000" stroke-width="1" stroke-opacity="0"></use></g></g><g><use xlink:href="#dsu813DQA" opacity="1" fill="#3f3d56" fill-opacity="1"></use><g><use xlink:href="#dsu813DQA" opacity="1" fill-opacity="0" stroke="#000000" stroke-width="1" stroke-opacity="0"></use></g></g><g><use xlink:href="#cQZ9y9y91" opacity="1" fill="#3f3d56" fill-opacity="1"></use><g><use xlink:href="#cQZ9y9y91" opacity="1" fill-opacity="0" stroke="#000000" stroke-width="1" stroke-opacity="0"></use></g></g><g><use xlink:href="#a1dfXADCEJ" opacity="1" fill="#3f3d56" fill-opacity="1"></use><g><use xlink:href="#a1dfXADCEJ" opacity="1" fill-opacity="0" stroke="#000000" stroke-width="1" stroke-opacity="0"></use></g></g><g><use xlink:href="#bLnBBt3KP" opacity="1" fill="#3f3d56" fill-opacity="1"></use><g><use xlink:href="#bLnBBt3KP" opacity="1" fill-opacity="0" stroke="#000000" stroke-width="1" stroke-opacity="0"></use></g></g><g><use xlink:href="#c1BGqznI3" opacity="1" fill="#3f3d56" fill-opacity="1"></use><g><use xlink:href="#c1BGqznI3" opacity="1" fill-opacity="0" stroke="#000000" stroke-width="1" stroke-opacity="0"></use></g></g></g></svg>